{
copyright = "Copyright (c) 2015, Cadson Demak (info@cadsondemak.com)";
customParameters = (
{
name = vendorID;
value = CDK;
},
{
name = description;
value = "Copyright (c) 2015, Cadson Demak (info@cadsondemak.com)";
},
{
name = license;

glyphs = (
{
glyphname = A;
lastChange = "2015-10-20 08:24:08 +0000";
layers = (
{
layerId = "E9D5AAFE-D5DF-4A4E-94FD-DD81026DC4E3";
name = "Bold Italic";
paths = (
{
closed = 1;
nodes = (
"210 0 LINE",
"219 44 LINE",
"198 44 LINE SMOOTH",
"176 44 OFFCURVE",
"151 57 OFFCURVE",
"171 94 CURVE SMOOTH",
"416 525 LINE",
"479 93 LINE SMOOTH",
"484 60 OFFCURVE",
"472 44 OFFCURVE",
"438 44 CURVE SMOOTH",
"417 44 LINE",
"408 0 LINE",
"733 0 LINE",
"742 44 LINE",
"720 44 LINE SMOOTH",
"700 44 OFFCURVE",
"682 52 OFFCURVE",
"676 79 CURVE SMOOTH",
"556 725 LINE",
"414 678 LINE",
"63 82 LINE SMOOTH",
"47 55 OFFCURVE",
"15 44 OFFCURVE",
"-10 44 CURVE SMOOTH",
"-26 44 LINE",
"-35 0 LINE"
);
},
{
closed = 1;
nodes = (
"518 181 LINE",
"531 244 LINE",
"204 244 LINE",
"192 181 LINE"
);
}
);
width = 776;
}
);
leftKerningGroup = A;
note = A;
rightKerningGroup = A;
unicode = 0041;
},
{
glyphname = Aacute;
lastChange = "2015-10-20 08:24:08 +0000";
layers = (
{
layerId = "E9D5AAFE-D5DF-4A4E-94FD-DD81026DC4E3";
name = "Bold Italic";
paths = (
{
closed = 1;
nodes = (
"210 0 LINE",
"219 44 LINE",
"198 44 LINE SMOOTH",
"176 44 OFFCURVE",
"151 57 OFFCURVE",
"171 94 CURVE SMOOTH",
"416 525 LINE",
"479 93 LINE SMOOTH",
"484 60 OFFCURVE",
"472 44 OFFCURVE",
"438 44 CURVE SMOOTH",
"417 44 LINE",
"408 0 LINE",
"733 0 LINE",
"742 44 LINE",
"720 44 LINE SMOOTH",
"700 44 OFFCURVE",
"682 52 OFFCURVE",
"676 79 CURVE SMOOTH",
"556 725 LINE",
"414 678 LINE",
"63 82 LINE SMOOTH",
"47 55 OFFCURVE",
"15 44 OFFCURVE",
"-10 44 CURVE SMOOTH",
"-26 44 LINE",
"-35 0 LINE"
);
},
{
closed = 1;
nodes = (
"518 181 LINE",
"531 244 LINE",
"204 244 LINE",
"192 181 LINE"
);
},
{
closed = 1;
nodes = (
"598 872 LINE SMOOTH",
"636 893 OFFCURVE",
"660 914 OFFCURVE",
"666 941 CURVE",
"670 964 OFFCURVE",
"660 991 OFFCURVE",
"620 991 CURVE SMOOTH",
"585 991 OFFCURVE",
"552 960 OFFCURVE",
"544 952 CURVE",
"397 820 LINE",
"419 775 LINE"
);
}
);
width = 776;
}
);
leftKerningGroup = A;
note = Aacute;
rightKerningGroup = A;
unicode = 00C1;
},
{
glyphname = Abreve;
lastChange = "2015-10-20 08:24:08 +0000";
layers = (
{
layerId = "E9D5AAFE-D5DF-4A4E-94FD-DD81026DC4E3";
name = "Bold Italic";
paths = (
{
closed = 1;
nodes = (
"210 0 LINE",
"219 44 LINE",
"198 44 LINE SMOOTH",
"176 44 OFFCURVE",
"151 57 OFFCURVE",
"171 94 CURVE SMOOTH",
"416 525 LINE",
"479 93 LINE SMOOTH",
"484 60 OFFCURVE",
"472 44 OFFCURVE",
"438 44 CURVE SMOOTH",
"417 44 LINE",
"408 0 LINE",
"733 0 LINE",
"742 44 LINE",
"720 44 LINE SMOOTH",
"700 44 OFFCURVE",
"682 52 OFFCURVE",
"676 79 CURVE SMOOTH",
"556 725 LINE",
"414 678 LINE",
"63 82 LINE SMOOTH",
"47 55 OFFCURVE",
"15 44 OFFCURVE",
"-10 44 CURVE SMOOTH",
"-26 44 LINE",
"-35 0 LINE"
);
},
{
closed = 1;
nodes = (
"518 181 LINE",
"531 244 LINE",
"204 244 LINE",
"192 181 LINE"
);
},
{
closed = 1;
nodes = (
"641 777 OFFCURVE",
"685 860 OFFCURVE",
"700 931 CURVE",
"659 931 LINE",
"650 900 OFFCURVE",
"618 852 OFFCURVE",
"524 852 CURVE SMOOTH",
"431 852 OFFCURVE",
"416 900 OFFCURVE",
"419 931 CURVE",
"378 931 LINE",
"364 855 OFFCURVE",
"376 777 OFFCURVE",
"509 777 CURVE SMOOTH"
);
}
);
width = 776;
}
);
leftKerningGroup = A;
note = Abreve;
rightKerningGroup = A;
unicode = 0102;
},
{
glyphname = Abreveacute;
lastChange = "2015-10-20 08:24:07 +0000";
layers = (
{
layerId = "E9D5AAFE-D5DF-4A4E-94FD-DD81026DC4E3";
name = "Bold Italic";
paths = (
{
closed = 1;
nodes = (
"210 0 LINE",
"219 44 LINE",
"198 44 LINE SMOOTH",
"176 44 OFFCURVE",
"151 57 OFFCURVE",
"171 94 CURVE SMOOTH",
"416 525 LINE",
"479 93 LINE SMOOTH",
"484 60 OFFCURVE",
"472 44 OFFCURVE",
"438 44 CURVE SMOOTH",
"417 44 LINE",
"408 0 LINE",
"733 0 LINE",
"742 44 LINE",
"720 44 LINE SMOOTH",
"700 44 OFFCURVE",
"682 52 OFFCURVE",
"676 79 CURVE SMOOTH",
"556 725 LINE",
"414 678 LINE",
"63 82 LINE SMOOTH",
"47 55 OFFCURVE",
"15 44 OFFCURVE",
"-10 44 CURVE SMOOTH",
"-26 44 LINE",
"-35 0 LINE"
);
},
{
closed = 1;
nodes = (
"518 181 LINE",
"531 244 LINE",
"204 244 LINE",
"192 181 LINE"
);
},
{
closed = 1;
nodes = (
"641 776 OFFCURVE",
"684 859 OFFCURVE",
"700 930 CURVE",
"659 930 LINE",
"651 899 OFFCURVE",
"616 851 OFFCURVE",
"523 851 CURVE SMOOTH",
"429 851 OFFCURVE",
"416 899 OFFCURVE",
"420 930 CURVE",
"378 930 LINE",
"364 853 OFFCURVE",
"374 776 OFFCURVE",
"508 776 CURVE SMOOTH"
);
},
{
closed = 1;
nodes = (
"648 974 LINE SMOOTH",
"685 992 OFFCURVE",
"721 1018 OFFCURVE",
"727 1047 CURVE SMOOTH",
"732 1071 OFFCURVE",
"719 1100 OFFCURVE",
"682 1100 CURVE SMOOTH",
"649 1100 OFFCURVE",
"617 1071 OFFCURVE",
"599 1052 CURVE SMOOTH",
"506 958 LINE",
"527 919 LINE"
);
}
);
width = 776;
}
);
leftKerningGroup = A;
note = Abreveacute;
rightKerningGroup = A;
unicode = 1EAE;
},
{
glyphname = Abrevedotbelow;
lastChange = "2015-10-20 08:24:07 +0000";
layers = (
{
layerId = "E9D5AAFE-D5DF-4A4E-94FD-DD81026DC4E3";
name = "Bold Italic";
paths = (
{
closed = 1;
nodes = (
"210 0 LINE",
"219 44 LINE",
"198 44 LINE SMOOTH",
"176 44 OFFCURVE",
"151 57 OFFCURVE",
"171 94 CURVE SMOOTH",
"416 525 LINE",
"479 93 LINE SMOOTH",
"484 60 OFFCURVE",
"472 44 OFFCURVE",
"438 44 CURVE SMOOTH",
"417 44 LINE",
"408 0 LINE",
"733 0 LINE",
"742 44 LINE",
"720 44 LINE SMOOTH",
"700 44 OFFCURVE",
"682 52 OFFCURVE",
"676 79 CURVE SMOOTH",
"556 725 LINE",
"414 678 LINE",
"63 82 LINE SMOOTH",
"47 55 OFFCURVE",
"15 44 OFFCURVE",
"-10 44 CURVE SMOOTH",
"-26 44 LINE",
"-35 0 LINE"
);
},
{
closed = 1;
nodes = (
"348 -205 OFFCURVE",
"380 -174 OFFCURVE",
"388 -135 CURVE SMOOTH",
"396 -96 OFFCURVE",
"376 -64 OFFCURVE",
"335 -64 CURVE SMOOTH",
"294 -64 OFFCURVE",
"261 -96 OFFCURVE",
"253 -135 CURVE SMOOTH",
"246 -174 OFFCURVE",
"265 -205 OFFCURVE",
"306 -205 CURVE SMOOTH"
);
},
{
closed = 1;
nodes = (
"518 181 LINE",
"531 244 LINE",
"204 244 LINE",
"192 181 LINE"
);
},
{
closed = 1;
nodes = (
"640 776 OFFCURVE",
"684 859 OFFCURVE",
"699 930 CURVE",
"658 930 LINE",
"649 899 OFFCURVE",
"617 851 OFFCURVE",
"523 851 CURVE SMOOTH",
"430 851 OFFCURVE",
"415 899 OFFCURVE",
"418 930 CURVE",
"377 930 LINE",
"363 854 OFFCURVE",
"375 776 OFFCURVE",
"508 776 CURVE SMOOTH"
);
}
);
width = 776;
}
);
leftKerningGroup = A;
note = Abrevedotbelow;
rightKerningGroup = A;
unicode = 1EB6;
},
{
glyphname = Abrevegrave;
lastChange = "2015-10-20 08:24:07 +0000";
layers = (
{
layerId = "E9D5AAFE-D5DF-4A4E-94FD-DD81026DC4E3";
name = "Bold Italic";
paths = (
{
closed = 1;
nodes = (
"210 0 LINE",
"219 44 LINE",
"198 44 LINE SMOOTH",
"176 44 OFFCURVE",
"151 57 OFFCURVE",
"171 94 CURVE SMOOTH",
"416 525 LINE",
"479 93 LINE SMOOTH",
"484 60 OFFCURVE",
"472 44 OFFCURVE",
"438 44 CURVE SMOOTH",
"417 44 LINE",
"408 0 LINE",
"733 0 LINE",
"742 44 LINE",
"720 44 LINE SMOOTH",
"700 44 OFFCURVE",
"682 52 OFFCURVE",
"676 79 CURVE SMOOTH",
"556 725 LINE",
"414 678 LINE",
"63 82 LINE SMOOTH",
"47 55 OFFCURVE",
"15 44 OFFCURVE",
"-10 44 CURVE SMOOTH",
"-26 44 LINE",
"-35 0 LINE"
);
},
{
closed = 1;
nodes = (
"518 181 LINE",
"531 244 LINE",
"204 244 LINE",
"192 181 LINE"
);
},
{
closed = 1;
nodes = (
"641 776 OFFCURVE",
"684 859 OFFCURVE",
"700 930 CURVE",
"659 930 LINE",
"651 899 OFFCURVE",
"616 851 OFFCURVE",
"523 851 CURVE SMOOTH",
"429 851 OFFCURVE",
"416 899 OFFCURVE",
"420 930 CURVE",
"378 930 LINE",
"364 853 OFFCURVE",
"374 776 OFFCURVE",
"508 776 CURVE SMOOTH"
);
},
{
closed = 1;
nodes = (
"585 956 LINE",
"525 1054 LINE",
"514 1071 OFFCURVE",
"495 1100 OFFCURVE",
"465 1100 CURVE SMOOTH",
"423 1100 OFFCURVE",
"402 1067 OFFCURVE",
"398 1046 CURVE SMOOTH",
"393 1019 OFFCURVE",
"411 995 OFFCURVE",
"444 976 CURVE SMOOTH",
"546 917 LINE"
);
}
);
width = 776;
}
);
leftKerningGroup = A;
note = Abrevegrave;
rightKerningGroup = A;
unicode = 1EB0;
},
{
glyphname = Abrevehookabove;
lastChange = "2015-10-20 08:24:08 +0000";
layers = (
{
layerId = "E9D5AAFE-D5DF-4A4E-94FD-DD81026DC4E3";
name = "Bold Italic";
paths = (
{
closed = 1;
nodes = (
"210 0 LINE",
"219 44 LINE",
"198 44 LINE SMOOTH",
"176 44 OFFCURVE",
"151 57 OFFCURVE",
"171 94 CURVE SMOOTH",
"416 525 LINE",
"479 93 LINE SMOOTH",
"484 60 OFFCURVE",
"472 44 OFFCURVE",
"438 44 CURVE SMOOTH",
"417 44 LINE",
"408 0 LINE",
"733 0 LINE",
"742 44 LINE",
"720 44 LINE SMOOTH",
"700 44 OFFCURVE",
"682 52 OFFCURVE",
"676 79 CURVE SMOOTH",
"556 725 LINE",
"414 678 LINE",
"63 82 LINE SMOOTH",
"47 55 OFFCURVE",
"15 44 OFFCURVE",
"-10 44 CURVE SMOOTH",
"-26 44 LINE",
"-35 0 LINE"
);
},
{
closed = 1;
nodes = (
"518 181 LINE",
"531 244 LINE",
"204 244 LINE",
"192 181 LINE"
);
},
{
closed = 1;
nodes = (
"641 776 OFFCURVE",
"684 859 OFFCURVE",
"700 930 CURVE",
"659 930 LINE",
"651 899 OFFCURVE",
"616 851 OFFCURVE",
"523 851 CURVE SMOOTH",
"429 851 OFFCURVE",
"416 899 OFFCURVE",
"420 930 CURVE",
"378 930 LINE",
"364 853 OFFCURVE",
"374 776 OFFCURVE",
"508 776 CURVE SMOOTH"
);
},
{
closed = 1;
nodes = (
"579 940 LINE",
"567 942 OFFCURVE",
"555 945 OFFCURVE",
"560 965 CURVE",
"567 1004 OFFCURVE",
"663 1011 OFFCURVE",
"676 1069 CURVE SMOOTH",
"684 1113 OFFCURVE",
"642 1134 OFFCURVE",
"590 1134 CURVE SMOOTH",
"522 1134 OFFCURVE",
"488 1103 OFFCURVE",
"483 1081 CURVE",
"479 1059 OFFCURVE",
"493 1050 OFFCURVE",
"508 1050 CURVE SMOOTH",
"523 1050 OFFCURVE",
"539 1059 OFFCURVE",
"542 1074 CURVE SMOOTH",
"549 1097 OFFCURVE",
"568 1106 OFFCURVE",
"585 1106 CURVE SMOOTH",
"604 1106 OFFCURVE",
"609 1090 OFFCURVE",
"606 1076 CURVE SMOOTH",
"595 1022 OFFCURVE",
"514 1012 OFFCURVE",
"504 965 CURVE SMOOTH",
"497 936 OFFCURVE",
"527 918 OFFCURVE",
"567 918 CURVE"
);
}
);
width = 776;
}
);
leftKerningGroup = A;
note = Abrevehookabove;
rightKerningGroup = A;
unicode = 1EB2;
},
{
glyphname = Abrevetilde;
lastChange = "2015-10-20 08:24:07 +0000";
layers = (
{
layerId = "E9D5AAFE-D5DF-4A4E-94FD-DD81026DC4E3";
name = "Bold Italic";
paths = (
{
closed = 1;
nodes = (
"210 0 LINE",
"219 44 LINE",
"198 44 LINE SMOOTH",
"176 44 OFFCURVE",
"151 57 OFFCURVE",
"171 94 CURVE SMOOTH",
"416 525 LINE",
"479 93 LINE SMOOTH",
"484 60 OFFCURVE",
"472 44 OFFCURVE",
"438 44 CURVE SMOOTH",
"417 44 LINE",
"408 0 LINE",
"733 0 LINE",
"742 44 LINE",
"720 44 LINE SMOOTH",
"700 44 OFFCURVE",
"682 52 OFFCURVE",
"676 79 CURVE SMOOTH",
"556 725 LINE",
"414 678 LINE",
"63 82 LINE SMOOTH",
"47 55 OFFCURVE",
"15 44 OFFCURVE",
"-10 44 CURVE SMOOTH",
"-26 44 LINE",
"-35 0 LINE"
);
},
{
closed = 1;
nodes = (
"518 181 LINE",
"531 244 LINE",
"204 244 LINE",
"192 181 LINE"
);
},
{
closed = 1;
nodes = (
"641 776 OFFCURVE",
"684 859 OFFCURVE",
"700 930 CURVE",
"659 930 LINE",
"651 899 OFFCURVE",
"616 851 OFFCURVE",
"523 851 CURVE SMOOTH",
"429 851 OFFCURVE",
"416 899 OFFCURVE",
"420 930 CURVE",
"378 930 LINE",
"364 853 OFFCURVE",
"374 776 OFFCURVE",
"508 776 CURVE SMOOTH"
);
},
{
closed = 1;
nodes = (
"426 1021 OFFCURVE",
"443 1038 OFFCURVE",
"473 1038 CURVE SMOOTH",
"524 1038 OFFCURVE",
"561 992 OFFCURVE",
"611 992 CURVE SMOOTH",
"673 992 OFFCURVE",
"718 1068 OFFCURVE",
"740 1114 CURVE",
"719 1131 LINE",
"693 1091 OFFCURVE",
"678 1073 OFFCURVE",
"648 1073 CURVE SMOOTH",
"597 1073 OFFCURVE",
"560 1119 OFFCURVE",
"510 1119 CURVE SMOOTH",
"446 1119 OFFCURVE",
"402 1044 OFFCURVE",
"379 998 CURVE",
"401 981 LINE"
);
}
);
width = 776;
}
);
leftKerningGroup = A;
note = Abrevetilde;
rightKerningGroup = A;
unicode = 1EB4;
},
{
glyphname = Acaron;
lastChange = "2015-10-20 08:24:07 +0000";
layers = (
{
layerId = "E9D5AAFE-D5DF-4A4E-94FD-DD81026DC4E3";
name = "Bold Italic";
paths = (
{
closed = 1;
nodes = (
"210 0 LINE",
"219 44 LINE",
"198 44 LINE SMOOTH",
"176 44 OFFCURVE",
"151 57 OFFCURVE",
"171 94 CURVE SMOOTH",
"416 525 LINE",
"479 93 LINE SMOOTH",
"484 60 OFFCURVE",
"472 44 OFFCURVE",
"438 44 CURVE SMOOTH",
"417 44 LINE",
"408 0 LINE",
"733 0 LINE",
"742 44 LINE",
"720 44 LINE SMOOTH",
"700 44 OFFCURVE",
"682 52 OFFCURVE",
"676 79 CURVE SMOOTH",
"556 725 LINE",
"414 678 LINE",
"63 82 LINE SMOOTH",
"47 55 OFFCURVE",
"15 44 OFFCURVE",
"-10 44 CURVE SMOOTH",
"-26 44 LINE",
"-35 0 LINE"
);
},
{
closed = 1;
nodes = (
"518 181 LINE",
"531 244 LINE",
"204 244 LINE",
"192 181 LINE"
);
},
{
closed = 1;
nodes = (
"552 776 LINE",
"738 950 LINE",
"717 978 LINE",
"568 878 LINE",
"552 866 OFFCURVE",
"537 859 OFFCURVE",
"526 859 CURVE SMOOTH",
"516 859 OFFCURVE",
"504 866 OFFCURVE",
"492 878 CURVE SMOOTH",
"383 978 LINE",
"351 950 LINE",
"468 776 LINE"
);
}
);
width = 776;
}
);
leftKerningGroup = A;
note = Acaron;
rightKerningGroup = A;
unicode = 01CD;
},
{
glyphname = Acircumflex;
lastChange = "2015-10-20 08:24:07 +0000";
layers = (
{
layerId = "E9D5AAFE-D5DF-4A4E-94FD-DD81026DC4E3";
name = "Bold Italic";
paths = (
{
closed = 1;
nodes = (
"210 0 LINE",
"219 44 LINE",
"198 44 LINE SMOOTH",
"176 44 OFFCURVE",
"151 57 OFFCURVE",
"171 94 CURVE SMOOTH",
"416 525 LINE",
"479 93 LINE SMOOTH",
"484 60 OFFCURVE",
"472 44 OFFCURVE",
"438 44 CURVE SMOOTH",
"417 44 LINE",
"408 0 LINE",
"733 0 LINE",
"742 44 LINE",
"720 44 LINE SMOOTH",
"700 44 OFFCURVE",
"682 52 OFFCURVE",
"676 79 CURVE SMOOTH",
"556 725 LINE",
"414 678 LINE",
"63 82 LINE SMOOTH",
"47 55 OFFCURVE",
"15 44 OFFCURVE",
"-10 44 CURVE SMOOTH",
"-26 44 LINE",
"-35 0 LINE"
);
},
{
closed = 1;
nodes = (
"518 181 LINE",
"531 244 LINE",
"204 244 LINE",
"192 181 LINE"
);
},
{
closed = 1;
nodes = (
"492 876 LINE",
"508 888 OFFCURVE",
"523 895 OFFCURVE",
"534 895 CURVE SMOOTH",
"544 895 OFFCURVE",
"556 888 OFFCURVE",
"568 876 CURVE SMOOTH",
"677 776 LINE",
"708 804 LINE",
"592 978 LINE",
"508 978 LINE",
"322 804 LINE",
"343 776 LINE"
);
}
);
width = 776;
}
);
leftKerningGroup = A;
note = Acircumflex;
rightKerningGroup = A;
unicode = 00C2;
},
{
glyphname = Acircumflexacute;
lastChange = "2015-10-20 08:24:07 +0000";
layers = (
{
layerId = "E9D5AAFE-D5DF-4A4E-94FD-DD81026DC4E3";
name = "Bold Italic";
paths = (
{
closed = 1;
nodes = (
"210 0 LINE",
"219 44 LINE",
"198 44 LINE SMOOTH",
"176 44 OFFCURVE",
"151 57 OFFCURVE",
"171 94 CURVE SMOOTH",
"416 525 LINE",
"479 93 LINE SMOOTH",
"484 60 OFFCURVE",
"472 44 OFFCURVE",
"438 44 CURVE SMOOTH",
"417 44 LINE",
"408 0 LINE",
"733 0 LINE",
"742 44 LINE",
"720 44 LINE SMOOTH",
"700 44 OFFCURVE",
"682 52 OFFCURVE",
"676 79 CURVE SMOOTH",
"556 725 LINE",
"414 678 LINE",
"63 82 LINE SMOOTH",
"47 55 OFFCURVE",
"15 44 OFFCURVE",
"-10 44 CURVE SMOOTH",
"-26 44 LINE",
"-35 0 LINE"
);
},
{
closed = 1;
nodes = (
"518 181 LINE",
"531 244 LINE",
"204 244 LINE",
"192 181 LINE"
);
},
{
closed = 1;
nodes = (
"495 873 LINE SMOOTH",
"513 885 OFFCURVE",
"528 894 OFFCURVE",
"539 894 CURVE SMOOTH",
"549 894 OFFCURVE",
"561 885 OFFCURVE",
"572 873 CURVE",
"675 775 LINE",
"705 804 LINE",
"597 978 LINE",
"513 978 LINE",
"333 804 LINE",
"351 775 LINE"
);
},
{
closed = 1;
nodes = (
"803 969 LINE SMOOTH",
"841 987 OFFCURVE",
"876 1013 OFFCURVE",
"882 1042 CURVE SMOOTH",
"887 1066 OFFCURVE",
"875 1095 OFFCURVE",
"837 1095 CURVE SMOOTH",
"804 1095 OFFCURVE",
"772 1066 OFFCURVE",
"754 1047 CURVE SMOOTH",
"661 953 LINE",
"682 914 LINE"
);
}
);
width = 776;
}
);
leftKerningGroup = A;
note = Acircumflexacute;
rightKerningGroup = A;
unicode = 1EA4;
},
{
glyphname = Acircumflexdotbelow;
lastChange = "2015-10-20 08:24:07 +0000";
layers = (
{
layerId = "E9D5AAFE-D5DF-4A4E-94FD-DD81026DC4E3";
name = "Bold Italic";
paths = (
{
closed = 1;
nodes = (
"210 0 LINE",
"219 44 LINE",
"198 44 LINE SMOOTH",
"176 44 OFFCURVE",
"151 57 OFFCURVE",
"171 94 CURVE SMOOTH",
"416 525 LINE",
"479 93 LINE SMOOTH",
"484 60 OFFCURVE",
"472 44 OFFCURVE",
"438 44 CURVE SMOOTH",
"417 44 LINE",
"408 0 LINE",
"733 0 LINE",
"742 44 LINE",
"720 44 LINE SMOOTH",
"700 44 OFFCURVE",
"682 52 OFFCURVE",
"676 79 CURVE SMOOTH",
"556 725 LINE",
"414 678 LINE",
"63 82 LINE SMOOTH",
"47 55 OFFCURVE",
"15 44 OFFCURVE",
"-10 44 CURVE SMOOTH",
"-26 44 LINE",
"-35 0 LINE"
);
},
{
closed = 1;
nodes = (
"356 -205 OFFCURVE",
"389 -174 OFFCURVE",
"396 -135 CURVE SMOOTH",
"404 -96 OFFCURVE",
"385 -64 OFFCURVE",
"344 -64 CURVE SMOOTH",
"302 -64 OFFCURVE",
"270 -96 OFFCURVE",
"262 -135 CURVE SMOOTH",
"254 -174 OFFCURVE",
"274 -205 OFFCURVE",
"315 -205 CURVE SMOOTH"
);
},
{
closed = 1;
nodes = (
"518 181 LINE",
"531 244 LINE",
"204 244 LINE",
"192 181 LINE"
);
},
{
closed = 1;
nodes = (
"493 875 LINE",
"510 887 OFFCURVE",
"525 894 OFFCURVE",
"536 894 CURVE SMOOTH",
"546 894 OFFCURVE",
"558 887 OFFCURVE",
"570 875 CURVE SMOOTH",
"679 775 LINE",
"710 803 LINE",
"594 977 LINE",
"510 977 LINE",
"324 803 LINE",
"345 775 LINE"
);
}
);
width = 776;
}
);
leftKerningGroup = A;
note = Acircumflexdotbelow;
rightKerningGroup = A;
unicode = 1EAC;
},
{
glyphname = Acircumflexgrave;
lastChange = "2015-10-20 08:24:08 +0000";
layers = (
{
layerId = "E9D5AAFE-D5DF-4A4E-94FD-DD81026DC4E3";
name = "Bold Italic";
paths = (
{
closed = 1;
nodes = (
"210 0 LINE",
"219 44 LINE",
"198 44 LINE SMOOTH",
"176 44 OFFCURVE",
"151 57 OFFCURVE",
"171 94 CURVE SMOOTH",
"416 525 LINE",
"479 93 LINE SMOOTH",
"484 60 OFFCURVE",
"472 44 OFFCURVE",
"438 44 CURVE SMOOTH",
"417 44 LINE",
"408 0 LINE",
"733 0 LINE",
"742 44 LINE",
"720 44 LINE SMOOTH",
"700 44 OFFCURVE",
"682 52 OFFCURVE",
"676 79 CURVE SMOOTH",
"556 725 LINE",
"414 678 LINE",
"63 82 LINE SMOOTH",
"47 55 OFFCURVE",
"15 44 OFFCURVE",
"-10 44 CURVE SMOOTH",
"-26 44 LINE",
"-35 0 LINE"
);
},
{
closed = 1;
nodes = (
"518 181 LINE",
"531 244 LINE",
"204 244 LINE",
"192 181 LINE"
);
},
{
closed = 1;
nodes = (
"440 953 LINE",
"381 1051 LINE SMOOTH",
"372 1068 OFFCURVE",
"353 1096 OFFCURVE",
"322 1096 CURVE SMOOTH",
"281 1096 OFFCURVE",
"259 1064 OFFCURVE",
"254 1043 CURVE",
"250 1016 OFFCURVE",
"267 992 OFFCURVE",
"300 973 CURVE SMOOTH",
"403 914 LINE"
);
},
{
closed = 1;
nodes = (
"495 873 LINE SMOOTH",
"513 885 OFFCURVE",
"528 894 OFFCURVE",
"539 894 CURVE SMOOTH",
"549 894 OFFCURVE",
"561 885 OFFCURVE",
"572 873 CURVE",
"675 775 LINE",
"705 804 LINE",
"597 978 LINE",
"513 978 LINE",
"333 804 LINE",
"351 775 LINE"
);
}
);
width = 776;
}
);
leftKerningGroup = A;
note = Acircumflexgrave;
rightKerningGroup = A;
unicode = 1EA6;
},
{
glyphname = Acircumflexhookabove;
lastChange = "2015-10-20 08:24:08 +0000";
layers = (
{
layerId = "E9D5AAFE-D5DF-4A4E-94FD-DD81026DC4E3";
name = "Bold Italic";
paths = (
{
closed = 1;
nodes = (
"210 0 LINE",
"219 44 LINE",
"198 44 LINE SMOOTH",
"176 44 OFFCURVE",
"151 57 OFFCURVE",
"171 94 CURVE SMOOTH",
"416 525 LINE",
"479 93 LINE SMOOTH",
"484 60 OFFCURVE",
"472 44 OFFCURVE",
"438 44 CURVE SMOOTH",
"417 44 LINE",
"408 0 LINE",
"733 0 LINE",
"742 44 LINE",
"720 44 LINE SMOOTH",
"700 44 OFFCURVE",
"682 52 OFFCURVE",
"676 79 CURVE SMOOTH",
"556 725 LINE",
"414 678 LINE",
"63 82 LINE SMOOTH",
"47 55 OFFCURVE",
"15 44 OFFCURVE",
"-10 44 CURVE SMOOTH",
"-26 44 LINE",
"-35 0 LINE"
);
},
{
closed = 1;
nodes = (
"518 181 LINE",
"531 244 LINE",
"204 244 LINE",
"192 181 LINE"
);
},
{
closed = 1;
nodes = (
"495 873 LINE SMOOTH",
"513 885 OFFCURVE",
"528 894 OFFCURVE",
"539 894 CURVE SMOOTH",
"549 894 OFFCURVE",
"561 885 OFFCURVE",
"572 873 CURVE",
"675 775 LINE",
"705 804 LINE",
"597 978 LINE",
"513 978 LINE",
"333 804 LINE",
"351 775 LINE"
);
},
{
closed = 1;
nodes = (
"744 936 LINE",
"732 938 OFFCURVE",
"720 941 OFFCURVE",
"724 960 CURVE SMOOTH",
"732 1000 OFFCURVE",
"829 1007 OFFCURVE",
"841 1065 CURVE SMOOTH",
"850 1109 OFFCURVE",
"806 1130 OFFCURVE",
"755 1130 CURVE SMOOTH",
"686 1130 OFFCURVE",
"653 1099 OFFCURVE",
"648 1076 CURVE SMOOTH",
"644 1055 OFFCURVE",
"658 1045 OFFCURVE",
"672 1045 CURVE SMOOTH",
"711 1045 OFFCURVE",
"706 1101 OFFCURVE",
"749 1101 CURVE SMOOTH",
"768 1101 OFFCURVE",
"773 1085 OFFCURVE",
"770 1072 CURVE SMOOTH",
"759 1018 OFFCURVE",
"678 1007 OFFCURVE",
"668 961 CURVE SMOOTH",
"662 931 OFFCURVE",
"690 914 OFFCURVE",
"732 914 CURVE"
);
}
);
width = 776;
}
);
leftKerningGroup = A;
note = Acircumflexhookabove;
rightKerningGroup = A;
unicode = 1EA8;
},
{
glyphname = Acircumflextilde;
lastChange = "2015-10-20 08:24:08 +0000";
layers = (
{
layerId = "E9D5AAFE-D5DF-4A4E-94FD-DD81026DC4E3";
name = "Bold Italic";
paths = (
{
closed = 1;
nodes = (
"210 0 LINE",
"219 44 LINE",
"198 44 LINE SMOOTH",
"176 44 OFFCURVE",
"151 57 OFFCURVE",
"171 94 CURVE SMOOTH",
"416 525 LINE",
"479 93 LINE SMOOTH",
"484 60 OFFCURVE",
"472 44 OFFCURVE",
"438 44 CURVE SMOOTH",
"417 44 LINE",
"408 0 LINE",
"733 0 LINE",
"742 44 LINE",
"720 44 LINE SMOOTH",
"700 44 OFFCURVE",
"682 52 OFFCURVE",
"676 79 CURVE SMOOTH",
"556 725 LINE",
"414 678 LINE",
"63 82 LINE SMOOTH",
"47 55 OFFCURVE",
"15 44 OFFCURVE",
"-10 44 CURVE SMOOTH",
"-26 44 LINE",
"-35 0 LINE"
);
},
{
closed = 1;
nodes = (
"518 181 LINE",
"531 244 LINE",
"204 244 LINE",
"192 181 LINE"
);
},
{
closed = 1;
nodes = (
"495 873 LINE SMOOTH",
"513 885 OFFCURVE",
"528 894 OFFCURVE",
"539 894 CURVE SMOOTH",
"549 894 OFFCURVE",
"561 885 OFFCURVE",
"572 873 CURVE",
"675 775 LINE",
"705 804 LINE",
"597 978 LINE",
"513 978 LINE",
"333 804 LINE",
"351 775 LINE"
);
},
{
closed = 1;
nodes = (
"427 1033 OFFCURVE",
"446 1051 OFFCURVE",
"479 1051 CURVE SMOOTH",
"535 1051 OFFCURVE",
"575 1005 OFFCURVE",
"629 1005 CURVE SMOOTH",
"696 1005 OFFCURVE",
"743 1081 OFFCURVE",
"768 1126 CURVE",
"744 1144 LINE",
"717 1103 OFFCURVE",
"700 1086 OFFCURVE",
"666 1086 CURVE SMOOTH",
"612 1086 OFFCURVE",
"571 1131 OFFCURVE",
"517 1131 CURVE SMOOTH",
"448 1131 OFFCURVE",
"402 1056 OFFCURVE",
"377 1011 CURVE",
"402 993 LINE"
);
}
);
width = 776;
}
);
leftKerningGroup = A;
note = Acircumflextilde;
rightKerningGroup = A;
unicode = 1EAA;
},
{
glyphname = Adieresis;
lastChange = "2015-10-20 08:24:07 +0000";
layers = (
{
layerId = "E9D5AAFE-D5DF-4A4E-94FD-DD81026DC4E3";
name = "Bold Italic";
paths = (
{
closed = 1;
nodes = (
"210 0 LINE",
"219 44 LINE",
"198 44 LINE SMOOTH",
"176 44 OFFCURVE",
"151 57 OFFCURVE",
"171 94 CURVE SMOOTH",
"416 525 LINE",
"479 93 LINE SMOOTH",
"484 60 OFFCURVE",
"472 44 OFFCURVE",
"438 44 CURVE SMOOTH",
"417 44 LINE",
"408 0 LINE",
"733 0 LINE",
"742 44 LINE",
"720 44 LINE SMOOTH",
"700 44 OFFCURVE",
"682 52 OFFCURVE",
"676 79 CURVE SMOOTH",
"556 725 LINE",
"414 678 LINE",
"63 82 LINE SMOOTH",
"47 55 OFFCURVE",
"15 44 OFFCURVE",
"-10 44 CURVE SMOOTH",
"-26 44 LINE",
"-35 0 LINE"
);
},
{
closed = 1;
nodes = (
"518 181 LINE",
"531 244 LINE",
"204 244 LINE",
"192 181 LINE"
);
},
{
closed = 1;
nodes = (
"418 776 OFFCURVE",
"449 806 OFFCURVE",
"457 845 CURVE SMOOTH",
"466 885 OFFCURVE",
"445 916 OFFCURVE",
"403 916 CURVE SMOOTH",
"363 916 OFFCURVE",
"332 885 OFFCURVE",
"324 845 CURVE SMOOTH",
"316 806 OFFCURVE",
"335 776 OFFCURVE",
"375 776 CURVE SMOOTH"
);
},
{
closed = 1;
nodes = (
"650 776 OFFCURVE",
"682 806 OFFCURVE",
"689 845 CURVE SMOOTH",
"698 885 OFFCURVE",
"678 916 OFFCURVE",
"636 916 CURVE SMOOTH",
"593 916 OFFCURVE",
"563 885 OFFCURVE",
"554 845 CURVE SMOOTH",
"546 806 OFFCURVE",
"565 776 OFFCURVE",
"609 776 CURVE SMOOTH"
);
}
);
width = 776;
}
);
leftKerningGroup = A;
note = Adieresis;
rightKerningGroup = A;
unicode = 00C4;
},
{
glyphname = Adotbelow;
lastChange = "2015-10-20 08:24:07 +0000";
layers = (
{
layerId = "E9D5AAFE-D5DF-4A4E-94FD-DD81026DC4E3";
name = "Bold Italic";
paths = (
{
closed = 1;
nodes = (
"210 0 LINE",
"219 44 LINE",
"198 44 LINE SMOOTH",
"176 44 OFFCURVE",
"151 57 OFFCURVE",
"171 94 CURVE SMOOTH",
"416 525 LINE",
"479 93 LINE SMOOTH",
"484 60 OFFCURVE",
"472 44 OFFCURVE",
"438 44 CURVE SMOOTH",
"417 44 LINE",
"408 0 LINE",
"733 0 LINE",
"742 44 LINE",
"720 44 LINE SMOOTH",
"700 44 OFFCURVE",
"682 52 OFFCURVE",
"676 79 CURVE SMOOTH",
"556 725 LINE",
"414 678 LINE",
"63 82 LINE SMOOTH",
"47 55 OFFCURVE",
"15 44 OFFCURVE",
"-10 44 CURVE SMOOTH",
"-26 44 LINE",
"-35 0 LINE"
);
},
{
closed = 1;
nodes = (
"353 -205 OFFCURVE",
"386 -174 OFFCURVE",
"394 -135 CURVE SMOOTH",
"401 -96 OFFCURVE",
"382 -64 OFFCURVE",
"341 -64 CURVE SMOOTH",
"300 -64 OFFCURVE",
"267 -96 OFFCURVE",
"259 -135 CURVE SMOOTH",
"252 -174 OFFCURVE",
"271 -205 OFFCURVE",
"312 -205 CURVE SMOOTH"
);
},
{
closed = 1;
nodes = (
"518 181 LINE",
"531 244 LINE",
"204 244 LINE",
"192 181 LINE"
);
}
);
width = 776;
}
);
leftKerningGroup = A;
note = Adotbelow;
rightKerningGroup = A;
unicode = 1EA0;
},
{
glyphname = Agrave;
lastChange = "2015-10-20 08:24:08 +0000";
layers = (
{
layerId = "E9D5AAFE-D5DF-4A4E-94FD-DD81026DC4E3";
name = "Bold Italic";
paths = (
{
closed = 1;
nodes = (
"210 0 LINE",
"219 44 LINE",
"198 44 LINE SMOOTH",
"176 44 OFFCURVE",
"151 57 OFFCURVE",
"171 94 CURVE SMOOTH",
"416 525 LINE",
"479 93 LINE SMOOTH",
"484 60 OFFCURVE",
"472 44 OFFCURVE",
"438 44 CURVE SMOOTH",
"417 44 LINE",
"408 0 LINE",
"733 0 LINE",
"742 44 LINE",
"720 44 LINE SMOOTH",
"700 44 OFFCURVE",
"682 52 OFFCURVE",
"676 79 CURVE SMOOTH",
"556 725 LINE",
"414 678 LINE",
"63 82 LINE SMOOTH",
"47 55 OFFCURVE",
"15 44 OFFCURVE",
"-10 44 CURVE SMOOTH",
"-26 44 LINE",
"-35 0 LINE"
);
},
{
closed = 1;
nodes = (
"518 181 LINE",
"531 244 LINE",
"204 244 LINE",
"192 181 LINE"
);
},
{
closed = 1;
nodes = (
"643 820 LINE",
"551 952 LINE",
"546 960 OFFCURVE",
"525 991 OFFCURVE",
"490 991 CURVE SMOOTH",
"449 991 OFFCURVE",
"428 964 OFFCURVE",
"424 942 CURVE SMOOTH",
"419 914 OFFCURVE",
"433 893 OFFCURVE",
"463 872 CURVE SMOOTH",
"603 775 LINE"
);
}
);
width = 776;
}
);
leftKerningGroup = A;
note = Agrave;
rightKerningGroup = A;
unicode = 00C0;
},
{
glyphname = Ahookabove;
lastChange = "2015-10-20 08:24:08 +0000";
layers = (
{
layerId = "E9D5AAFE-D5DF-4A4E-94FD-DD81026DC4E3";
name = "Bold Italic";
paths = (
{
closed = 1;
nodes = (
"210 0 LINE",
"219 44 LINE",
"198 44 LINE SMOOTH",
"176 44 OFFCURVE",
"151 57 OFFCURVE",
"171 94 CURVE SMOOTH",
"416 525 LINE",
"479 93 LINE SMOOTH",
"484 60 OFFCURVE",
"472 44 OFFCURVE",
"438 44 CURVE SMOOTH",
"417 44 LINE",
"408 0 LINE",
"733 0 LINE",
"742 44 LINE",
"720 44 LINE SMOOTH",
"700 44 OFFCURVE",
"682 52 OFFCURVE",
"676 79 CURVE SMOOTH",
"556 725 LINE",
"414 678 LINE",
"63 82 LINE SMOOTH",
"47 55 OFFCURVE",
"15 44 OFFCURVE",
"-10 44 CURVE SMOOTH",
"-26 44 LINE",
"-35 0 LINE"
);
},
{
closed = 1;
nodes = (
"518 181 LINE",
"531 244 LINE",
"204 244 LINE",
"192 181 LINE"
);
},
{
closed = 1;
nodes = (
"570 801 LINE",
"557 803 OFFCURVE",
"542 807 OFFCURVE",
"547 828 CURVE SMOOTH",
"557 874 OFFCURVE",
"667 882 OFFCURVE",
"682 950 CURVE SMOOTH",
"692 1001 OFFCURVE",
"645 1026 OFFCURVE",
"585 1026 CURVE SMOOTH",
"502 1026 OFFCURVE",
"466 989 OFFCURVE",
"460 962 CURVE SMOOTH",
"455 937 OFFCURVE",
"470 926 OFFCURVE",
"488 926 CURVE SMOOTH",
"509 926 OFFCURVE",
"525 941 OFFCURVE",
"529 957 CURVE SMOOTH",
"536 984 OFFCURVE",
"560 991 OFFCURVE",
"576 991 CURVE SMOOTH",
"597 991 OFFCURVE",
"605 974 OFFCURVE",
"601 957 CURVE SMOOTH",
"588 895 OFFCURVE",
"494 883 OFFCURVE",
"484 830 CURVE SMOOTH",
"477 796 OFFCURVE",
"510 776 OFFCURVE",
"557 776 CURVE"
);
}
);
width = 776;
}
);
leftKerningGroup = A;
note = Ahookabove;
rightKerningGroup = A;
unicode = 1EA2;
},
{
glyphname = Amacron;
lastChange = "2015-10-20 08:24:07 +0000";
layers = (
{
layerId = "E9D5AAFE-D5DF-4A4E-94FD-DD81026DC4E3";
name = "Bold Italic";
paths = (
{
closed = 1;
nodes = (
"210 0 LINE",
"219 44 LINE",
"198 44 LINE SMOOTH",
"176 44 OFFCURVE",
"151 57 OFFCURVE",
"171 94 CURVE SMOOTH",
"416 525 LINE",
"479 93 LINE SMOOTH",
"484 60 OFFCURVE",
"472 44 OFFCURVE",
"438 44 CURVE SMOOTH",
"417 44 LINE",
"408 0 LINE",
"733 0 LINE",
"742 44 LINE",
"720 44 LINE SMOOTH",
"700 44 OFFCURVE",
"682 52 OFFCURVE",
"676 79 CURVE SMOOTH",
"556 725 LINE",
"414 678 LINE",
"63 82 LINE SMOOTH",
"47 55 OFFCURVE",
"15 44 OFFCURVE",
"-10 44 CURVE SMOOTH",
"-26 44 LINE",
"-35 0 LINE"
);
},
{
closed = 1;
nodes = (
"518 181 LINE",
"531 244 LINE",
"204 244 LINE",
"192 181 LINE"
);
},
{
closed = 1;
nodes = (
"709 776 LINE",
"723 845 LINE",
"330 845 LINE",
"317 776 LINE"
);
}
);
width = 776;
}
);
leftKerningGroup = A;
note = Amacron;
rightKerningGroup = A;
unicode = 0100;
},
{
glyphname = Aogonek;
lastChange = "2015-10-20 08:24:08 +0000";
layers = (
{
layerId = "E9D5AAFE-D5DF-4A4E-94FD-DD81026DC4E3";
name = "Bold Italic";
paths = (
{
closed = 1;
nodes = (
"210 0 LINE",
"219 44 LINE",
"198 44 LINE SMOOTH",
"176 44 OFFCURVE",
"151 57 OFFCURVE",
"171 94 CURVE SMOOTH",
"416 525 LINE",
"479 93 LINE SMOOTH",
"484 60 OFFCURVE",
"472 44 OFFCURVE",
"438 44 CURVE SMOOTH",
"417 44 LINE",
"408 0 LINE",
"733 0 LINE",
"742 44 LINE",
"720 44 LINE SMOOTH",
"700 44 OFFCURVE",
"682 52 OFFCURVE",
"676 79 CURVE SMOOTH",
"556 725 LINE",
"414 678 LINE",
"63 82 LINE SMOOTH",
"47 55 OFFCURVE",
"15 44 OFFCURVE",
"-10 44 CURVE SMOOTH",
"-26 44 LINE",
"-35 0 LINE"
);
},
{
closed = 1;
nodes = (
"649 -234 OFFCURVE",
"690 -221 OFFCURVE",
"731 -192 CURVE",
"722 -166 LINE",
"708 -173 OFFCURVE",
"685 -179 OFFCURVE",
"671 -179 CURVE SMOOTH",
"639 -179 OFFCURVE",
"620 -159 OFFCURVE",
"628 -117 CURVE SMOOTH",
"636 -76 OFFCURVE",
"667 -32 OFFCURVE",
"727 11 CURVE",
"668 11 LINE",
"599 -23 OFFCURVE",
"535 -76 OFFCURVE",
"523 -135 CURVE SMOOTH",
"516 -172 OFFCURVE",
"523 -234 OFFCURVE",
"619 -234 CURVE SMOOTH"
);
},
{
closed = 1;
nodes = (
"518 181 LINE",
"531 244 LINE",
"204 244 LINE",
"192 181 LINE"
);
}
);
width = 776;
}
);
leftKerningGroup = A;
note = Aogonek;
rightKerningGroup = A;
unicode = 0104;
},
{
glyphname = Aring;
lastChange = "2015-10-20 08:24:07 +0000";
layers = (
{
layerId = "E9D5AAFE-D5DF-4A4E-94FD-DD81026DC4E3";
name = "Bold Italic";
paths = (
{
closed = 1;
nodes = (
"210 0 LINE",
"219 44 LINE",
"198 44 LINE SMOOTH",
"176 44 OFFCURVE",
"151 57 OFFCURVE",
"171 94 CURVE SMOOTH",
"416 525 LINE",
"479 93 LINE SMOOTH",
"484 60 OFFCURVE",
"472 44 OFFCURVE",
"438 44 CURVE SMOOTH",
"417 44 LINE",
"408 0 LINE",
"733 0 LINE",
"742 44 LINE",
"720 44 LINE SMOOTH",
"700 44 OFFCURVE",
"682 52 OFFCURVE",
"676 79 CURVE SMOOTH",
"556 725 LINE",
"414 678 LINE",
"63 82 LINE SMOOTH",
"47 55 OFFCURVE",
"15 44 OFFCURVE",
"-10 44 CURVE SMOOTH",
"-26 44 LINE",
"-35 0 LINE"
);
},
{
closed = 1;
nodes = (
"518 181 LINE",
"531 244 LINE",
"204 244 LINE",
"192 181 LINE"
);
},
{
closed = 1;
nodes = (
"568 741 OFFCURVE",
"621 785 OFFCURVE",
"635 850 CURVE SMOOTH",
"648 915 OFFCURVE",
"612 959 OFFCURVE",
"545 959 CURVE SMOOTH",
"478 959 OFFCURVE",
"424 915 OFFCURVE",
"411 850 CURVE SMOOTH",
"397 785 OFFCURVE",
"434 741 OFFCURVE",
"501 741 CURVE SMOOTH"
);
},
{
closed = 1;
nodes = (
"485 798 OFFCURVE",
"466 819 OFFCURVE",
"472 850 CURVE SMOOTH",
"479 881 OFFCURVE",
"506 901 OFFCURVE",
"534 901 CURVE SMOOTH",
"562 901 OFFCURVE",
"581 881 OFFCURVE",
"574 850 CURVE SMOOTH",
"567 819 OFFCURVE",
"540 798 OFFCURVE",
"513 798 CURVE SMOOTH"
);
}
);
width = 776;
}
);
leftKerningGroup = A;
note = Aring;
rightKerningGroup = A;
unicode = 00C5;
},
{
glyphname = Aringacute;
lastChange = "2015-10-20 08:24:08 +0000";
layers = (
{
layerId = "E9D5AAFE-D5DF-4A4E-94FD-DD81026DC4E3";
name = "Bold Italic";
paths = (
{
closed = 1;
nodes = (
"210 0 LINE",
"219 44 LINE",
"198 44 LINE SMOOTH",
"176 44 OFFCURVE",
"151 57 OFFCURVE",
"171 94 CURVE SMOOTH",
"416 525 LINE",
"479 93 LINE SMOOTH",
"484 60 OFFCURVE",
"472 44 OFFCURVE",
"438 44 CURVE SMOOTH",
"417 44 LINE",
"408 0 LINE",
"733 0 LINE",
"742 44 LINE",
"720 44 LINE SMOOTH",
"700 44 OFFCURVE",
"682 52 OFFCURVE",
"676 79 CURVE SMOOTH",
"556 725 LINE",
"414 678 LINE",
"63 82 LINE SMOOTH",
"47 55 OFFCURVE",
"15 44 OFFCURVE",
"-10 44 CURVE SMOOTH",
"-26 44 LINE",
"-35 0 LINE"
);
},
{
closed = 1;
nodes = (
"518 181 LINE",
"531 244 LINE",
"204 244 LINE",
"192 181 LINE"
);
},
{
closed = 1;
nodes = (
"568 741 OFFCURVE",
"621 785 OFFCURVE",
"635 850 CURVE SMOOTH",
"648 915 OFFCURVE",
"612 959 OFFCURVE",
"545 959 CURVE SMOOTH",
"478 959 OFFCURVE",
"424 915 OFFCURVE",
"411 850 CURVE SMOOTH",
"397 785 OFFCURVE",
"434 741 OFFCURVE",
"501 741 CURVE SMOOTH"
);
},
{
closed = 1;
nodes = (
"485 798 OFFCURVE",
"466 819 OFFCURVE",
"472 850 CURVE SMOOTH",
"479 881 OFFCURVE",
"506 901 OFFCURVE",
"534 901 CURVE SMOOTH",
"562 901 OFFCURVE",
"581 881 OFFCURVE",
"574 850 CURVE SMOOTH",
"567 819 OFFCURVE",
"540 798 OFFCURVE",
"513 798 CURVE SMOOTH"
);
},
{
closed = 1;
nodes = (
"640 1075 LINE SMOOTH",
"679 1096 OFFCURVE",
"703 1117 OFFCURVE",
"708 1144 CURVE",
"712 1167 OFFCURVE",
"702 1194 OFFCURVE",
"662 1194 CURVE SMOOTH",
"627 1194 OFFCURVE",
"594 1163 OFFCURVE",
"587 1155 CURVE",
"440 1023 LINE",
"461 978 LINE"
);
}
);
width = 776;
}
);
leftKerningGroup = A;
note = Aringacute;
rightKerningGroup = A;
unicode = 01FA;
},
{
glyphname = Atilde;
lastChange = "2015-10-20 08:24:08 +0000";
layers = (
{
layerId = "E9D5AAFE-D5DF-4A4E-94FD-DD81026DC4E3";
name = "Bold Italic";
paths = (
{
closed = 1;
nodes = (
"210 0 LINE",
"219 44 LINE",
"198 44 LINE SMOOTH",
"176 44 OFFCURVE",
"151 57 OFFCURVE",
"171 94 CURVE SMOOTH",
"416 525 LINE",
"479 93 LINE SMOOTH",
"484 60 OFFCURVE",
"472 44 OFFCURVE",
"438 44 CURVE SMOOTH",
"417 44 LINE",
"408 0 LINE",
"733 0 LINE",
"742 44 LINE",
"720 44 LINE SMOOTH",
"700 44 OFFCURVE",
"682 52 OFFCURVE",
"676 79 CURVE SMOOTH",
"556 725 LINE",
"414 678 LINE",
"63 82 LINE SMOOTH",
"47 55 OFFCURVE",
"15 44 OFFCURVE",
"-10 44 CURVE SMOOTH",
"-26 44 LINE",
"-35 0 LINE"
);
},
{
closed = 1;
nodes = (
"518 181 LINE",
"531 244 LINE",
"204 244 LINE",
"192 181 LINE"
);
},
{
closed = 1;
nodes = (
"374 812 OFFCURVE",
"395 829 OFFCURVE",
"430 829 CURVE SMOOTH",
"492 829 OFFCURVE",
"537 783 OFFCURVE",
"596 783 CURVE SMOOTH",
"672 783 OFFCURVE",
"721 859 OFFCURVE",
"747 905 CURVE",
"721 922 LINE",
"691 882 OFFCURVE",
"673 864 OFFCURVE",
"636 864 CURVE SMOOTH",
"576 864 OFFCURVE",
"531 910 OFFCURVE",
"471 910 CURVE SMOOTH",
"396 910 OFFCURVE",
"346 835 OFFCURVE",
"319 789 CURVE",
"347 772 LINE"
);
}
);
width = 776;
}
);
leftKerningGroup = A;
note = Atilde;
rightKerningGroup = A;
unicode = 00C3;
},
{
glyphname = AE;
lastChange = "2015-10-20 08:24:07 +0000";
layers = (
{
layerId = "E9D5AAFE-D5DF-4A4E-94FD-DD81026DC4E3";
name = "Bold Italic";
paths = (
{
closed = 1;
nodes = (
"222 0 LINE",
"230 44 LINE",
"208 44 LINE SMOOTH",
"199 44 OFFCURVE",
"168 52 OFFCURVE",
"172 74 CURVE SMOOTH",
"173 79 OFFCURVE",
"177 85 OFFCURVE",
"181 92 CURVE SMOOTH",
"247 181 LINE",
"454 181 LINE",
"434 83 LINE SMOOTH",
"429 57 OFFCURVE",
"410 44 OFFCURVE",
"374 44 CURVE SMOOTH",
"346 44 LINE",
"337 0 LINE",
"918 0 LINE",
"978 198 LINE",
"936 198 LINE",
"910 127 OFFCURVE",
"877 62 OFFCURVE",
"808 62 CURVE SMOOTH",
"609 62 LINE",
"663 331 LINE",
"787 331 LINE SMOOTH",
"830 331 OFFCURVE",
"826 286 OFFCURVE",
"821 242 CURVE",
"855 242 LINE",
"904 483 LINE",
"870 483 LINE",
"857 439 OFFCURVE",
"843 394 OFFCURVE",
"800 394 CURVE SMOOTH",
"676 394 LINE",
"726 637 LINE",
"895 637 LINE SMOOTH",
"991 637 OFFCURVE",
"983 542 OFFCURVE",
"978 502 CURVE",
"1020 502 LINE",
"1061 700 LINE",
"464 700 LINE",
"455 656 LINE",
"487 656 LINE SMOOTH",
"498 656 OFFCURVE",
"500 649 OFFCURVE",
"499 641 CURVE",
"498 636 OFFCURVE",
"494 630 OFFCURVE",
"492 626 CURVE",
"78 87 LINE SMOOTH",
"58 61 OFFCURVE",
"30 44 OFFCURVE",
"1 44 CURVE SMOOTH",
"-14 44 LINE",
"-23 0 LINE"
);
},
{
closed = 1;
nodes = (
"531 556 LINE",
"467 244 LINE",
"294 244 LINE"
);
}
);
width = 1006;
}
);
leftKerningGroup = A;
note = AE;
rightKerningGroup = E;
unicode = 00C6;
},
{
glyphname = AEacute;
lastChange = "2015-10-20 08:24:08 +0000";
layers = (
{
layerId = "E9D5AAFE-D5DF-4A4E-94FD-DD81026DC4E3";
name = "Bold Italic";
paths = (
{
closed = 1;
nodes = (
"222 0 LINE",
"230 44 LINE",
"208 44 LINE SMOOTH",
"199 44 OFFCURVE",
"168 52 OFFCURVE",
"172 74 CURVE SMOOTH",
"173 79 OFFCURVE",
"177 85 OFFCURVE",
"181 92 CURVE SMOOTH",
"247 181 LINE",
"454 181 LINE",
"434 83 LINE SMOOTH",
"429 57 OFFCURVE",
"410 44 OFFCURVE",
"374 44 CURVE SMOOTH",
"346 44 LINE",
"337 0 LINE",
"918 0 LINE",
"978 198 LINE",
"936 198 LINE",
"910 127 OFFCURVE",
"877 62 OFFCURVE",
"808 62 CURVE SMOOTH",
"609 62 LINE",
"663 331 LINE",
"787 331 LINE SMOOTH",
"830 331 OFFCURVE",
"826 286 OFFCURVE",
"821 242 CURVE",
"855 242 LINE",
"904 483 LINE",
"870 483 LINE",
"857 439 OFFCURVE",
"843 394 OFFCURVE",
"800 394 CURVE SMOOTH",
"676 394 LINE",
"726 637 LINE",
"895 637 LINE SMOOTH",
"991 637 OFFCURVE",
"983 542 OFFCURVE",
"978 502 CURVE",
"1020 502 LINE",
"1061 700 LINE",
"464 700 LINE",
"455 656 LINE",
"487 656 LINE SMOOTH",
"498 656 OFFCURVE",
"500 649 OFFCURVE",
"499 641 CURVE",
"498 636 OFFCURVE",
"494 630 OFFCURVE",
"492 626 CURVE",
"78 87 LINE SMOOTH",
"58 61 OFFCURVE",
"30 44 OFFCURVE",
"1 44 CURVE SMOOTH",
"-14 44 LINE",
"-23 0 LINE"
);
},
{
closed = 1;
nodes = (
"531 556 LINE",
"467 244 LINE",
"294 244 LINE"
);
},
{
closed = 1;
nodes = (
"890 872 LINE SMOOTH",
"928 893 OFFCURVE",
"952 914 OFFCURVE",
"958 941 CURVE",
"962 964 OFFCURVE",
"951 991 OFFCURVE",
"912 991 CURVE SMOOTH",
"876 991 OFFCURVE",
"844 960 OFFCURVE",
"836 952 CURVE",
"689 820 LINE",
"710 775 LINE"
);
}
);
width = 1006;
}
);
leftKerningGroup = A;
note = AEacute;
rightKerningGroup = E;
unicode = 01FC;
},
{
glyphname = B;
lastChange = "2015-10-20 08:24:07 +0000";
layers = (
{
layerId = "E9D5AAFE-D5DF-4A4E-94FD-DD81026DC4E3";
name = "Bold Italic";
paths = (
{
closed = 1;
nodes = (
"359 0 LINE SMOOTH",
"534 0 OFFCURVE",
"613 77 OFFCURVE",
"637 194 CURVE SMOOTH",
"651 260 OFFCURVE",
"632 346 OFFCURVE",
"505 370 CURVE",
"596 391 OFFCURVE",
"654 461 OFFCURVE",
"669 535 CURVE SMOOTH",
"691 641 OFFCURVE",
"639 700 OFFCURVE",
"465 700 CURVE SMOOTH",
"115 700 LINE",
"107 656 LINE",
"137 656 LINE SMOOTH",
"174 656 OFFCURVE",
"187 643 OFFCURVE",
"182 617 CURVE SMOOTH",
"73 83 LINE SMOOTH",
"68 57 OFFCURVE",
"49 44 OFFCURVE",
"12 44 CURVE SMOOTH",
"-18 44 LINE",
"-27 0 LINE"
);
},
{
closed = 1;
nodes = (
"303 336 LINE",
"363 336 LINE SMOOTH",
"444 336 OFFCURVE",
"480 293 OFFCURVE",
"462 203 CURVE SMOOTH",
"444 113 OFFCURVE",
"394 62 OFFCURVE",
"321 62 CURVE SMOOTH",
"248 62 LINE"
);
},
{
closed = 1;
nodes = (
"365 637 LINE",
"411 637 LINE SMOOTH",
"476 637 OFFCURVE",
"503 602 OFFCURVE",
"488 525 CURVE SMOOTH",
"472 449 OFFCURVE",
"432 398 OFFCURVE",
"369 398 CURVE SMOOTH",
"316 398 LINE"
);
}
);
width = 658;
}
);
note = B;
unicode = 0042;
},
{
glyphname = C;
lastChange = "2015-10-20 08:24:08 +0000";
layers = (
{
layerId = "E9D5AAFE-D5DF-4A4E-94FD-DD81026DC4E3";
name = "Bold Italic";
paths = (
{
closed = 1;
nodes = (
"503 -10 OFFCURVE",
"619 73 OFFCURVE",
"663 175 CURVE",
"604 175 LINE",
"543 81 OFFCURVE",
"453 55 OFFCURVE",
"375 55 CURVE SMOOTH",
"252 55 OFFCURVE",
"207 164 OFFCURVE",
"246 350 CURVE SMOOTH",
"283 535 OFFCURVE",
"387 645 OFFCURVE",
"513 645 CURVE SMOOTH",
"593 645 OFFCURVE",
"674 606 OFFCURVE",
"665 491 CURVE",
"714 491 LINE",
"757 705 LINE",
"701 705 LINE",
"692 659 LINE",
"690 652 OFFCURVE",
"686 650 OFFCURVE",
"683 650 CURVE SMOOTH",
"679 650 OFFCURVE",
"675 652 OFFCURVE",
"674 653 CURVE",
"639 680 OFFCURVE",
"581 710 OFFCURVE",
"484 710 CURVE SMOOTH",
"252 710 OFFCURVE",
"108 564 OFFCURVE",
"64 350 CURVE SMOOTH",
"20 135 OFFCURVE",
"104 -10 OFFCURVE",
"340 -10 CURVE SMOOTH"
);
}
);
width = 697;
}
);
leftKerningGroup = C;
note = C;
rightKerningGroup = C;
unicode = 0043;
},
{
glyphname = Cacute;
lastChange = "2015-10-20 08:24:08 +0000";
layers = (
{
layerId = "E9D5AAFE-D5DF-4A4E-94FD-DD81026DC4E3";
name = "Bold Italic";
paths = (
{
closed = 1;
nodes = (
"503 -10 OFFCURVE",
"619 73 OFFCURVE",
"663 175 CURVE",
"604 175 LINE",
"543 81 OFFCURVE",
"453 55 OFFCURVE",
"375 55 CURVE SMOOTH",
"252 55 OFFCURVE",
"207 164 OFFCURVE",
"246 350 CURVE SMOOTH",
"283 535 OFFCURVE",
"387 645 OFFCURVE",
"513 645 CURVE SMOOTH",
"593 645 OFFCURVE",
"674 606 OFFCURVE",
"665 491 CURVE",
"714 491 LINE",
"757 705 LINE",
"701 705 LINE",
"692 659 LINE",
"690 652 OFFCURVE",
"686 650 OFFCURVE",
"683 650 CURVE SMOOTH",
"679 650 OFFCURVE",
"675 652 OFFCURVE",
"674 653 CURVE",
"639 680 OFFCURVE",
"581 710 OFFCURVE",
"484 710 CURVE SMOOTH",
"252 710 OFFCURVE",
"108 564 OFFCURVE",
"64 350 CURVE SMOOTH",
"20 135 OFFCURVE",
"104 -10 OFFCURVE",
"340 -10 CURVE SMOOTH"
);
},
{
closed = 1;
nodes = (
"636 872 LINE SMOOTH",
"675 893 OFFCURVE",
"699 914 OFFCURVE",
"705 941 CURVE",
"708 964 OFFCURVE",
"698 991 OFFCURVE",
"659 991 CURVE SMOOTH",
"623 991 OFFCURVE",
"590 960 OFFCURVE",
"583 952 CURVE",
"436 820 LINE",
"457 775 LINE"
);
}
);
width = 697;
}
);
leftKerningGroup = C;
note = Cacute;
rightKerningGroup = C;
unicode = 0106;
},
{
glyphname = Ccaron;
lastChange = "2015-10-20 08:24:07 +0000";
layers = (
{
layerId = "E9D5AAFE-D5DF-4A4E-94FD-DD81026DC4E3";
name = "Bold Italic";
paths = (
{
closed = 1;
nodes = (
"503 -10 OFFCURVE",
"619 73 OFFCURVE",
"663 175 CURVE",
"604 175 LINE",
"543 81 OFFCURVE",
"453 55 OFFCURVE",
"375 55 CURVE SMOOTH",
"252 55 OFFCURVE",
"207 164 OFFCURVE",
"246 350 CURVE SMOOTH",
"283 535 OFFCURVE",
"387 645 OFFCURVE",
"513 645 CURVE SMOOTH",
"593 645 OFFCURVE",
"674 606 OFFCURVE",
"665 491 CURVE",
"714 491 LINE",
"757 705 LINE",
"701 705 LINE",
"692 659 LINE",
"690 652 OFFCURVE",
"686 650 OFFCURVE",
"683 650 CURVE SMOOTH",
"679 650 OFFCURVE",
"675 652 OFFCURVE",
"674 653 CURVE",
"639 680 OFFCURVE",
"581 710 OFFCURVE",
"484 710 CURVE SMOOTH",
"252 710 OFFCURVE",
"108 564 OFFCURVE",
"64 350 CURVE SMOOTH",
"20 135 OFFCURVE",
"104 -10 OFFCURVE",
"340 -10 CURVE SMOOTH"
);
},
{
closed = 1;
nodes = (
"563 776 LINE",
"749 950 LINE",
"728 978 LINE",
"579 878 LINE",
"563 866 OFFCURVE",
"547 859 OFFCURVE",
"537 859 CURVE SMOOTH",
"526 859 OFFCURVE",
"515 866 OFFCURVE",
"502 878 CURVE SMOOTH",
"394 978 LINE",
"362 950 LINE",
"478 776 LINE"
);
}
);
width = 697;
}
);
leftKerningGroup = C;
note = Ccaron;
rightKerningGroup = C;
unicode = 010C;
},
{
glyphname = Ccedilla;
lastChange = "2015-10-20 08:24:08 +0000";
layers = (
{
layerId = "E9D5AAFE-D5DF-4A4E-94FD-DD81026DC4E3";
name = "Bold Italic";
paths = (
{
closed = 1;
nodes = (
"503 -10 OFFCURVE",
"619 73 OFFCURVE",
"663 175 CURVE",
"604 175 LINE",
"543 81 OFFCURVE",
"453 55 OFFCURVE",
"375 55 CURVE SMOOTH",
"252 55 OFFCURVE",
"207 164 OFFCURVE",
"246 350 CURVE SMOOTH",
"283 535 OFFCURVE",
"387 645 OFFCURVE",
"513 645 CURVE SMOOTH",
"593 645 OFFCURVE",
"674 606 OFFCURVE",
"665 491 CURVE",
"714 491 LINE",
"757 705 LINE",
"701 705 LINE",
"692 659 LINE",
"690 652 OFFCURVE",
"686 650 OFFCURVE",
"683 650 CURVE SMOOTH",
"679 650 OFFCURVE",
"675 652 OFFCURVE",
"674 653 CURVE",
"639 680 OFFCURVE",
"581 710 OFFCURVE",
"484 710 CURVE SMOOTH",
"252 710 OFFCURVE",
"108 564 OFFCURVE",
"64 350 CURVE SMOOTH",
"20 135 OFFCURVE",
"104 -10 OFFCURVE",
"340 -10 CURVE SMOOTH"
);
},
{
closed = 1;
nodes = (
"277 -256 OFFCURVE",
"395 -246 OFFCURVE",
"417 -139 CURVE SMOOTH",
"432 -67 OFFCURVE",
"358 -46 OFFCURVE",
"324 -42 CURVE",
"380 26 LINE",
"319 26 LINE",
"233 -80 LINE",
"238 -92 LINE",
"259 -93 OFFCURVE",
"318 -104 OFFCURVE",
"309 -148 CURVE SMOOTH",
"300 -197 OFFCURVE",
"248 -214 OFFCURVE",
"189 -214 CURVE SMOOTH",
"184 -214 OFFCURVE",
"179 -214 OFFCURVE",
"175 -213 CURVE",
"166 -252 LINE",
"185 -255 OFFCURVE",
"198 -256 OFFCURVE",
"221 -256 CURVE SMOOTH"
);
}
);
width = 697;
}
);
leftKerningGroup = C;
note = Ccedilla;
rightKerningGroup = C;
unicode = 00C7;
},
{
glyphname = Ccircumflex;
lastChange = "2015-10-20 08:24:07 +0000";
layers = (
{
layerId = "E9D5AAFE-D5DF-4A4E-94FD-DD81026DC4E3";
name = "Bold Italic";
paths = (
{
closed = 1;
nodes = (
"503 -10 OFFCURVE",
"619 73 OFFCURVE",
"663 175 CURVE",
"604 175 LINE",
"543 81 OFFCURVE",
"453 55 OFFCURVE",
"375 55 CURVE SMOOTH",
"252 55 OFFCURVE",
"207 164 OFFCURVE",
"246 350 CURVE SMOOTH",
"283 535 OFFCURVE",
"387 645 OFFCURVE",
"513 645 CURVE SMOOTH",
"593 645 OFFCURVE",
"674 606 OFFCURVE",
"665 491 CURVE",
"714 491 LINE",
"757 705 LINE",
"701 705 LINE",
"692 659 LINE",
"690 652 OFFCURVE",
"686 650 OFFCURVE",
"683 650 CURVE SMOOTH",
"679 650 OFFCURVE",
"675 652 OFFCURVE",
"674 653 CURVE",
"639 680 OFFCURVE",
"581 710 OFFCURVE",
"484 710 CURVE SMOOTH",
"252 710 OFFCURVE",
"108 564 OFFCURVE",
"64 350 CURVE SMOOTH",
"20 135 OFFCURVE",
"104 -10 OFFCURVE",
"340 -10 CURVE SMOOTH"
);
},
{
closed = 1;
nodes = (
"493 876 LINE",
"510 888 OFFCURVE",
"525 895 OFFCURVE",
"536 895 CURVE SMOOTH",
"546 895 OFFCURVE",
"558 888 OFFCURVE",
"570 876 CURVE SMOOTH",
"679 776 LINE",
"710 804 LINE",
"594 978 LINE",
"510 978 LINE",
"324 804 LINE",
"345 776 LINE"
);
}
);
width = 697;
}
);
leftKerningGroup = C;
note = Ccircumflex;
rightKerningGroup = C;
unicode = 0108;
},
{
glyphname = Cdotaccent;
lastChange = "2015-10-20 08:24:07 +0000";
layers = (
{
layerId = "E9D5AAFE-D5DF-4A4E-94FD-DD81026DC4E3";
name = "Bold Italic";
paths = (
{
closed = 1;
nodes = (
"503 -10 OFFCURVE",
"619 73 OFFCURVE",
"663 175 CURVE",
"604 175 LINE",
"543 81 OFFCURVE",
"453 55 OFFCURVE",
"375 55 CURVE SMOOTH",
"252 55 OFFCURVE",
"207 164 OFFCURVE",
"246 350 CURVE SMOOTH",
"283 535 OFFCURVE",
"387 645 OFFCURVE",
"513 645 CURVE SMOOTH",
"593 645 OFFCURVE",
"674 606 OFFCURVE",
"665 491 CURVE",
"714 491 LINE",
"757 705 LINE",
"701 705 LINE",
"692 659 LINE",
"690 652 OFFCURVE",
"686 650 OFFCURVE",
"683 650 CURVE SMOOTH",
"679 650 OFFCURVE",
"675 652 OFFCURVE",
"674 653 CURVE",
"639 680 OFFCURVE",
"581 710 OFFCURVE",
"484 710 CURVE SMOOTH",
"252 710 OFFCURVE",
"108 564 OFFCURVE",
"64 350 CURVE SMOOTH",
"20 135 OFFCURVE",
"104 -10 OFFCURVE",
"340 -10 CURVE SMOOTH"
);
},
{
closed = 1;
nodes = (
"567 773 OFFCURVE",
"599 803 OFFCURVE",
"608 842 CURVE SMOOTH",
"615 881 OFFCURVE",
"595 912 OFFCURVE",
"554 912 CURVE SMOOTH",
"513 912 OFFCURVE",
"482 881 OFFCURVE",
"474 842 CURVE SMOOTH",
"466 803 OFFCURVE",
"485 773 OFFCURVE",
"526 773 CURVE SMOOTH"
);
}
);
width = 697;
}
);
leftKerningGroup = C;
note = Cdotaccent;
rightKerningGroup = C;
unicode = 010A;
},
{
glyphname = D;
lastChange = "2015-10-20 08:24:07 +0000";
layers = (
{
layerId = "E9D5AAFE-D5DF-4A4E-94FD-DD81026DC4E3";
name = "Bold Italic";
paths = (
{
closed = 1;
nodes = (
"317 0 LINE SMOOTH",
"555 0 OFFCURVE",
"684 115 OFFCURVE",
"732 350 CURVE SMOOTH",
"779 582 OFFCURVE",
"698 700 OFFCURVE",
"460 700 CURVE SMOOTH",
"114 700 LINE",
"106 656 LINE",
"136 656 LINE SMOOTH",
"173 656 OFFCURVE",
"186 643 OFFCURVE",
"181 617 CURVE SMOOTH",
"72 83 LINE SMOOTH",
"67 57 OFFCURVE",
"48 44 OFFCURVE",
"12 44 CURVE SMOOTH",
"-19 44 LINE",
"-28 0 LINE"
);
},
{
closed = 1;
nodes = (
"364 638 LINE",
"446 638 LINE SMOOTH",
"551 638 OFFCURVE",
"588 539 OFFCURVE",
"550 350 CURVE SMOOTH",
"511 158 OFFCURVE",
"431 62 OFFCURVE",
"327 62 CURVE SMOOTH",
"247 62 LINE"
);
}
);
width = 738;
}
);
note = D;
rightKerningGroup = D;
unicode = 0044;
},
{
glyphname = Eth;
lastChange = "2015-10-20 08:24:08 +0000";
layers = (
{
layerId = "E9D5AAFE-D5DF-4A4E-94FD-DD81026DC4E3";
name = "Bold Italic";
paths = (
{
closed = 1;
nodes = (
"317 0 LINE SMOOTH",
"555 0 OFFCURVE",
"684 115 OFFCURVE",
"732 350 CURVE SMOOTH",
"779 582 OFFCURVE",
"698 700 OFFCURVE",
"460 700 CURVE SMOOTH",
"114 700 LINE",
"106 656 LINE",
"136 656 LINE SMOOTH",
"173 656 OFFCURVE",
"186 643 OFFCURVE",
"181 617 CURVE SMOOTH",
"72 83 LINE SMOOTH",
"67 57 OFFCURVE",
"48 44 OFFCURVE",
"12 44 CURVE SMOOTH",
"-19 44 LINE",
"-28 0 LINE"
);
},
{
closed = 1;
nodes = (
"476 298 LINE",
"492 376 LINE",
"53 376 LINE",
"36 298 LINE"
);
},
{
closed = 1;
nodes = (
"364 638 LINE",
"446 638 LINE SMOOTH",
"551 638 OFFCURVE",
"588 539 OFFCURVE",
"550 350 CURVE SMOOTH",
"511 158 OFFCURVE",
"431 62 OFFCURVE",
"327 62 CURVE SMOOTH",
"247 62 LINE"
);
}
);
width = 738;
}
);
note = Eth;
rightKerningGroup = D;
unicode = 00D0;
},
{
glyphname = Dcaron;
lastChange = "2015-10-20 08:24:08 +0000";
layers = (
{
layerId = "E9D5AAFE-D5DF-4A4E-94FD-DD81026DC4E3";
name = "Bold Italic";
paths = (
{
closed = 1;
nodes = (
"317 0 LINE SMOOTH",
"555 0 OFFCURVE",
"684 115 OFFCURVE",
"732 350 CURVE SMOOTH",
"779 582 OFFCURVE",
"698 700 OFFCURVE",
"460 700 CURVE SMOOTH",
"114 700 LINE",
"106 656 LINE",
"136 656 LINE SMOOTH",
"173 656 OFFCURVE",
"186 643 OFFCURVE",
"181 617 CURVE SMOOTH",
"72 83 LINE SMOOTH",
"67 57 OFFCURVE",
"48 44 OFFCURVE",
"12 44 CURVE SMOOTH",
"-19 44 LINE",
"-28 0 LINE"
);
},
{
closed = 1;
nodes = (
"364 638 LINE",
"446 638 LINE SMOOTH",
"551 638 OFFCURVE",
"588 539 OFFCURVE",
"550 350 CURVE SMOOTH",
"511 158 OFFCURVE",
"431 62 OFFCURVE",
"327 62 CURVE SMOOTH",
"247 62 LINE"
);
},
{
closed = 1;
nodes = (
"498 779 LINE",
"684 953 LINE",
"663 981 LINE",
"515 881 LINE",
"498 869 OFFCURVE",
"483 862 OFFCURVE",
"472 862 CURVE SMOOTH",
"462 862 OFFCURVE",
"450 869 OFFCURVE",
"438 881 CURVE SMOOTH",
"329 981 LINE",
"298 953 LINE",
"414 779 LINE"
);
}
);
width = 738;
}
);
note = Dcaron;
rightKerningGroup = D;
unicode = 010E;
},
{
glyphname = Dcroat;
lastChange = "2015-10-20 08:24:08 +0000";
layers = (
{
layerId = "E9D5AAFE-D5DF-4A4E-94FD-DD81026DC4E3";
name = "Bold Italic";
paths = (
{
closed = 1;
nodes = (
"317 0 LINE SMOOTH",
"555 0 OFFCURVE",
"684 115 OFFCURVE",
"732 350 CURVE SMOOTH",
"779 582 OFFCURVE",
"698 700 OFFCURVE",
"460 700 CURVE SMOOTH",
"114 700 LINE",
"106 656 LINE",
"136 656 LINE SMOOTH",
"173 656 OFFCURVE",
"186 643 OFFCURVE",
"181 617 CURVE SMOOTH",
"72 83 LINE SMOOTH",
"67 57 OFFCURVE",
"48 44 OFFCURVE",
"12 44 CURVE SMOOTH",
"-19 44 LINE",
"-28 0 LINE"
);
},
{
closed = 1;
nodes = (
"476 298 LINE",
"492 376 LINE",
"53 376 LINE",
"36 298 LINE"
);
},
{
closed = 1;
nodes = (
"364 638 LINE",
"446 638 LINE SMOOTH",
"551 638 OFFCURVE",
"588 539 OFFCURVE",
"550 350 CURVE SMOOTH",
"511 158 OFFCURVE",
"431 62 OFFCURVE",
"327 62 CURVE SMOOTH",
"247 62 LINE"
);
}
);
width = 738;
}
);
note = Dcroat;
rightKerningGroup = D;
unicode = 0110;
},
{
glyphname = Ddotbelow;
lastChange = "2015-10-20 08:24:08 +0000";
layers = (
{
layerId = "E9D5AAFE-D5DF-4A4E-94FD-DD81026DC4E3";
name = "Bold Italic";
paths = (
{
closed = 1;
nodes = (
"317 0 LINE SMOOTH",
"555 0 OFFCURVE",
"684 115 OFFCURVE",
"732 350 CURVE SMOOTH",
"779 582 OFFCURVE",
"698 700 OFFCURVE",
"460 700 CURVE SMOOTH",
"114 700 LINE",
"106 656 LINE",
"136 656 LINE SMOOTH",
"173 656 OFFCURVE",
"186 643 OFFCURVE",
"181 617 CURVE SMOOTH",
"72 83 LINE SMOOTH",
"67 57 OFFCURVE",
"48 44 OFFCURVE",
"12 44 CURVE SMOOTH",
"-19 44 LINE",
"-28 0 LINE"
);
},
{
closed = 1;
nodes = (
"325 -205 OFFCURVE",
"358 -174 OFFCURVE",
"366 -135 CURVE SMOOTH",
"373 -96 OFFCURVE",
"354 -64 OFFCURVE",
"313 -64 CURVE SMOOTH",
"272 -64 OFFCURVE",
"239 -96 OFFCURVE",
"231 -135 CURVE SMOOTH",
"224 -174 OFFCURVE",
"243 -205 OFFCURVE",
"284 -205 CURVE SMOOTH"
);
},
{
closed = 1;
nodes = (
"364 638 LINE",
"446 638 LINE SMOOTH",
"551 638 OFFCURVE",
"588 539 OFFCURVE",
"550 350 CURVE SMOOTH",
"511 158 OFFCURVE",
"431 62 OFFCURVE",
"327 62 CURVE SMOOTH",
"247 62 LINE"
);
}
);
width = 738;
}
);
note = Ddotbelow;
rightKerningGroup = D;
unicode = 1E0C;
},
{
glyphname = Dlinebelow;
lastChange = "2015-10-20 08:24:08 +0000";
layers = (
{
layerId = "E9D5AAFE-D5DF-4A4E-94FD-DD81026DC4E3";
name = "Bold Italic";
paths = (
{
closed = 1;
nodes = (
"317 0 LINE SMOOTH",
"555 0 OFFCURVE",
"684 115 OFFCURVE",
"732 350 CURVE SMOOTH",
"779 582 OFFCURVE",
"698 700 OFFCURVE",
"460 700 CURVE SMOOTH",
"114 700 LINE",
"106 656 LINE",
"136 656 LINE SMOOTH",
"173 656 OFFCURVE",
"186 643 OFFCURVE",
"181 617 CURVE SMOOTH",
"72 83 LINE SMOOTH",
"67 57 OFFCURVE",
"48 44 OFFCURVE",
"12 44 CURVE SMOOTH",
"-19 44 LINE",
"-28 0 LINE"
);
},
{
closed = 1;
nodes = (
"481 -126 LINE",
"492 -66 LINE",
"100 -66 LINE",
"88 -126 LINE"
);
},
{
closed = 1;
nodes = (
"364 638 LINE",
"446 638 LINE SMOOTH",
"551 638 OFFCURVE",
"588 539 OFFCURVE",
"550 350 CURVE SMOOTH",
"511 158 OFFCURVE",
"431 62 OFFCURVE",
"327 62 CURVE SMOOTH",
"247 62 LINE"
);
}
);
width = 738;
}
);
note = Dlinebelow;
rightKerningGroup = D;
unicode = 1E0E;
},
{
glyphname = E;
lastChange = "2015-10-20 08:24:08 +0000";
layers = (
{
layerId = "E9D5AAFE-D5DF-4A4E-94FD-DD81026DC4E3";
name = "Bold Italic";
paths = (
{
closed = 1;
nodes = (
"559 0 LINE",
"619 198 LINE",
"576 198 LINE",
"551 127 OFFCURVE",
"518 62 OFFCURVE",
"449 62 CURVE SMOOTH",
"246 62 LINE",
"363 637 LINE",
"540 637 LINE SMOOTH",
"631 637 OFFCURVE",
"623 539 OFFCURVE",
"618 502 CURVE",
"661 502 LINE",
"702 700 LINE",
"114 700 LINE",
"106 656 LINE",
"135 656 LINE SMOOTH",
"173 656 OFFCURVE",
"185 643 OFFCURVE",
"180 617 CURVE SMOOTH",
"71 83 LINE SMOOTH",
"66 57 OFFCURVE",
"48 44 OFFCURVE",
"11 44 CURVE SMOOTH",
"-19 44 LINE",
"-28 0 LINE"
);
},
{
closed = 1;
nodes = (
"495 242 LINE",
"544 483 LINE",
"510 483 LINE",
"497 439 OFFCURVE",
"483 394 OFFCURVE",
"440 394 CURVE SMOOTH",
"242 394 LINE",
"229 331 LINE",
"427 331 LINE SMOOTH",
"470 331 OFFCURVE",
"466 286 OFFCURVE",
"461 242 CURVE"
);
}
);
width = 647;
}
);
note = E;
rightKerningGroup = E;
unicode = 0045;
},
{
glyphname = Eacute;
lastChange = "2015-10-20 08:24:08 +0000";
layers = (
{
layerId = "E9D5AAFE-D5DF-4A4E-94FD-DD81026DC4E3";
name = "Bold Italic";
paths = (
{
closed = 1;
nodes = (
"559 0 LINE",
"619 198 LINE",
"576 198 LINE",
"551 127 OFFCURVE",
"518 62 OFFCURVE",
"449 62 CURVE SMOOTH",
"246 62 LINE",
"363 637 LINE",
"540 637 LINE SMOOTH",
"631 637 OFFCURVE",
"623 539 OFFCURVE",
"618 502 CURVE",
"661 502 LINE",
"702 700 LINE",
"114 700 LINE",
"106 656 LINE",
"135 656 LINE SMOOTH",
"173 656 OFFCURVE",
"185 643 OFFCURVE",
"180 617 CURVE SMOOTH",
"71 83 LINE SMOOTH",
"66 57 OFFCURVE",
"48 44 OFFCURVE",
"11 44 CURVE SMOOTH",
"-19 44 LINE",
"-28 0 LINE"
);
},
{
closed = 1;
nodes = (
"495 242 LINE",
"544 483 LINE",
"510 483 LINE",
"497 439 OFFCURVE",
"483 394 OFFCURVE",
"440 394 CURVE SMOOTH",
"242 394 LINE",
"229 331 LINE",
"427 331 LINE SMOOTH",
"470 331 OFFCURVE",
"466 286 OFFCURVE",
"461 242 CURVE"
);
},
{
closed = 1;
nodes = (
"583 872 LINE SMOOTH",
"621 893 OFFCURVE",
"645 914 OFFCURVE",
"651 941 CURVE",
"655 964 OFFCURVE",
"644 991 OFFCURVE",
"605 991 CURVE SMOOTH",
"569 991 OFFCURVE",
"537 960 OFFCURVE",
"529 952 CURVE",
"382 820 LINE",
"403 775 LINE"
);
}
);
width = 647;
}
);
note = Eacute;
rightKerningGroup = E;
unicode = 00C9;
},
{
glyphname = Ebreve;
lastChange = "2015-10-20 08:24:08 +0000";
layers = (
{
layerId = "E9D5AAFE-D5DF-4A4E-94FD-DD81026DC4E3";
name = "Bold Italic";
paths = (
{
closed = 1;
nodes = (
"559 0 LINE",
"619 198 LINE",
"576 198 LINE",
"551 127 OFFCURVE",
"518 62 OFFCURVE",
"449 62 CURVE SMOOTH",
"246 62 LINE",
"363 637 LINE",
"540 637 LINE SMOOTH",
"631 637 OFFCURVE",
"623 539 OFFCURVE",
"618 502 CURVE",
"661 502 LINE",
"702 700 LINE",
"114 700 LINE",
"106 656 LINE",
"135 656 LINE SMOOTH",
"173 656 OFFCURVE",
"185 643 OFFCURVE",
"180 617 CURVE SMOOTH",
"71 83 LINE SMOOTH",
"66 57 OFFCURVE",
"48 44 OFFCURVE",
"11 44 CURVE SMOOTH",
"-19 44 LINE",
"-28 0 LINE"
);
},
{
closed = 1;
nodes = (
"495 242 LINE",
"544 483 LINE",
"510 483 LINE",
"497 439 OFFCURVE",
"483 394 OFFCURVE",
"440 394 CURVE SMOOTH",
"242 394 LINE",
"229 331 LINE",
"427 331 LINE SMOOTH",
"470 331 OFFCURVE",
"466 286 OFFCURVE",
"461 242 CURVE"
);
},
{
closed = 1;
nodes = (
"621 777 OFFCURVE",
"665 860 OFFCURVE",
"680 931 CURVE",
"638 931 LINE",
"630 900 OFFCURVE",
"598 852 OFFCURVE",
"504 852 CURVE SMOOTH",
"411 852 OFFCURVE",
"396 900 OFFCURVE",
"398 931 CURVE",
"358 931 LINE",
"344 855 OFFCURVE",
"356 777 OFFCURVE",
"489 777 CURVE SMOOTH"
);
}
);
width = 647;
}
);
note = Ebreve;
rightKerningGroup = E;
unicode = 0114;
},
{
glyphname = Ecaron;
lastChange = "2015-10-20 08:24:07 +0000";
layers = (
{
layerId = "E9D5AAFE-D5DF-4A4E-94FD-DD81026DC4E3";
name = "Bold Italic";
paths = (
{
closed = 1;
nodes = (
"559 0 LINE",
"619 198 LINE",
"576 198 LINE",
"551 127 OFFCURVE",
"518 62 OFFCURVE",
"449 62 CURVE SMOOTH",
"246 62 LINE",
"363 637 LINE",
"540 637 LINE SMOOTH",
"631 637 OFFCURVE",
"623 539 OFFCURVE",
"618 502 CURVE",
"661 502 LINE",
"702 700 LINE",
"114 700 LINE",
"106 656 LINE",
"135 656 LINE SMOOTH",
"173 656 OFFCURVE",
"185 643 OFFCURVE",
"180 617 CURVE SMOOTH",
"71 83 LINE SMOOTH",
"66 57 OFFCURVE",
"48 44 OFFCURVE",
"11 44 CURVE SMOOTH",
"-19 44 LINE",
"-28 0 LINE"
);
},
{
closed = 1;
nodes = (
"495 242 LINE",
"544 483 LINE",
"510 483 LINE",
"497 439 OFFCURVE",
"483 394 OFFCURVE",
"440 394 CURVE SMOOTH",
"242 394 LINE",
"229 331 LINE",
"427 331 LINE SMOOTH",
"470 331 OFFCURVE",
"466 286 OFFCURVE",
"461 242 CURVE"
);
},
{
closed = 1;
nodes = (
"527 776 LINE",
"713 950 LINE",
"692 978 LINE",
"543 878 LINE",
"527 866 OFFCURVE",
"512 859 OFFCURVE",
"501 859 CURVE SMOOTH",
"491 859 OFFCURVE",
"479 866 OFFCURVE",
"467 878 CURVE SMOOTH",
"358 978 LINE",
"326 950 LINE",
"443 776 LINE"
);
}
);
width = 647;
}
);
note = Ecaron;
rightKerningGroup = E;
unicode = 011A;
},
{
glyphname = Ecircumflex;
lastChange = "2015-10-20 08:24:08 +0000";
layers = (
{
layerId = "E9D5AAFE-D5DF-4A4E-94FD-DD81026DC4E3";
name = "Bold Italic";
paths = (
{
closed = 1;
nodes = (
"559 0 LINE",
"619 198 LINE",
"576 198 LINE",
"551 127 OFFCURVE",
"518 62 OFFCURVE",
"449 62 CURVE SMOOTH",
"246 62 LINE",
"363 637 LINE",
"540 637 LINE SMOOTH",
"631 637 OFFCURVE",
"623 539 OFFCURVE",
"618 502 CURVE",
"661 502 LINE",
"702 700 LINE",
"114 700 LINE",
"106 656 LINE",
"135 656 LINE SMOOTH",
"173 656 OFFCURVE",
"185 643 OFFCURVE",
"180 617 CURVE SMOOTH",
"71 83 LINE SMOOTH",
"66 57 OFFCURVE",
"48 44 OFFCURVE",
"11 44 CURVE SMOOTH",
"-19 44 LINE",
"-28 0 LINE"
);
},
{
closed = 1;
nodes = (
"495 242 LINE",
"544 483 LINE",
"510 483 LINE",
"497 439 OFFCURVE",
"483 394 OFFCURVE",
"440 394 CURVE SMOOTH",
"242 394 LINE",
"229 331 LINE",
"427 331 LINE SMOOTH",
"470 331 OFFCURVE",
"466 286 OFFCURVE",
"461 242 CURVE"
);
},
{
closed = 1;
nodes = (
"461 876 LINE",
"477 888 OFFCURVE",
"492 895 OFFCURVE",
"503 895 CURVE SMOOTH",
"514 895 OFFCURVE",
"525 888 OFFCURVE",
"538 876 CURVE SMOOTH",
"646 776 LINE",
"678 804 LINE",
"562 978 LINE",
"477 978 LINE",
"291 804 LINE",
"312 776 LINE"
);
}
);
width = 647;
}
);
note = Ecircumflex;
rightKerningGroup = E;
unicode = 00CA;
},
{
glyphname = Ecircumflexacute;
lastChange = "2015-10-20 08:24:08 +0000";
layers = (
{
layerId = "E9D5AAFE-D5DF-4A4E-94FD-DD81026DC4E3";
name = "Bold Italic";
paths = (
{
closed = 1;
nodes = (
"559 0 LINE",
"619 198 LINE",
"576 198 LINE",
"551 127 OFFCURVE",
"518 62 OFFCURVE",
"449 62 CURVE SMOOTH",
"246 62 LINE",
"363 637 LINE",
"540 637 LINE SMOOTH",
"631 637 OFFCURVE",
"623 539 OFFCURVE",
"618 502 CURVE",
"661 502 LINE",
"702 700 LINE",
"114 700 LINE",
"106 656 LINE",
"135 656 LINE SMOOTH",
"173 656 OFFCURVE",
"185 643 OFFCURVE",
"180 617 CURVE SMOOTH",
"71 83 LINE SMOOTH",
"66 57 OFFCURVE",
"48 44 OFFCURVE",
"11 44 CURVE SMOOTH",
"-19 44 LINE",
"-28 0 LINE"
);
},
{
closed = 1;
nodes = (
"495 242 LINE",
"544 483 LINE",
"510 483 LINE",
"497 439 OFFCURVE",
"483 394 OFFCURVE",
"440 394 CURVE SMOOTH",
"242 394 LINE",
"229 331 LINE",
"427 331 LINE SMOOTH",
"470 331 OFFCURVE",
"466 286 OFFCURVE",
"461 242 CURVE"
);
},
{
closed = 1;
nodes = (
"439 873 LINE SMOOTH",
"456 885 OFFCURVE",
"471 894 OFFCURVE",
"482 894 CURVE SMOOTH",
"492 894 OFFCURVE",
"504 885 OFFCURVE",
"516 873 CURVE",
"618 775 LINE",
"648 804 LINE",
"540 978 LINE",
"456 978 LINE",
"276 804 LINE",
"295 775 LINE"
);
},
{
closed = 1;
nodes = (
"746 969 LINE SMOOTH",
"784 987 OFFCURVE",
"820 1013 OFFCURVE",
"826 1042 CURVE SMOOTH",
"830 1066 OFFCURVE",
"818 1095 OFFCURVE",
"780 1095 CURVE SMOOTH",
"747 1095 OFFCURVE",
"715 1066 OFFCURVE",
"697 1047 CURVE SMOOTH",
"605 953 LINE",
"625 914 LINE"
);
}
);
width = 647;
}
);
note = Ecircumflexacute;
rightKerningGroup = E;
unicode = 1EBE;
},
{
glyphname = Ecircumflexdotbelow;
lastChange = "2015-10-20 08:24:08 +0000";
layers = (
{
layerId = "E9D5AAFE-D5DF-4A4E-94FD-DD81026DC4E3";
name = "Bold Italic";
paths = (
{
closed = 1;
nodes = (
"559 0 LINE",
"619 198 LINE",
"576 198 LINE",
"551 127 OFFCURVE",
"518 62 OFFCURVE",
"449 62 CURVE SMOOTH",
"246 62 LINE",
"363 637 LINE",
"540 637 LINE SMOOTH",
"631 637 OFFCURVE",
"623 539 OFFCURVE",
"618 502 CURVE",
"661 502 LINE",
"702 700 LINE",
"114 700 LINE",
"106 656 LINE",
"135 656 LINE SMOOTH",
"173 656 OFFCURVE",
"185 643 OFFCURVE",
"180 617 CURVE SMOOTH",
"71 83 LINE SMOOTH",
"66 57 OFFCURVE",
"48 44 OFFCURVE",
"11 44 CURVE SMOOTH",
"-19 44 LINE",
"-28 0 LINE"
);
},
{
closed = 1;
nodes = (
"302 -205 OFFCURVE",
"335 -174 OFFCURVE",
"343 -135 CURVE SMOOTH",
"350 -96 OFFCURVE",
"331 -64 OFFCURVE",
"290 -64 CURVE SMOOTH",
"249 -64 OFFCURVE",
"216 -96 OFFCURVE",
"208 -135 CURVE SMOOTH",
"201 -174 OFFCURVE",
"220 -205 OFFCURVE",
"261 -205 CURVE SMOOTH"
);
},
{
closed = 1;
nodes = (
"495 242 LINE",
"544 483 LINE",
"510 483 LINE",
"497 439 OFFCURVE",
"483 394 OFFCURVE",
"440 394 CURVE SMOOTH",
"242 394 LINE",
"229 331 LINE",
"427 331 LINE SMOOTH",
"470 331 OFFCURVE",
"466 286 OFFCURVE",
"461 242 CURVE"
);
},
{
closed = 1;
nodes = (
"437 876 LINE",
"453 888 OFFCURVE",
"468 895 OFFCURVE",
"479 895 CURVE SMOOTH",
"490 895 OFFCURVE",
"501 888 OFFCURVE",
"514 876 CURVE SMOOTH",
"622 776 LINE",
"654 804 LINE",
"538 978 LINE",
"453 978 LINE",
"267 804 LINE",
"288 776 LINE"
);
}
);
width = 647;
}
);
note = Ecircumflexdotbelow;
rightKerningGroup = E;
unicode = 1EC6;
},
{
glyphname = Ecircumflexgrave;
lastChange = "2015-10-20 08:24:08 +0000";
layers = (
{
layerId = "E9D5AAFE-D5DF-4A4E-94FD-DD81026DC4E3";
name = "Bold Italic";
paths = (
{
closed = 1;
nodes = (
"559 0 LINE",
"619 198 LINE",
"576 198 LINE",
"551 127 OFFCURVE",
"518 62 OFFCURVE",
"449 62 CURVE SMOOTH",
"246 62 LINE",
"363 637 LINE",
"540 637 LINE SMOOTH",
"631 637 OFFCURVE",
"623 539 OFFCURVE",
"618 502 CURVE",
"661 502 LINE",
"702 700 LINE",
"114 700 LINE",
"106 656 LINE",
"135 656 LINE SMOOTH",
"173 656 OFFCURVE",
"185 643 OFFCURVE",
"180 617 CURVE SMOOTH",
"71 83 LINE SMOOTH",
"66 57 OFFCURVE",
"48 44 OFFCURVE",
"11 44 CURVE SMOOTH",
"-19 44 LINE",
"-28 0 LINE"
);
},
{
closed = 1;
nodes = (
"495 242 LINE",
"544 483 LINE",
"510 483 LINE",
"497 439 OFFCURVE",
"483 394 OFFCURVE",
"440 394 CURVE SMOOTH",
"242 394 LINE",
"229 331 LINE",
"427 331 LINE SMOOTH",
"470 331 OFFCURVE",
"466 286 OFFCURVE",
"461 242 CURVE"
);
},
{
closed = 1;
nodes = (
"383 953 LINE",
"324 1051 LINE SMOOTH",
"315 1068 OFFCURVE",
"297 1096 OFFCURVE",
"265 1096 CURVE SMOOTH",
"225 1096 OFFCURVE",
"203 1064 OFFCURVE",
"198 1043 CURVE",
"193 1016 OFFCURVE",
"210 992 OFFCURVE",
"244 973 CURVE SMOOTH",
"347 914 LINE"
);
},
{
closed = 1;
nodes = (
"439 873 LINE SMOOTH",
"456 885 OFFCURVE",
"471 894 OFFCURVE",
"482 894 CURVE SMOOTH",
"492 894 OFFCURVE",
"504 885 OFFCURVE",
"516 873 CURVE",
"618 775 LINE",
"648 804 LINE",
"540 978 LINE",
"456 978 LINE",
"276 804 LINE",
"295 775 LINE"
);
}
);
width = 647;
}
);
note = Ecircumflexgrave;
rightKerningGroup = E;
unicode = 1EC0;
},
{
glyphname = Ecircumflexhookabove;
lastChange = "2015-10-20 08:24:07 +0000";
layers = (
{
layerId = "E9D5AAFE-D5DF-4A4E-94FD-DD81026DC4E3";
name = "Bold Italic";
paths = (
{
closed = 1;
nodes = (
"559 0 LINE",
"619 198 LINE",
"576 198 LINE",
"551 127 OFFCURVE",
"518 62 OFFCURVE",
"449 62 CURVE SMOOTH",
"246 62 LINE",
"363 637 LINE",
"540 637 LINE SMOOTH",
"631 637 OFFCURVE",
"623 539 OFFCURVE",
"618 502 CURVE",
"661 502 LINE",
"702 700 LINE",
"114 700 LINE",
"106 656 LINE",
"135 656 LINE SMOOTH",
"173 656 OFFCURVE",
"185 643 OFFCURVE",
"180 617 CURVE SMOOTH",
"71 83 LINE SMOOTH",
"66 57 OFFCURVE",
"48 44 OFFCURVE",
"11 44 CURVE SMOOTH",
"-19 44 LINE",
"-28 0 LINE"
);
},
{
closed = 1;
nodes = (
"495 242 LINE",
"544 483 LINE",
"510 483 LINE",
"497 439 OFFCURVE",
"483 394 OFFCURVE",
"440 394 CURVE SMOOTH",
"242 394 LINE",
"229 331 LINE",
"427 331 LINE SMOOTH",
"470 331 OFFCURVE",
"466 286 OFFCURVE",
"461 242 CURVE"
);
},
{
closed = 1;
nodes = (
"440 874 LINE SMOOTH",
"457 886 OFFCURVE",
"472 895 OFFCURVE",
"483 895 CURVE SMOOTH",
"493 895 OFFCURVE",
"505 886 OFFCURVE",
"516 874 CURVE",
"619 776 LINE",
"649 805 LINE",
"541 979 LINE",
"457 979 LINE",
"277 805 LINE",
"296 776 LINE"
);
},
{
closed = 1;
nodes = (
"688 937 LINE",
"676 939 OFFCURVE",
"664 942 OFFCURVE",
"668 961 CURVE SMOOTH",
"676 1001 OFFCURVE",
"774 1008 OFFCURVE",
"785 1066 CURVE SMOOTH",
"794 1110 OFFCURVE",
"751 1131 OFFCURVE",
"699 1131 CURVE SMOOTH",
"631 1131 OFFCURVE",
"597 1100 OFFCURVE",
"592 1077 CURVE SMOOTH",
"588 1056 OFFCURVE",
"602 1046 OFFCURVE",
"616 1046 CURVE SMOOTH",
"656 1046 OFFCURVE",
"650 1102 OFFCURVE",
"693 1102 CURVE SMOOTH",
"712 1102 OFFCURVE",
"717 1086 OFFCURVE",
"714 1073 CURVE SMOOTH",
"704 1019 OFFCURVE",
"622 1008 OFFCURVE",
"612 962 CURVE SMOOTH",
"607 932 OFFCURVE",
"635 915 OFFCURVE",
"676 915 CURVE"
);
}
);
width = 647;
}
);
note = Ecircumflexhookabove;
rightKerningGroup = E;
unicode = 1EC2;
},
{
glyphname = Ecircumflextilde;
lastChange = "2015-10-20 08:24:07 +0000";
layers = (
{
layerId = "E9D5AAFE-D5DF-4A4E-94FD-DD81026DC4E3";
name = "Bold Italic";
paths = (
{
closed = 1;
nodes = (
"559 0 LINE",
"619 198 LINE",
"576 198 LINE",
"551 127 OFFCURVE",
"518 62 OFFCURVE",
"449 62 CURVE SMOOTH",
"246 62 LINE",
"363 637 LINE",
"540 637 LINE SMOOTH",
"631 637 OFFCURVE",
"623 539 OFFCURVE",
"618 502 CURVE",
"661 502 LINE",
"702 700 LINE",
"114 700 LINE",
"106 656 LINE",
"135 656 LINE SMOOTH",
"173 656 OFFCURVE",
"185 643 OFFCURVE",
"180 617 CURVE SMOOTH",
"71 83 LINE SMOOTH",
"66 57 OFFCURVE",
"48 44 OFFCURVE",
"11 44 CURVE SMOOTH",
"-19 44 LINE",
"-28 0 LINE"
);
},
{
closed = 1;
nodes = (
"495 242 LINE",
"544 483 LINE",
"510 483 LINE",
"497 439 OFFCURVE",
"483 394 OFFCURVE",
"440 394 CURVE SMOOTH",
"242 394 LINE",
"229 331 LINE",
"427 331 LINE SMOOTH",
"470 331 OFFCURVE",
"466 286 OFFCURVE",
"461 242 CURVE"
);
},
{
closed = 1;
nodes = (
"440 874 LINE SMOOTH",
"457 886 OFFCURVE",
"472 895 OFFCURVE",
"483 895 CURVE SMOOTH",
"493 895 OFFCURVE",
"505 886 OFFCURVE",
"516 874 CURVE",
"619 776 LINE",
"649 805 LINE",
"541 979 LINE",
"457 979 LINE",
"277 805 LINE",
"296 776 LINE"
);
},
{
closed = 1;
nodes = (
"372 1034 OFFCURVE",
"391 1052 OFFCURVE",
"423 1052 CURVE SMOOTH",
"479 1052 OFFCURVE",
"519 1006 OFFCURVE",
"573 1006 CURVE SMOOTH",
"640 1006 OFFCURVE",
"687 1082 OFFCURVE",
"712 1127 CURVE",
"688 1145 LINE",
"661 1104 OFFCURVE",
"644 1087 OFFCURVE",
"611 1087 CURVE SMOOTH",
"557 1087 OFFCURVE",
"516 1132 OFFCURVE",
"462 1132 CURVE SMOOTH",
"393 1132 OFFCURVE",
"347 1057 OFFCURVE",
"322 1012 CURVE",
"347 994 LINE"
);
}
);
width = 647;
}
);
note = Ecircumflextilde;
rightKerningGroup = E;
unicode = 1EC4;
},
{
glyphname = Edieresis;
lastChange = "2015-10-20 08:24:07 +0000";
layers = (
{
layerId = "E9D5AAFE-D5DF-4A4E-94FD-DD81026DC4E3";
name = "Bold Italic";
paths = (
{
closed = 1;
nodes = (
"559 0 LINE",
"619 198 LINE",
"576 198 LINE",
"551 127 OFFCURVE",
"518 62 OFFCURVE",
"449 62 CURVE SMOOTH",
"246 62 LINE",
"363 637 LINE",
"540 637 LINE SMOOTH",
"631 637 OFFCURVE",
"623 539 OFFCURVE",
"618 502 CURVE",
"661 502 LINE",
"702 700 LINE",
"114 700 LINE",
"106 656 LINE",
"135 656 LINE SMOOTH",
"173 656 OFFCURVE",
"185 643 OFFCURVE",
"180 617 CURVE SMOOTH",
"71 83 LINE SMOOTH",
"66 57 OFFCURVE",
"48 44 OFFCURVE",
"11 44 CURVE SMOOTH",
"-19 44 LINE",
"-28 0 LINE"
);
},
{
closed = 1;
nodes = (
"495 242 LINE",
"544 483 LINE",
"510 483 LINE",
"497 439 OFFCURVE",
"483 394 OFFCURVE",
"440 394 CURVE SMOOTH",
"242 394 LINE",
"229 331 LINE",
"427 331 LINE SMOOTH",
"470 331 OFFCURVE",
"466 286 OFFCURVE",
"461 242 CURVE"
);
},
{
closed = 1;
nodes = (
"418 776 OFFCURVE",
"449 806 OFFCURVE",
"457 845 CURVE SMOOTH",
"466 885 OFFCURVE",
"445 916 OFFCURVE",
"403 916 CURVE SMOOTH",
"363 916 OFFCURVE",
"332 885 OFFCURVE",
"324 845 CURVE SMOOTH",
"316 806 OFFCURVE",
"335 776 OFFCURVE",
"375 776 CURVE SMOOTH"
);
},
{
closed = 1;
nodes = (
"650 776 OFFCURVE",
"682 806 OFFCURVE",
"689 845 CURVE SMOOTH",
"698 885 OFFCURVE",
"678 916 OFFCURVE",
"636 916 CURVE SMOOTH",
"593 916 OFFCURVE",
"563 885 OFFCURVE",
"554 845 CURVE SMOOTH",
"546 806 OFFCURVE",
"565 776 OFFCURVE",
"609 776 CURVE SMOOTH"
);
}
);
width = 647;
}
);
note = Edieresis;
rightKerningGroup = E;
unicode = 00CB;
},
{
glyphname = Edotaccent;
lastChange = "2015-10-20 08:24:08 +0000";
layers = (
{
layerId = "E9D5AAFE-D5DF-4A4E-94FD-DD81026DC4E3";
name = "Bold Italic";
paths = (
{
closed = 1;
nodes = (
"559 0 LINE",
"619 198 LINE",
"576 198 LINE",
"551 127 OFFCURVE",
"518 62 OFFCURVE",
"449 62 CURVE SMOOTH",
"246 62 LINE",
"363 637 LINE",
"540 637 LINE SMOOTH",
"631 637 OFFCURVE",
"623 539 OFFCURVE",
"618 502 CURVE",
"661 502 LINE",
"702 700 LINE",
"114 700 LINE",
"106 656 LINE",
"135 656 LINE SMOOTH",
"173 656 OFFCURVE",
"185 643 OFFCURVE",
"180 617 CURVE SMOOTH",
"71 83 LINE SMOOTH",
"66 57 OFFCURVE",
"48 44 OFFCURVE",
"11 44 CURVE SMOOTH",
"-19 44 LINE",
"-28 0 LINE"
);
},
{
closed = 1;
nodes = (
"495 242 LINE",
"544 483 LINE",
"510 483 LINE",
"497 439 OFFCURVE",
"483 394 OFFCURVE",
"440 394 CURVE SMOOTH",
"242 394 LINE",
"229 331 LINE",
"427 331 LINE SMOOTH",
"470 331 OFFCURVE",
"466 286 OFFCURVE",
"461 242 CURVE"
);
},
{
closed = 1;
nodes = (
"532 773 OFFCURVE",
"564 803 OFFCURVE",
"572 842 CURVE SMOOTH",
"580 881 OFFCURVE",
"560 912 OFFCURVE",
"518 912 CURVE SMOOTH",
"477 912 OFFCURVE",
"446 881 OFFCURVE",
"439 842 CURVE SMOOTH",
"430 803 OFFCURVE",
"449 773 OFFCURVE",
"491 773 CURVE SMOOTH"
);
}
);
width = 647;
}
);
note = Edotaccent;
rightKerningGroup = E;
unicode = 0116;
},
{
glyphname = Edotbelow;
lastChange = "2015-10-20 08:24:07 +0000";
layers = (
{
layerId = "E9D5AAFE-D5DF-4A4E-94FD-DD81026DC4E3";
name = "Bold Italic";
paths = (
{
closed = 1;
nodes = (
"559 0 LINE",
"619 198 LINE",
"576 198 LINE",
"551 127 OFFCURVE",
"518 62 OFFCURVE",
"449 62 CURVE SMOOTH",
"246 62 LINE",
"363 637 LINE",
"540 637 LINE SMOOTH",
"631 637 OFFCURVE",
"623 539 OFFCURVE",
"618 502 CURVE",
"661 502 LINE",
"702 700 LINE",
"114 700 LINE",
"106 656 LINE",
"135 656 LINE SMOOTH",
"173 656 OFFCURVE",
"185 643 OFFCURVE",
"180 617 CURVE SMOOTH",
"71 83 LINE SMOOTH",
"66 57 OFFCURVE",
"48 44 OFFCURVE",
"11 44 CURVE SMOOTH",
"-19 44 LINE",
"-28 0 LINE"
);
},
{
closed = 1;
nodes = (
"288 -205 OFFCURVE",
"321 -174 OFFCURVE",
"328 -135 CURVE SMOOTH",
"336 -96 OFFCURVE",
"317 -64 OFFCURVE",
"276 -64 CURVE SMOOTH",
"234 -64 OFFCURVE",
"202 -96 OFFCURVE",
"194 -135 CURVE SMOOTH",
"186 -174 OFFCURVE",
"205 -205 OFFCURVE",
"247 -205 CURVE SMOOTH"
);
},
{
closed = 1;
nodes = (
"495 242 LINE",
"544 483 LINE",
"510 483 LINE",
"497 439 OFFCURVE",
"483 394 OFFCURVE",
"440 394 CURVE SMOOTH",
"242 394 LINE",
"229 331 LINE",
"427 331 LINE SMOOTH",
"470 331 OFFCURVE",
"466 286 OFFCURVE",
"461 242 CURVE"
);
}
);
width = 647;
}
);
note = Edotbelow;
rightKerningGroup = E;
unicode = 1EB8;
},
{
glyphname = Egrave;
lastChange = "2015-10-20 08:24:08 +0000";
layers = (
{
layerId = "E9D5AAFE-D5DF-4A4E-94FD-DD81026DC4E3";
name = "Bold Italic";
paths = (
{
closed = 1;
nodes = (
"559 0 LINE",
"619 198 LINE",
"576 198 LINE",
"551 127 OFFCURVE",
"518 62 OFFCURVE",
"449 62 CURVE SMOOTH",
"246 62 LINE",
"363 637 LINE",
"540 637 LINE SMOOTH",
"631 637 OFFCURVE",
"623 539 OFFCURVE",
"618 502 CURVE",
"661 502 LINE",
"702 700 LINE",
"114 700 LINE",
"106 656 LINE",
"135 656 LINE SMOOTH",
"173 656 OFFCURVE",
"185 643 OFFCURVE",
"180 617 CURVE SMOOTH",
"71 83 LINE SMOOTH",
"66 57 OFFCURVE",
"48 44 OFFCURVE",
"11 44 CURVE SMOOTH",
"-19 44 LINE",
"-28 0 LINE"
);
},
{
closed = 1;
nodes = (
"495 242 LINE",
"544 483 LINE",
"510 483 LINE",
"497 439 OFFCURVE",
"483 394 OFFCURVE",
"440 394 CURVE SMOOTH",
"242 394 LINE",
"229 331 LINE",
"427 331 LINE SMOOTH",
"470 331 OFFCURVE",
"466 286 OFFCURVE",
"461 242 CURVE"
);
},
{
closed = 1;
nodes = (
"612 820 LINE",
"520 952 LINE",
"516 960 OFFCURVE",
"494 991 OFFCURVE",
"459 991 CURVE SMOOTH",
"419 991 OFFCURVE",
"397 964 OFFCURVE",
"394 942 CURVE SMOOTH",
"388 914 OFFCURVE",
"402 893 OFFCURVE",
"432 872 CURVE SMOOTH",
"572 775 LINE"
);
}
);
width = 647;
}
);
note = Egrave;
rightKerningGroup = E;
unicode = 00C8;
},
{
glyphname = Ehookabove;
lastChange = "2015-10-20 08:24:08 +0000";
layers = (
{
layerId = "E9D5AAFE-D5DF-4A4E-94FD-DD81026DC4E3";
name = "Bold Italic";
paths = (
{
closed = 1;
nodes = (
"559 0 LINE",
"619 198 LINE",
"576 198 LINE",
"551 127 OFFCURVE",
"518 62 OFFCURVE",
"449 62 CURVE SMOOTH",
"246 62 LINE",
"363 637 LINE",
"540 637 LINE SMOOTH",
"631 637 OFFCURVE",
"623 539 OFFCURVE",
"618 502 CURVE",
"661 502 LINE",
"702 700 LINE",
"114 700 LINE",
"106 656 LINE",
"135 656 LINE SMOOTH",
"173 656 OFFCURVE",
"185 643 OFFCURVE",
"180 617 CURVE SMOOTH",
"71 83 LINE SMOOTH",
"66 57 OFFCURVE",
"48 44 OFFCURVE",
"11 44 CURVE SMOOTH",
"-19 44 LINE",
"-28 0 LINE"
);
},
{
closed = 1;
nodes = (
"495 242 LINE",
"544 483 LINE",
"510 483 LINE",
"497 439 OFFCURVE",
"483 394 OFFCURVE",
"440 394 CURVE SMOOTH",
"242 394 LINE",
"229 331 LINE",
"427 331 LINE SMOOTH",
"470 331 OFFCURVE",
"466 286 OFFCURVE",
"461 242 CURVE"
);
},
{
closed = 1;
nodes = (
"522 801 LINE",
"509 803 OFFCURVE",
"494 807 OFFCURVE",
"499 828 CURVE SMOOTH",
"509 874 OFFCURVE",
"619 882 OFFCURVE",
"634 950 CURVE SMOOTH",
"644 1001 OFFCURVE",
"597 1026 OFFCURVE",
"537 1026 CURVE SMOOTH",
"454 1026 OFFCURVE",
"418 989 OFFCURVE",
"412 962 CURVE SMOOTH",
"407 937 OFFCURVE",
"422 926 OFFCURVE",
"440 926 CURVE SMOOTH",
"461 926 OFFCURVE",
"477 941 OFFCURVE",
"481 957 CURVE SMOOTH",
"488 984 OFFCURVE",
"512 991 OFFCURVE",
"528 991 CURVE SMOOTH",
"549 991 OFFCURVE",
"557 974 OFFCURVE",
"553 957 CURVE SMOOTH",
"540 895 OFFCURVE",
"446 883 OFFCURVE",
"436 830 CURVE SMOOTH",
"429 796 OFFCURVE",
"462 776 OFFCURVE",
"509 776 CURVE"
);
}
);
width = 647;
}
);
note = Ehookabove;
rightKerningGroup = E;
unicode = 1EBA;
},
{
glyphname = Emacron;
lastChange = "2015-10-20 08:24:07 +0000";
layers = (
{
layerId = "E9D5AAFE-D5DF-4A4E-94FD-DD81026DC4E3";
name = "Bold Italic";
paths = (
{
closed = 1;
nodes = (
"559 0 LINE",
"619 198 LINE",
"576 198 LINE",
"551 127 OFFCURVE",
"518 62 OFFCURVE",
"449 62 CURVE SMOOTH",
"246 62 LINE",
"363 637 LINE",
"540 637 LINE SMOOTH",
"631 637 OFFCURVE",
"623 539 OFFCURVE",
"618 502 CURVE",
"661 502 LINE",
"702 700 LINE",
"114 700 LINE",
"106 656 LINE",
"135 656 LINE SMOOTH",
"173 656 OFFCURVE",
"185 643 OFFCURVE",
"180 617 CURVE SMOOTH",
"71 83 LINE SMOOTH",
"66 57 OFFCURVE",
"48 44 OFFCURVE",
"11 44 CURVE SMOOTH",
"-19 44 LINE",
"-28 0 LINE"
);
},
{
closed = 1;
nodes = (
"495 242 LINE",
"544 483 LINE",
"510 483 LINE",
"497 439 OFFCURVE",
"483 394 OFFCURVE",
"440 394 CURVE SMOOTH",
"242 394 LINE",
"229 331 LINE",
"427 331 LINE SMOOTH",
"470 331 OFFCURVE",
"466 286 OFFCURVE",
"461 242 CURVE"
);
},
{
closed = 1;
nodes = (
"678 776 LINE",
"691 845 LINE",
"299 845 LINE",
"285 776 LINE"
);
}
);
width = 647;
}
);
note = Emacron;
rightKerningGroup = E;
unicode = 0112;
},
{
glyphname = Eogonek;
lastChange = "2015-10-20 08:24:08 +0000";
layers = (
{
layerId = "E9D5AAFE-D5DF-4A4E-94FD-DD81026DC4E3";
name = "Bold Italic";
paths = (
{
closed = 1;
nodes = (
"559 0 LINE",
"619 198 LINE",
"576 198 LINE",
"551 127 OFFCURVE",
"518 62 OFFCURVE",
"449 62 CURVE SMOOTH",
"246 62 LINE",
"363 637 LINE",
"540 637 LINE SMOOTH",
"631 637 OFFCURVE",
"623 539 OFFCURVE",
"618 502 CURVE",
"661 502 LINE",
"702 700 LINE",
"114 700 LINE",
"106 656 LINE",
"135 656 LINE SMOOTH",
"173 656 OFFCURVE",
"185 643 OFFCURVE",
"180 617 CURVE SMOOTH",
"71 83 LINE SMOOTH",
"66 57 OFFCURVE",
"48 44 OFFCURVE",
"11 44 CURVE SMOOTH",
"-19 44 LINE",
"-28 0 LINE"
);
},
{
closed = 1;
nodes = (
"454 -234 OFFCURVE",
"495 -221 OFFCURVE",
"536 -192 CURVE",
"527 -166 LINE",
"513 -173 OFFCURVE",
"491 -179 OFFCURVE",
"476 -179 CURVE SMOOTH",
"444 -179 OFFCURVE",
"425 -159 OFFCURVE",
"433 -117 CURVE SMOOTH",
"441 -76 OFFCURVE",
"472 -32 OFFCURVE",
"532 11 CURVE",
"473 11 LINE",
"404 -23 OFFCURVE",
"340 -76 OFFCURVE",
"328 -135 CURVE SMOOTH",
"321 -172 OFFCURVE",
"328 -234 OFFCURVE",
"424 -234 CURVE SMOOTH"
);
},
{
closed = 1;
nodes = (
"495 242 LINE",
"544 483 LINE",
"510 483 LINE",
"497 439 OFFCURVE",
"483 394 OFFCURVE",
"440 394 CURVE SMOOTH",
"242 394 LINE",
"229 331 LINE",
"427 331 LINE SMOOTH",
"470 331 OFFCURVE",
"466 286 OFFCURVE",
"461 242 CURVE"
);
}
);
width = 647;
}
);
note = Eogonek;
rightKerningGroup = E;
unicode = 0118;
},
{
glyphname = Etilde;
lastChange = "2015-10-20 08:24:07 +0000";
layers = (
{
layerId = "E9D5AAFE-D5DF-4A4E-94FD-DD81026DC4E3";
name = "Bold Italic";
paths = (
{
closed = 1;
nodes = (
"559 0 LINE",
"619 198 LINE",
"576 198 LINE",
"551 127 OFFCURVE",
"518 62 OFFCURVE",
"449 62 CURVE SMOOTH",
"246 62 LINE",
"363 637 LINE",
"540 637 LINE SMOOTH",
"631 637 OFFCURVE",
"623 539 OFFCURVE",
"618 502 CURVE",
"661 502 LINE",
"702 700 LINE",
"114 700 LINE",
"106 656 LINE",
"135 656 LINE SMOOTH",
"173 656 OFFCURVE",
"185 643 OFFCURVE",
"180 617 CURVE SMOOTH",
"71 83 LINE SMOOTH",
"66 57 OFFCURVE",
"48 44 OFFCURVE",
"11 44 CURVE SMOOTH",
"-19 44 LINE",
"-28 0 LINE"
);
},
{
closed = 1;
nodes = (
"495 242 LINE",
"544 483 LINE",
"510 483 LINE",
"497 439 OFFCURVE",
"483 394 OFFCURVE",
"440 394 CURVE SMOOTH",
"242 394 LINE",
"229 331 LINE",
"427 331 LINE SMOOTH",
"470 331 OFFCURVE",
"466 286 OFFCURVE",
"461 242 CURVE"
);
},
{
closed = 1;
nodes = (
"333 812 OFFCURVE",
"353 829 OFFCURVE",
"389 829 CURVE SMOOTH",
"450 829 OFFCURVE",
"495 783 OFFCURVE",
"555 783 CURVE SMOOTH",
"631 783 OFFCURVE",
"680 859 OFFCURVE",
"706 905 CURVE",
"680 922 LINE",
"650 882 OFFCURVE",
"632 864 OFFCURVE",
"595 864 CURVE SMOOTH",
"535 864 OFFCURVE",
"490 910 OFFCURVE",
"430 910 CURVE SMOOTH",
"354 910 OFFCURVE",
"304 835 OFFCURVE",
"277 789 CURVE",
"305 772 LINE"
);
}
);
width = 647;
}
);
note = Etilde;
rightKerningGroup = E;
unicode = 1EBC;
},
{
glyphname = F;
lastChange = "2015-10-20 08:24:08 +0000";
layers = (
{
layerId = "E9D5AAFE-D5DF-4A4E-94FD-DD81026DC4E3";
name = "Bold Italic";
paths = (
{
closed = 1;
nodes = (
"317 0 LINE",
"325 44 LINE",
"296 44 LINE SMOOTH",
"259 44 OFFCURVE",
"246 57 OFFCURVE",
"251 83 CURVE SMOOTH",
"364 637 LINE",
"541 637 LINE SMOOTH",
"632 637 OFFCURVE",
"623 539 OFFCURVE",
"619 502 CURVE",
"662 502 LINE",
"703 700 LINE",
"115 700 LINE",
"107 656 LINE",
"136 656 LINE SMOOTH",
"173 656 OFFCURVE",
"186 643 OFFCURVE",
"181 617 CURVE SMOOTH",
"72 83 LINE SMOOTH",
"67 57 OFFCURVE",
"48 44 OFFCURVE",
"12 44 CURVE SMOOTH",
"-18 44 LINE",
"-27 0 LINE"
);
},
{
closed = 1;
nodes = (
"488 207 LINE",
"538 447 LINE",
"503 447 LINE",
"490 404 OFFCURVE",
"475 358 OFFCURVE",
"432 358 CURVE SMOOTH",
"238 358 LINE",
"225 296 LINE",
"419 296 LINE SMOOTH",
"462 296 OFFCURVE",
"459 250 OFFCURVE",
"453 207 CURVE"
);
}
);
width = 638;
}
);
note = F;
unicode = 0046;
},
{
glyphname = G;
lastChange = "2015-10-20 08:24:08 +0000";
layers = (
{
layerId = "E9D5AAFE-D5DF-4A4E-94FD-DD81026DC4E3";
name = "Bold Italic";
paths = (
{
closed = 1;
nodes = (
"444 -10 OFFCURVE",
"533 1 OFFCURVE",
"648 65 CURVE",
"687 255 LINE SMOOTH",
"698 306 OFFCURVE",
"717 320 OFFCURVE",
"765 320 CURVE",
"770 348 LINE",
"456 348 LINE",
"449 313 LINE",
"462 313 LINE SMOOTH",
"514 313 OFFCURVE",
"522 288 OFFCURVE",
"516 263 CURVE SMOOTH",
"478 73 LINE",
"444 59 OFFCURVE",
"407 55 OFFCURVE",
"375 55 CURVE SMOOTH",
"252 55 OFFCURVE",
"207 164 OFFCURVE",
"246 350 CURVE SMOOTH",
"283 535 OFFCURVE",
"391 645 OFFCURVE",
"516 645 CURVE SMOOTH",
"597 645 OFFCURVE",
"683 606 OFFCURVE",
"674 491 CURVE",
"723 491 LINE",
"766 705 LINE",
"709 705 LINE",
"701 659 LINE",
"699 653 OFFCURVE",
"695 650 OFFCURVE",
"690 650 CURVE SMOOTH",
"686 650 OFFCURVE",
"684 652 OFFCURVE",
"682 653 CURVE",
"646 684 OFFCURVE",
"578 710 OFFCURVE",
"488 710 CURVE SMOOTH",
"256 710 OFFCURVE",
"108 564 OFFCURVE",
"64 350 CURVE SMOOTH",
"20 135 OFFCURVE",
"104 -10 OFFCURVE",
"340 -10 CURVE SMOOTH"
);
}
);
width = 744;
}
);
leftKerningGroup = G;
note = G;
unicode = 0047;
},
{
glyphname = Gbreve;
lastChange = "2015-10-20 08:24:08 +0000";
layers = (
{
layerId = "E9D5AAFE-D5DF-4A4E-94FD-DD81026DC4E3";
name = "Bold Italic";
paths = (
{
closed = 1;
nodes = (
"444 -10 OFFCURVE",
"533 1 OFFCURVE",
"648 65 CURVE",
"687 255 LINE SMOOTH",
"698 306 OFFCURVE",
"717 320 OFFCURVE",
"765 320 CURVE",
"770 348 LINE",
"456 348 LINE",
"449 313 LINE",
"462 313 LINE SMOOTH",
"514 313 OFFCURVE",
"522 288 OFFCURVE",
"516 263 CURVE SMOOTH",
"478 73 LINE",
"444 59 OFFCURVE",
"407 55 OFFCURVE",
"375 55 CURVE SMOOTH",
"252 55 OFFCURVE",
"207 164 OFFCURVE",
"246 350 CURVE SMOOTH",
"283 535 OFFCURVE",
"391 645 OFFCURVE",
"516 645 CURVE SMOOTH",
"597 645 OFFCURVE",
"683 606 OFFCURVE",
"674 491 CURVE",
"723 491 LINE",
"766 705 LINE",
"709 705 LINE",
"701 659 LINE",
"699 653 OFFCURVE",
"695 650 OFFCURVE",
"690 650 CURVE SMOOTH",
"686 650 OFFCURVE",
"684 652 OFFCURVE",
"682 653 CURVE",
"646 684 OFFCURVE",
"578 710 OFFCURVE",
"488 710 CURVE SMOOTH",
"256 710 OFFCURVE",
"108 564 OFFCURVE",
"64 350 CURVE SMOOTH",
"20 135 OFFCURVE",
"104 -10 OFFCURVE",
"340 -10 CURVE SMOOTH"
);
},
{
closed = 1;
nodes = (
"640 780 OFFCURVE",
"684 863 OFFCURVE",
"699 934 CURVE",
"658 934 LINE",
"649 903 OFFCURVE",
"617 855 OFFCURVE",
"523 855 CURVE SMOOTH",
"430 855 OFFCURVE",
"415 903 OFFCURVE",
"418 934 CURVE",
"377 934 LINE",
"363 858 OFFCURVE",
"375 780 OFFCURVE",
"508 780 CURVE SMOOTH"
);
}
);
width = 744;
}
);
leftKerningGroup = G;
note = Gbreve;
unicode = 011E;
},
{
glyphname = Gcaron;
lastChange = "2015-10-20 08:24:08 +0000";
layers = (
{
layerId = "E9D5AAFE-D5DF-4A4E-94FD-DD81026DC4E3";
name = "Bold Italic";
paths = (
{
closed = 1;
nodes = (
"444 -10 OFFCURVE",
"533 1 OFFCURVE",
"648 65 CURVE",
"687 255 LINE SMOOTH",
"698 306 OFFCURVE",
"717 320 OFFCURVE",
"765 320 CURVE",
"770 348 LINE",
"456 348 LINE",
"449 313 LINE",
"462 313 LINE SMOOTH",
"514 313 OFFCURVE",
"522 288 OFFCURVE",
"516 263 CURVE SMOOTH",
"478 73 LINE",
"444 59 OFFCURVE",
"407 55 OFFCURVE",
"375 55 CURVE SMOOTH",
"252 55 OFFCURVE",
"207 164 OFFCURVE",
"246 350 CURVE SMOOTH",
"283 535 OFFCURVE",
"391 645 OFFCURVE",
"516 645 CURVE SMOOTH",
"597 645 OFFCURVE",
"683 606 OFFCURVE",
"674 491 CURVE",
"723 491 LINE",
"766 705 LINE",
"709 705 LINE",
"701 659 LINE",
"699 653 OFFCURVE",
"695 650 OFFCURVE",
"690 650 CURVE SMOOTH",
"686 650 OFFCURVE",
"684 652 OFFCURVE",
"682 653 CURVE",
"646 684 OFFCURVE",
"578 710 OFFCURVE",
"488 710 CURVE SMOOTH",
"256 710 OFFCURVE",
"108 564 OFFCURVE",
"64 350 CURVE SMOOTH",
"20 135 OFFCURVE",
"104 -10 OFFCURVE",
"340 -10 CURVE SMOOTH"
);
},
{
closed = 1;
nodes = (
"569 776 LINE",
"756 950 LINE",
"734 978 LINE",
"586 878 LINE",
"569 866 OFFCURVE",
"554 859 OFFCURVE",
"543 859 CURVE SMOOTH",
"533 859 OFFCURVE",
"521 866 OFFCURVE",
"509 878 CURVE SMOOTH",
"400 978 LINE",
"369 950 LINE",
"485 776 LINE"
);
}
);
width = 744;
}
);
leftKerningGroup = G;
note = Gcaron;
unicode = 01E6;
},
{
glyphname = Gcircumflex;
lastChange = "2015-10-20 08:24:08 +0000";
layers = (
{
layerId = "E9D5AAFE-D5DF-4A4E-94FD-DD81026DC4E3";
name = "Bold Italic";
paths = (
{
closed = 1;
nodes = (
"444 -10 OFFCURVE",
"533 1 OFFCURVE",
"648 65 CURVE",
"687 255 LINE SMOOTH",
"698 306 OFFCURVE",
"717 320 OFFCURVE",
"765 320 CURVE",
"770 348 LINE",
"456 348 LINE",
"449 313 LINE",
"462 313 LINE SMOOTH",
"514 313 OFFCURVE",
"522 288 OFFCURVE",
"516 263 CURVE SMOOTH",
"478 73 LINE",
"444 59 OFFCURVE",
"407 55 OFFCURVE",
"375 55 CURVE SMOOTH",
"252 55 OFFCURVE",
"207 164 OFFCURVE",
"246 350 CURVE SMOOTH",
"283 535 OFFCURVE",
"391 645 OFFCURVE",
"516 645 CURVE SMOOTH",
"597 645 OFFCURVE",
"683 606 OFFCURVE",
"674 491 CURVE",
"723 491 LINE",
"766 705 LINE",
"709 705 LINE",
"701 659 LINE",
"699 653 OFFCURVE",
"695 650 OFFCURVE",
"690 650 CURVE SMOOTH",
"686 650 OFFCURVE",
"684 652 OFFCURVE",
"682 653 CURVE",
"646 684 OFFCURVE",
"578 710 OFFCURVE",
"488 710 CURVE SMOOTH",
"256 710 OFFCURVE",
"108 564 OFFCURVE",
"64 350 CURVE SMOOTH",
"20 135 OFFCURVE",
"104 -10 OFFCURVE",
"340 -10 CURVE SMOOTH"
);
},
{
closed = 1;
nodes = (
"500 879 LINE",
"516 891 OFFCURVE",
"532 898 OFFCURVE",
"542 898 CURVE SMOOTH",
"553 898 OFFCURVE",
"564 891 OFFCURVE",
"577 879 CURVE SMOOTH",
"685 779 LINE",
"717 807 LINE",
"601 981 LINE",
"516 981 LINE",
"330 807 LINE",
"351 779 LINE"
);
}
);
width = 744;
}
);
leftKerningGroup = G;
note = Gcircumflex;
unicode = 011C;
},
{
glyphname = Gcommaaccent;
lastChange = "2015-10-20 08:24:07 +0000";
layers = (
{
layerId = "E9D5AAFE-D5DF-4A4E-94FD-DD81026DC4E3";
name = "Bold Italic";
paths = (
{
closed = 1;
nodes = (
"444 -10 OFFCURVE",
"533 1 OFFCURVE",
"648 65 CURVE",
"687 255 LINE SMOOTH",
"698 306 OFFCURVE",
"717 320 OFFCURVE",
"765 320 CURVE",
"770 348 LINE",
"456 348 LINE",
"449 313 LINE",
"462 313 LINE SMOOTH",
"514 313 OFFCURVE",
"522 288 OFFCURVE",
"516 263 CURVE SMOOTH",
"478 73 LINE",
"444 59 OFFCURVE",
"407 55 OFFCURVE",
"375 55 CURVE SMOOTH",
"252 55 OFFCURVE",
"207 164 OFFCURVE",
"246 350 CURVE SMOOTH",
"283 535 OFFCURVE",
"391 645 OFFCURVE",
"516 645 CURVE SMOOTH",
"597 645 OFFCURVE",
"683 606 OFFCURVE",
"674 491 CURVE",
"723 491 LINE",
"766 705 LINE",
"709 705 LINE",
"701 659 LINE",
"699 653 OFFCURVE",
"695 650 OFFCURVE",
"690 650 CURVE SMOOTH",
"686 650 OFFCURVE",
"684 652 OFFCURVE",
"682 653 CURVE",
"646 684 OFFCURVE",
"578 710 OFFCURVE",
"488 710 CURVE SMOOTH",
"256 710 OFFCURVE",
"108 564 OFFCURVE",
"64 350 CURVE SMOOTH",
"20 135 OFFCURVE",
"104 -10 OFFCURVE",
"340 -10 CURVE SMOOTH"
);
},
{
closed = 1;
nodes = (
"298 -343 OFFCURVE",
"388 -260 OFFCURVE",
"405 -177 CURVE SMOOTH",
"419 -112 OFFCURVE",
"391 -75 OFFCURVE",
"346 -75 CURVE SMOOTH",
"302 -75 OFFCURVE",
"269 -105 OFFCURVE",
"262 -139 CURVE SMOOTH",
"253 -182 OFFCURVE",
"292 -199 OFFCURVE",
"283 -243 CURVE SMOOTH",
"274 -287 OFFCURVE",
"242 -326 OFFCURVE",
"203 -361 CURVE",
"224 -387 LINE"
);
}
);
width = 744;
}
);
leftKerningGroup = G;
note = Gcommaaccent;
unicode = 0122;
},
{
glyphname = Gdotaccent;
lastChange = "2015-10-20 08:24:07 +0000";
layers = (
{
layerId = "E9D5AAFE-D5DF-4A4E-94FD-DD81026DC4E3";
name = "Bold Italic";
paths = (
{
closed = 1;
nodes = (
"444 -10 OFFCURVE",
"533 1 OFFCURVE",
"648 65 CURVE",
"687 255 LINE SMOOTH",
"698 306 OFFCURVE",
"717 320 OFFCURVE",
"765 320 CURVE",
"770 348 LINE",
"456 348 LINE",
"449 313 LINE",
"462 313 LINE SMOOTH",
"514 313 OFFCURVE",
"522 288 OFFCURVE",
"516 263 CURVE SMOOTH",
"478 73 LINE",
"444 59 OFFCURVE",
"407 55 OFFCURVE",
"375 55 CURVE SMOOTH",
"252 55 OFFCURVE",
"207 164 OFFCURVE",
"246 350 CURVE SMOOTH",
"283 535 OFFCURVE",
"391 645 OFFCURVE",
"516 645 CURVE SMOOTH",
"597 645 OFFCURVE",
"683 606 OFFCURVE",
"674 491 CURVE",
"723 491 LINE",
"766 705 LINE",
"709 705 LINE",
"701 659 LINE",
"699 653 OFFCURVE",
"695 650 OFFCURVE",
"690 650 CURVE SMOOTH",
"686 650 OFFCURVE",
"684 652 OFFCURVE",
"682 653 CURVE",
"646 684 OFFCURVE",
"578 710 OFFCURVE",
"488 710 CURVE SMOOTH",
"256 710 OFFCURVE",
"108 564 OFFCURVE",
"64 350 CURVE SMOOTH",
"20 135 OFFCURVE",
"104 -10 OFFCURVE",
"340 -10 CURVE SMOOTH"
);
},
{
closed = 1;
nodes = (
"564 776 OFFCURVE",
"596 806 OFFCURVE",
"605 845 CURVE SMOOTH",
"612 884 OFFCURVE",
"592 915 OFFCURVE",
"551 915 CURVE SMOOTH",
"510 915 OFFCURVE",
"479 884 OFFCURVE",
"471 845 CURVE SMOOTH",
"463 806 OFFCURVE",
"482 776 OFFCURVE",
"523 776 CURVE SMOOTH"
);
}
);
width = 744;
}
);
leftKerningGroup = G;
note = Gdotaccent;
unicode = 0120;
},
{
glyphname = Gmacron;
lastChange = "2015-10-20 08:24:08 +0000";
layers = (
{
layerId = "E9D5AAFE-D5DF-4A4E-94FD-DD81026DC4E3";
name = "Bold Italic";
paths = (
{
closed = 1;
nodes = (
"444 -10 OFFCURVE",
"533 1 OFFCURVE",
"648 65 CURVE",
"687 255 LINE SMOOTH",
"698 306 OFFCURVE",
"717 320 OFFCURVE",
"765 320 CURVE",
"770 348 LINE",
"456 348 LINE",
"449 313 LINE",
"462 313 LINE SMOOTH",
"514 313 OFFCURVE",
"522 288 OFFCURVE",
"516 263 CURVE SMOOTH",
"478 73 LINE",
"444 59 OFFCURVE",
"407 55 OFFCURVE",
"375 55 CURVE SMOOTH",
"252 55 OFFCURVE",
"207 164 OFFCURVE",
"246 350 CURVE SMOOTH",
"283 535 OFFCURVE",
"391 645 OFFCURVE",
"516 645 CURVE SMOOTH",
"597 645 OFFCURVE",
"683 606 OFFCURVE",
"674 491 CURVE",
"723 491 LINE",
"766 705 LINE",
"709 705 LINE",
"701 659 LINE",
"699 653 OFFCURVE",
"695 650 OFFCURVE",
"690 650 CURVE SMOOTH",
"686 650 OFFCURVE",
"684 652 OFFCURVE",
"682 653 CURVE",
"646 684 OFFCURVE",
"578 710 OFFCURVE",
"488 710 CURVE SMOOTH",
"256 710 OFFCURVE",
"108 564 OFFCURVE",
"64 350 CURVE SMOOTH",
"20 135 OFFCURVE",
"104 -10 OFFCURVE",
"340 -10 CURVE SMOOTH"
);
},
{
closed = 1;
nodes = (
"697 800 LINE",
"710 869 LINE",
"318 869 LINE",
"304 800 LINE"
);
}
);
width = 744;
}
);
leftKerningGroup = G;
note = Gmacron;
unicode = 1E20;
},
{
glyphname = H;
lastChange = "2015-10-20 08:24:08 +0000";
layers = (
{
layerId = "E9D5AAFE-D5DF-4A4E-94FD-DD81026DC4E3";
name = "Bold Italic";
paths = (
{
closed = 1;
nodes = (
"757 0 LINE",
"766 44 LINE",
"735 44 LINE SMOOTH",
"699 44 OFFCURVE",
"685 57 OFFCURVE",
"690 83 CURVE SMOOTH",
"800 617 LINE SMOOTH",
"804 643 OFFCURVE",
"824 656 OFFCURVE",
"860 656 CURVE SMOOTH",
"891 656 LINE",
"900 700 LINE",
"555 700 LINE",
"546 656 LINE",
"576 656 LINE SMOOTH",
"613 656 OFFCURVE",
"626 643 OFFCURVE",
"621 617 CURVE SMOOTH",
"512 83 LINE SMOOTH",
"507 57 OFFCURVE",
"489 44 OFFCURVE",
"451 44 CURVE SMOOTH",
"421 44 LINE",
"413 0 LINE"
);
},
{
closed = 1;
nodes = (
"318 0 LINE",
"326 44 LINE",
"296 44 LINE SMOOTH",
"259 44 OFFCURVE",
"247 57 OFFCURVE",
"252 83 CURVE SMOOTH",
"361 617 LINE SMOOTH",
"366 643 OFFCURVE",
"384 656 OFFCURVE",
"420 656 CURVE SMOOTH",
"451 656 LINE",
"460 700 LINE",
"115 700 LINE",
"107 656 LINE",
"137 656 LINE SMOOTH",
"174 656 OFFCURVE",
"187 643 OFFCURVE",
"182 617 CURVE SMOOTH",
"73 83 LINE SMOOTH",
"68 57 OFFCURVE",
"49 44 OFFCURVE",
"12 44 CURVE SMOOTH",
"-18 44 LINE",
"-27 0 LINE"
);
},
{
closed = 1;
nodes = (
"639 326 LINE",
"652 389 LINE",
"225 389 LINE",
"212 326 LINE"
);
}
);
width = 807;
}
);
note = H;
unicode = 0048;
},
{
glyphname = Hbar;
lastChange = "2015-10-20 08:24:08 +0000";
layers = (
{
layerId = "E9D5AAFE-D5DF-4A4E-94FD-DD81026DC4E3";
name = "Bold Italic";
paths = (
{
closed = 1;
nodes = (
"757 0 LINE",
"766 44 LINE",
"735 44 LINE SMOOTH",
"699 44 OFFCURVE",
"685 57 OFFCURVE",
"690 83 CURVE SMOOTH",
"800 617 LINE SMOOTH",
"804 643 OFFCURVE",
"824 656 OFFCURVE",
"860 656 CURVE SMOOTH",
"891 656 LINE",
"900 700 LINE",
"555 700 LINE",
"546 656 LINE",
"576 656 LINE SMOOTH",
"613 656 OFFCURVE",
"626 643 OFFCURVE",
"621 617 CURVE SMOOTH",
"512 83 LINE SMOOTH",
"507 57 OFFCURVE",
"489 44 OFFCURVE",
"451 44 CURVE SMOOTH",
"421 44 LINE",
"413 0 LINE"
);
},
{
closed = 1;
nodes = (
"318 0 LINE",
"326 44 LINE",
"296 44 LINE SMOOTH",
"259 44 OFFCURVE",
"247 57 OFFCURVE",
"252 83 CURVE SMOOTH",
"361 617 LINE SMOOTH",
"366 643 OFFCURVE",
"384 656 OFFCURVE",
"420 656 CURVE SMOOTH",
"451 656 LINE",
"460 700 LINE",
"115 700 LINE",
"107 656 LINE",
"137 656 LINE SMOOTH",
"174 656 OFFCURVE",
"187 643 OFFCURVE",
"182 617 CURVE SMOOTH",
"73 83 LINE SMOOTH",
"68 57 OFFCURVE",
"49 44 OFFCURVE",
"12 44 CURVE SMOOTH",
"-18 44 LINE",
"-27 0 LINE"
);
},
{
closed = 1;
nodes = (
"639 326 LINE",
"652 389 LINE",
"225 389 LINE",
"212 326 LINE"
);
},
{
closed = 1;
nodes = (
"831 485 LINE",
"844 547 LINE",
"108 547 LINE",
"95 485 LINE"
);
}
);
width = 807;
}
);
note = Hbar;
unicode = 0126;
},
{
glyphname = Hbrevebelow;
lastChange = "2015-10-20 08:24:08 +0000";
layers = (
{
layerId = "E9D5AAFE-D5DF-4A4E-94FD-DD81026DC4E3";
name = "Bold Italic";
paths = (
{
closed = 1;
nodes = (
"757 0 LINE",
"766 44 LINE",
"735 44 LINE SMOOTH",
"699 44 OFFCURVE",
"685 57 OFFCURVE",
"690 83 CURVE SMOOTH",
"800 617 LINE SMOOTH",
"804 643 OFFCURVE",
"824 656 OFFCURVE",
"860 656 CURVE SMOOTH",
"891 656 LINE",
"900 700 LINE",
"555 700 LINE",
"546 656 LINE",
"576 656 LINE SMOOTH",
"613 656 OFFCURVE",
"626 643 OFFCURVE",
"621 617 CURVE SMOOTH",
"512 83 LINE SMOOTH",
"507 57 OFFCURVE",
"489 44 OFFCURVE",
"451 44 CURVE SMOOTH",
"421 44 LINE",
"413 0 LINE"
);
},
{
closed = 1;
nodes = (
"451 -207 OFFCURVE",
"495 -124 OFFCURVE",
"510 -53 CURVE",
"468 -53 LINE",
"460 -84 OFFCURVE",
"428 -131 OFFCURVE",
"335 -131 CURVE SMOOTH",
"242 -131 OFFCURVE",
"227 -84 OFFCURVE",
"229 -53 CURVE",
"188 -53 LINE",
"174 -129 OFFCURVE",
"186 -207 OFFCURVE",
"320 -207 CURVE SMOOTH"
);
},
{
closed = 1;
nodes = (
"318 0 LINE",
"326 44 LINE",
"296 44 LINE SMOOTH",
"259 44 OFFCURVE",
"247 57 OFFCURVE",
"252 83 CURVE SMOOTH",
"361 617 LINE SMOOTH",
"366 643 OFFCURVE",
"384 656 OFFCURVE",
"420 656 CURVE SMOOTH",
"451 656 LINE",
"460 700 LINE",
"115 700 LINE",
"107 656 LINE",
"137 656 LINE SMOOTH",
"174 656 OFFCURVE",
"187 643 OFFCURVE",
"182 617 CURVE SMOOTH",
"73 83 LINE SMOOTH",
"68 57 OFFCURVE",
"49 44 OFFCURVE",
"12 44 CURVE SMOOTH",
"-18 44 LINE",
"-27 0 LINE"
);
},
{
closed = 1;
nodes = (
"639 326 LINE",
"652 389 LINE",
"225 389 LINE",
"212 326 LINE"
);
}
);
width = 807;
}
);
note = Hbrevebelow;
unicode = 1E2A;
},
{
glyphname = Hcircumflex;
lastChange = "2015-10-20 08:24:08 +0000";
layers = (
{
layerId = "E9D5AAFE-D5DF-4A4E-94FD-DD81026DC4E3";
name = "Bold Italic";
paths = (
{
closed = 1;
nodes = (
"757 0 LINE",
"766 44 LINE",
"735 44 LINE SMOOTH",
"699 44 OFFCURVE",
"685 57 OFFCURVE",
"690 83 CURVE SMOOTH",
"800 617 LINE SMOOTH",
"804 643 OFFCURVE",
"824 656 OFFCURVE",
"860 656 CURVE SMOOTH",
"891 656 LINE",
"900 700 LINE",
"555 700 LINE",
"546 656 LINE",
"576 656 LINE SMOOTH",
"613 656 OFFCURVE",
"626 643 OFFCURVE",
"621 617 CURVE SMOOTH",
"512 83 LINE SMOOTH",
"507 57 OFFCURVE",
"489 44 OFFCURVE",
"451 44 CURVE SMOOTH",
"421 44 LINE",
"413 0 LINE"
);
},
{
closed = 1;
nodes = (
"318 0 LINE",
"326 44 LINE",
"296 44 LINE SMOOTH",
"259 44 OFFCURVE",
"247 57 OFFCURVE",
"252 83 CURVE SMOOTH",
"361 617 LINE SMOOTH",
"366 643 OFFCURVE",
"384 656 OFFCURVE",
"420 656 CURVE SMOOTH",
"451 656 LINE",
"460 700 LINE",
"115 700 LINE",
"107 656 LINE",
"137 656 LINE SMOOTH",
"174 656 OFFCURVE",
"187 643 OFFCURVE",
"182 617 CURVE SMOOTH",
"73 83 LINE SMOOTH",
"68 57 OFFCURVE",
"49 44 OFFCURVE",
"12 44 CURVE SMOOTH",
"-18 44 LINE",
"-27 0 LINE"
);
},
{
closed = 1;
nodes = (
"639 326 LINE",
"652 389 LINE",
"225 389 LINE",
"212 326 LINE"
);
},
{
closed = 1;
nodes = (
"504 876 LINE",
"520 888 OFFCURVE",
"536 895 OFFCURVE",
"546 895 CURVE SMOOTH",
"557 895 OFFCURVE",
"568 888 OFFCURVE",
"581 876 CURVE SMOOTH",
"689 776 LINE",
"721 804 LINE",
"605 978 LINE",
"520 978 LINE",
"334 804 LINE",
"355 776 LINE"
);
}
);
width = 807;
}
);
note = Hcircumflex;
unicode = 0124;
},
{
glyphname = Hdotbelow;
lastChange = "2015-10-20 08:24:08 +0000";
layers = (
{
layerId = "E9D5AAFE-D5DF-4A4E-94FD-DD81026DC4E3";
name = "Bold Italic";
paths = (
{
closed = 1;
nodes = (
"757 0 LINE",
"766 44 LINE",
"735 44 LINE SMOOTH",
"699 44 OFFCURVE",
"685 57 OFFCURVE",
"690 83 CURVE SMOOTH",
"800 617 LINE SMOOTH",
"804 643 OFFCURVE",
"824 656 OFFCURVE",
"860 656 CURVE SMOOTH",
"891 656 LINE",
"900 700 LINE",
"555 700 LINE",
"546 656 LINE",
"576 656 LINE SMOOTH",
"613 656 OFFCURVE",
"626 643 OFFCURVE",
"621 617 CURVE SMOOTH",
"512 83 LINE SMOOTH",
"507 57 OFFCURVE",
"489 44 OFFCURVE",
"451 44 CURVE SMOOTH",
"421 44 LINE",
"413 0 LINE"
);
},
{
closed = 1;
nodes = (
"363 -205 OFFCURVE",
"396 -174 OFFCURVE",
"403 -135 CURVE SMOOTH",
"411 -96 OFFCURVE",
"392 -64 OFFCURVE",
"350 -64 CURVE SMOOTH",
"309 -64 OFFCURVE",
"276 -96 OFFCURVE",
"269 -135 CURVE SMOOTH",
"261 -174 OFFCURVE",
"280 -205 OFFCURVE",
"322 -205 CURVE SMOOTH"
);
},
{
closed = 1;
nodes = (
"318 0 LINE",
"326 44 LINE",
"296 44 LINE SMOOTH",
"259 44 OFFCURVE",
"247 57 OFFCURVE",
"252 83 CURVE SMOOTH",
"361 617 LINE SMOOTH",
"366 643 OFFCURVE",
"384 656 OFFCURVE",
"420 656 CURVE SMOOTH",
"451 656 LINE",
"460 700 LINE",
"115 700 LINE",
"107 656 LINE",
"137 656 LINE SMOOTH",
"174 656 OFFCURVE",
"187 643 OFFCURVE",
"182 617 CURVE SMOOTH",
"73 83 LINE SMOOTH",
"68 57 OFFCURVE",
"49 44 OFFCURVE",
"12 44 CURVE SMOOTH",
"-18 44 LINE",
"-27 0 LINE"
);
},
{
closed = 1;
nodes = (
"639 326 LINE",
"652 389 LINE",
"225 389 LINE",
"212 326 LINE"
);
}
);
width = 807;
}
);
note = Hdotbelow;
unicode = 1E24;
},
{
glyphname = I;
lastChange = "2015-10-20 08:24:07 +0000";
layers = (
{
layerId = "E9D5AAFE-D5DF-4A4E-94FD-DD81026DC4E3";
name = "Bold Italic";
paths = (
{
closed = 1;
nodes = (
"323 0 LINE",
"331 44 LINE",
"301 44 LINE SMOOTH",
"265 44 OFFCURVE",
"252 57 OFFCURVE",
"256 83 CURVE SMOOTH",
"366 617 LINE SMOOTH",
"371 643 OFFCURVE",
"390 656 OFFCURVE",
"426 656 CURVE SMOOTH",
"456 656 LINE",
"465 700 LINE",
"121 700 LINE",
"112 656 LINE",
"142 656 LINE SMOOTH",
"179 656 OFFCURVE",
"192 643 OFFCURVE",
"187 617 CURVE SMOOTH",
"78 83 LINE SMOOTH",
"73 57 OFFCURVE",
"54 44 OFFCURVE",
"17 44 CURVE SMOOTH",
"-12 44 LINE",
"-21 0 LINE"
);
}
);
width = 378;
}
);
note = I;
unicode = 0049;
},
{
glyphname = IJ;
lastChange = "2015-10-20 08:24:07 +0000";
layers = (
{
layerId = "E9D5AAFE-D5DF-4A4E-94FD-DD81026DC4E3";
name = "Bold Italic";
paths = (
{
closed = 1;
nodes = (
"521 -114 OFFCURVE",
"657 -40 OFFCURVE",
"692 132 CURVE SMOOTH",
"791 617 LINE SMOOTH",
"796 643 OFFCURVE",
"814 656 OFFCURVE",
"851 656 CURVE SMOOTH",
"881 656 LINE",
"890 700 LINE",
"545 700 LINE",
"537 656 LINE",
"567 656 LINE SMOOTH",
"604 656 OFFCURVE",
"617 643 OFFCURVE",
"612 617 CURVE SMOOTH",
"514 135 LINE SMOOTH",
"492 30 OFFCURVE",
"461 -55 OFFCURVE",
"355 -85 CURVE",
"355 -114 LINE"
);
},
{
closed = 1;
nodes = (
"323 0 LINE",
"331 44 LINE",
"301 44 LINE SMOOTH",
"265 44 OFFCURVE",
"252 57 OFFCURVE",
"256 83 CURVE SMOOTH",
"366 617 LINE SMOOTH",
"371 643 OFFCURVE",
"390 656 OFFCURVE",
"426 656 CURVE SMOOTH",
"456 656 LINE",
"465 700 LINE",
"121 700 LINE",
"112 656 LINE",
"142 656 LINE SMOOTH",
"179 656 OFFCURVE",
"192 643 OFFCURVE",
"187 617 CURVE SMOOTH",
"78 83 LINE SMOOTH",
"73 57 OFFCURVE",
"54 44 OFFCURVE",
"17 44 CURVE SMOOTH",
"-12 44 LINE",
"-21 0 LINE"
);
}
);
width = 804;
}
);
note = IJ;
unicode = 0132;
},
{
glyphname = Iacute;
lastChange = "2015-10-20 08:24:07 +0000";
layers = (
{
layerId = "E9D5AAFE-D5DF-4A4E-94FD-DD81026DC4E3";
name = "Bold Italic";
paths = (
{
closed = 1;
nodes = (
"323 0 LINE",
"331 44 LINE",
"301 44 LINE SMOOTH",
"265 44 OFFCURVE",
"252 57 OFFCURVE",
"256 83 CURVE SMOOTH",
"366 617 LINE SMOOTH",
"371 643 OFFCURVE",
"390 656 OFFCURVE",
"426 656 CURVE SMOOTH",
"456 656 LINE",
"465 700 LINE",
"121 700 LINE",
"112 656 LINE",
"142 656 LINE SMOOTH",
"179 656 OFFCURVE",
"192 643 OFFCURVE",
"187 617 CURVE SMOOTH",
"78 83 LINE SMOOTH",
"73 57 OFFCURVE",
"54 44 OFFCURVE",
"17 44 CURVE SMOOTH",
"-12 44 LINE",
"-21 0 LINE"
);
},
{
closed = 1;
nodes = (
"396 872 LINE SMOOTH",
"435 893 OFFCURVE",
"459 914 OFFCURVE",
"465 941 CURVE",
"468 964 OFFCURVE",
"458 991 OFFCURVE",
"419 991 CURVE SMOOTH",
"383 991 OFFCURVE",
"350 960 OFFCURVE",
"343 952 CURVE",
"196 820 LINE",
"217 775 LINE"
);
}
);
width = 378;
}
);
note = Iacute;
unicode = 00CD;
},
{
glyphname = Ibreve;
lastChange = "2015-10-20 08:24:08 +0000";
layers = (
{
layerId = "E9D5AAFE-D5DF-4A4E-94FD-DD81026DC4E3";
name = "Bold Italic";
paths = (
{
closed = 1;
nodes = (
"323 0 LINE",
"331 44 LINE",
"301 44 LINE SMOOTH",
"265 44 OFFCURVE",
"252 57 OFFCURVE",
"256 83 CURVE SMOOTH",
"366 617 LINE SMOOTH",
"371 643 OFFCURVE",
"390 656 OFFCURVE",
"426 656 CURVE SMOOTH",
"456 656 LINE",
"465 700 LINE",
"121 700 LINE",
"112 656 LINE",
"142 656 LINE SMOOTH",
"179 656 OFFCURVE",
"192 643 OFFCURVE",
"187 617 CURVE SMOOTH",
"78 83 LINE SMOOTH",
"73 57 OFFCURVE",
"54 44 OFFCURVE",
"17 44 CURVE SMOOTH",
"-12 44 LINE",
"-21 0 LINE"
);
},
{
closed = 1;
nodes = (
"441 777 OFFCURVE",
"485 860 OFFCURVE",
"499 931 CURVE",
"458 931 LINE",
"449 900 OFFCURVE",
"418 852 OFFCURVE",
"324 852 CURVE SMOOTH",
"230 852 OFFCURVE",
"215 900 OFFCURVE",
"218 931 CURVE",
"178 931 LINE",
"163 855 OFFCURVE",
"176 777 OFFCURVE",
"308 777 CURVE SMOOTH"
);
}
);
width = 378;
}
);
note = Ibreve;
unicode = 012C;
},
{
glyphname = Icaron;
lastChange = "2015-10-20 08:24:08 +0000";
layers = (
{
layerId = "E9D5AAFE-D5DF-4A4E-94FD-DD81026DC4E3";
name = "Bold Italic";
paths = (
{
closed = 1;
nodes = (
"323 0 LINE",
"331 44 LINE",
"301 44 LINE SMOOTH",
"265 44 OFFCURVE",
"252 57 OFFCURVE",
"256 83 CURVE SMOOTH",
"366 617 LINE SMOOTH",
"371 643 OFFCURVE",
"390 656 OFFCURVE",
"426 656 CURVE SMOOTH",
"456 656 LINE",
"465 700 LINE",
"121 700 LINE",
"112 656 LINE",
"142 656 LINE SMOOTH",
"179 656 OFFCURVE",
"192 643 OFFCURVE",
"187 617 CURVE SMOOTH",
"78 83 LINE SMOOTH",
"73 57 OFFCURVE",
"54 44 OFFCURVE",
"17 44 CURVE SMOOTH",
"-12 44 LINE",
"-21 0 LINE"
);
},
{
closed = 1;
nodes = (
"350 776 LINE",
"537 950 LINE",
"516 978 LINE",
"367 878 LINE",
"350 866 OFFCURVE",
"335 859 OFFCURVE",
"324 859 CURVE SMOOTH",
"314 859 OFFCURVE",
"302 866 OFFCURVE",
"290 878 CURVE SMOOTH",
"181 978 LINE",
"150 950 LINE",
"266 776 LINE"
);
}
);
width = 379;
}
);
note = Icaron;
unicode = 01CF;
},
{
glyphname = Icircumflex;
lastChange = "2015-10-20 08:24:07 +0000";
layers = (
{
layerId = "E9D5AAFE-D5DF-4A4E-94FD-DD81026DC4E3";
name = "Bold Italic";
paths = (
{
closed = 1;
nodes = (
"323 0 LINE",
"331 44 LINE",
"301 44 LINE SMOOTH",
"265 44 OFFCURVE",
"252 57 OFFCURVE",
"256 83 CURVE SMOOTH",
"366 617 LINE SMOOTH",
"371 643 OFFCURVE",
"390 656 OFFCURVE",
"426 656 CURVE SMOOTH",
"456 656 LINE",
"465 700 LINE",
"121 700 LINE",
"112 656 LINE",
"142 656 LINE SMOOTH",
"179 656 OFFCURVE",
"192 643 OFFCURVE",
"187 617 CURVE SMOOTH",
"78 83 LINE SMOOTH",
"73 57 OFFCURVE",
"54 44 OFFCURVE",
"17 44 CURVE SMOOTH",
"-12 44 LINE",
"-21 0 LINE"
);
},
{
closed = 1;
nodes = (
"290 876 LINE",
"306 888 OFFCURVE",
"322 895 OFFCURVE",
"332 895 CURVE SMOOTH",
"343 895 OFFCURVE",
"354 888 OFFCURVE",
"367 876 CURVE SMOOTH",
"475 776 LINE",
"507 804 LINE",
"391 978 LINE",
"306 978 LINE",
"120 804 LINE",
"141 776 LINE"
);
}
);
width = 378;
}
);
note = Icircumflex;
unicode = 00CE;
},
{
glyphname = Idieresis;
lastChange = "2015-10-20 08:24:08 +0000";
layers = (
{
layerId = "E9D5AAFE-D5DF-4A4E-94FD-DD81026DC4E3";
name = "Bold Italic";
paths = (
{
closed = 1;
nodes = (
"323 0 LINE",
"331 44 LINE",
"301 44 LINE SMOOTH",
"265 44 OFFCURVE",
"252 57 OFFCURVE",
"256 83 CURVE SMOOTH",
"366 617 LINE SMOOTH",
"371 643 OFFCURVE",
"390 656 OFFCURVE",
"426 656 CURVE SMOOTH",
"456 656 LINE",
"465 700 LINE",
"121 700 LINE",
"112 656 LINE",
"142 656 LINE SMOOTH",
"179 656 OFFCURVE",
"192 643 OFFCURVE",
"187 617 CURVE SMOOTH",
"78 83 LINE SMOOTH",
"73 57 OFFCURVE",
"54 44 OFFCURVE",
"17 44 CURVE SMOOTH",
"-12 44 LINE",
"-21 0 LINE"
);
},
{
closed = 1;
nodes = (
"233 776 OFFCURVE",
"265 806 OFFCURVE",
"273 845 CURVE SMOOTH",
"281 885 OFFCURVE",
"261 916 OFFCURVE",
"219 916 CURVE SMOOTH",
"179 916 OFFCURVE",
"148 885 OFFCURVE",
"139 845 CURVE SMOOTH",
"132 806 OFFCURVE",
"151 776 OFFCURVE",
"191 776 CURVE SMOOTH"
);
},
{
closed = 1;
nodes = (
"466 776 OFFCURVE",
"497 806 OFFCURVE",
"505 845 CURVE SMOOTH",
"514 885 OFFCURVE",
"493 916 OFFCURVE",
"452 916 CURVE SMOOTH",
"409 916 OFFCURVE",
"378 885 OFFCURVE",
"370 845 CURVE SMOOTH",
"362 806 OFFCURVE",
"381 776 OFFCURVE",
"424 776 CURVE SMOOTH"
);
}
);
width = 378;
}
);
note = Idieresis;
unicode = 00CF;
},
{
glyphname = Idotaccent;
lastChange = "2015-10-20 08:24:08 +0000";
layers = (
{
layerId = "E9D5AAFE-D5DF-4A4E-94FD-DD81026DC4E3";
name = "Bold Italic";
paths = (
{
closed = 1;
nodes = (
"323 0 LINE",
"331 44 LINE",
"301 44 LINE SMOOTH",
"265 44 OFFCURVE",
"252 57 OFFCURVE",
"256 83 CURVE SMOOTH",
"366 617 LINE SMOOTH",
"371 643 OFFCURVE",
"390 656 OFFCURVE",
"426 656 CURVE SMOOTH",
"456 656 LINE",
"465 700 LINE",
"121 700 LINE",
"112 656 LINE",
"142 656 LINE SMOOTH",
"179 656 OFFCURVE",
"192 643 OFFCURVE",
"187 617 CURVE SMOOTH",
"78 83 LINE SMOOTH",
"73 57 OFFCURVE",
"54 44 OFFCURVE",
"17 44 CURVE SMOOTH",
"-12 44 LINE",
"-21 0 LINE"
);
},
{
closed = 1;
nodes = (
"348 773 OFFCURVE",
"379 803 OFFCURVE",
"388 842 CURVE SMOOTH",
"396 881 OFFCURVE",
"375 912 OFFCURVE",
"334 912 CURVE SMOOTH",
"293 912 OFFCURVE",
"262 881 OFFCURVE",
"254 842 CURVE SMOOTH",
"246 803 OFFCURVE",
"265 773 OFFCURVE",
"306 773 CURVE SMOOTH"
);
}
);
width = 378;
}
);
note = Idotaccent;
unicode = 0130;
},
{
glyphname = Idotbelow;
lastChange = "2015-10-20 08:24:07 +0000";
layers = (
{
layerId = "E9D5AAFE-D5DF-4A4E-94FD-DD81026DC4E3";
name = "Bold Italic";
paths = (
{
closed = 1;
nodes = (
"323 0 LINE",
"331 44 LINE",
"301 44 LINE SMOOTH",
"265 44 OFFCURVE",
"252 57 OFFCURVE",
"256 83 CURVE SMOOTH",
"366 617 LINE SMOOTH",
"371 643 OFFCURVE",
"390 656 OFFCURVE",
"426 656 CURVE SMOOTH",
"456 656 LINE",
"465 700 LINE",
"121 700 LINE",
"112 656 LINE",
"142 656 LINE SMOOTH",
"179 656 OFFCURVE",
"192 643 OFFCURVE",
"187 617 CURVE SMOOTH",
"78 83 LINE SMOOTH",
"73 57 OFFCURVE",
"54 44 OFFCURVE",
"17 44 CURVE SMOOTH",
"-12 44 LINE",
"-21 0 LINE"
);
},
{
closed = 1;
nodes = (
"151 -205 OFFCURVE",
"183 -174 OFFCURVE",
"191 -135 CURVE SMOOTH",
"199 -96 OFFCURVE",
"180 -64 OFFCURVE",
"138 -64 CURVE SMOOTH",
"97 -64 OFFCURVE",
"64 -96 OFFCURVE",
"57 -135 CURVE SMOOTH",
"49 -174 OFFCURVE",
"68 -205 OFFCURVE",
"109 -205 CURVE SMOOTH"
);
}
);
width = 379;
}
);
note = Idotbelow;
unicode = 1ECA;
},
{
glyphname = Igrave;
lastChange = "2015-10-20 08:24:08 +0000";
layers = (
{
layerId = "E9D5AAFE-D5DF-4A4E-94FD-DD81026DC4E3";
name = "Bold Italic";
paths = (
{
closed = 1;
nodes = (
"323 0 LINE",
"331 44 LINE",
"301 44 LINE SMOOTH",
"265 44 OFFCURVE",
"252 57 OFFCURVE",
"256 83 CURVE SMOOTH",
"366 617 LINE SMOOTH",
"371 643 OFFCURVE",
"390 656 OFFCURVE",
"426 656 CURVE SMOOTH",
"456 656 LINE",
"465 700 LINE",
"121 700 LINE",
"112 656 LINE",
"142 656 LINE SMOOTH",
"179 656 OFFCURVE",
"192 643 OFFCURVE",
"187 617 CURVE SMOOTH",
"78 83 LINE SMOOTH",
"73 57 OFFCURVE",
"54 44 OFFCURVE",
"17 44 CURVE SMOOTH",
"-12 44 LINE",
"-21 0 LINE"
);
},
{
closed = 1;
nodes = (
"440 820 LINE",
"348 952 LINE",
"343 960 OFFCURVE",
"322 991 OFFCURVE",
"286 991 CURVE SMOOTH",
"246 991 OFFCURVE",
"225 964 OFFCURVE",
"221 942 CURVE SMOOTH",
"215 914 OFFCURVE",
"229 893 OFFCURVE",
"259 872 CURVE SMOOTH",
"399 775 LINE"
);
}
);
width = 378;
}
);
note = Igrave;
unicode = 00CC;
},
{
glyphname = Ihookabove;
lastChange = "2015-10-20 08:24:08 +0000";
layers = (
{
layerId = "E9D5AAFE-D5DF-4A4E-94FD-DD81026DC4E3";
name = "Bold Italic";
paths = (
{
closed = 1;
nodes = (
"323 0 LINE",
"331 44 LINE",
"301 44 LINE SMOOTH",
"265 44 OFFCURVE",
"252 57 OFFCURVE",
"256 83 CURVE SMOOTH",
"366 617 LINE SMOOTH",
"371 643 OFFCURVE",
"390 656 OFFCURVE",
"426 656 CURVE SMOOTH",
"456 656 LINE",
"465 700 LINE",
"121 700 LINE",
"112 656 LINE",
"142 656 LINE SMOOTH",
"179 656 OFFCURVE",
"192 643 OFFCURVE",
"187 617 CURVE SMOOTH",
"78 83 LINE SMOOTH",
"73 57 OFFCURVE",
"54 44 OFFCURVE",
"17 44 CURVE SMOOTH",
"-12 44 LINE",
"-21 0 LINE"
);
},
{
closed = 1;
nodes = (
"346 801 LINE",
"332 803 OFFCURVE",
"318 807 OFFCURVE",
"323 828 CURVE SMOOTH",
"332 874 OFFCURVE",
"443 882 OFFCURVE",
"457 950 CURVE SMOOTH",
"468 1001 OFFCURVE",
"420 1026 OFFCURVE",
"360 1026 CURVE SMOOTH",
"277 1026 OFFCURVE",
"241 989 OFFCURVE",
"235 962 CURVE SMOOTH",
"230 937 OFFCURVE",
"246 926 OFFCURVE",
"263 926 CURVE SMOOTH",
"284 926 OFFCURVE",
"300 941 OFFCURVE",
"304 957 CURVE SMOOTH",
"311 984 OFFCURVE",
"335 991 OFFCURVE",
"351 991 CURVE SMOOTH",
"372 991 OFFCURVE",
"380 974 OFFCURVE",
"376 957 CURVE SMOOTH",
"364 895 OFFCURVE",
"270 883 OFFCURVE",
"259 830 CURVE SMOOTH",
"252 796 OFFCURVE",
"285 776 OFFCURVE",
"332 776 CURVE"
);
}
);
width = 379;
}
);
note = Ihookabove;
unicode = 1EC8;
},
{
glyphname = Imacron;
lastChange = "2015-10-20 08:24:07 +0000";
layers = (
{
layerId = "E9D5AAFE-D5DF-4A4E-94FD-DD81026DC4E3";
name = "Bold Italic";
paths = (
{
closed = 1;
nodes = (
"323 0 LINE",
"331 44 LINE",
"301 44 LINE SMOOTH",
"265 44 OFFCURVE",
"252 57 OFFCURVE",
"256 83 CURVE SMOOTH",
"366 617 LINE SMOOTH",
"371 643 OFFCURVE",
"390 656 OFFCURVE",
"426 656 CURVE SMOOTH",
"456 656 LINE",
"465 700 LINE",
"121 700 LINE",
"112 656 LINE",
"142 656 LINE SMOOTH",
"179 656 OFFCURVE",
"192 643 OFFCURVE",
"187 617 CURVE SMOOTH",
"78 83 LINE SMOOTH",
"73 57 OFFCURVE",
"54 44 OFFCURVE",
"17 44 CURVE SMOOTH",
"-12 44 LINE",
"-21 0 LINE"
);
},
{
closed = 1;
nodes = (
"534 788 LINE",
"550 866 LINE",
"110 866 LINE",
"94 788 LINE"
);
}
);
width = 378;
}
);
note = Imacron;
unicode = 012A;
},
{
glyphname = Iogonek;
lastChange = "2015-10-20 08:24:08 +0000";
layers = (
{
layerId = "E9D5AAFE-D5DF-4A4E-94FD-DD81026DC4E3";
name = "Bold Italic";
paths = (
{
closed = 1;
nodes = (
"323 0 LINE",
"331 44 LINE",
"301 44 LINE SMOOTH",
"265 44 OFFCURVE",
"252 57 OFFCURVE",
"256 83 CURVE SMOOTH",
"366 617 LINE SMOOTH",
"371 643 OFFCURVE",
"390 656 OFFCURVE",
"426 656 CURVE SMOOTH",
"456 656 LINE",
"465 700 LINE",
"121 700 LINE",
"112 656 LINE",
"142 656 LINE SMOOTH",
"179 656 OFFCURVE",
"192 643 OFFCURVE",
"187 617 CURVE SMOOTH",
"78 83 LINE SMOOTH",
"73 57 OFFCURVE",
"54 44 OFFCURVE",
"17 44 CURVE SMOOTH",
"-12 44 LINE",
"-21 0 LINE"
);
},
{
closed = 1;
nodes = (
"175 -234 OFFCURVE",
"216 -221 OFFCURVE",
"256 -192 CURVE",
"248 -166 LINE",
"233 -173 OFFCURVE",
"211 -179 OFFCURVE",
"197 -179 CURVE SMOOTH",
"165 -179 OFFCURVE",
"146 -159 OFFCURVE",
"154 -117 CURVE SMOOTH",
"161 -76 OFFCURVE",
"193 -32 OFFCURVE",
"252 11 CURVE",
"194 11 LINE",
"125 -23 OFFCURVE",
"60 -76 OFFCURVE",
"49 -135 CURVE SMOOTH",
"41 -172 OFFCURVE",
"49 -234 OFFCURVE",
"145 -234 CURVE SMOOTH"
);
}
);
width = 378;
}
);
note = Iogonek;
unicode = 012E;
},
{
glyphname = Itilde;
lastChange = "2015-10-20 08:24:08 +0000";
layers = (
{
layerId = "E9D5AAFE-D5DF-4A4E-94FD-DD81026DC4E3";
name = "Bold Italic";
paths = (
{
closed = 1;
nodes = (
"323 0 LINE",
"331 44 LINE",
"301 44 LINE SMOOTH",
"265 44 OFFCURVE",
"252 57 OFFCURVE",
"256 83 CURVE SMOOTH",
"366 617 LINE SMOOTH",
"371 643 OFFCURVE",
"390 656 OFFCURVE",
"426 656 CURVE SMOOTH",
"456 656 LINE",
"465 700 LINE",
"121 700 LINE",
"112 656 LINE",
"142 656 LINE SMOOTH",
"179 656 OFFCURVE",
"192 643 OFFCURVE",
"187 617 CURVE SMOOTH",
"78 83 LINE SMOOTH",
"73 57 OFFCURVE",
"54 44 OFFCURVE",
"17 44 CURVE SMOOTH",
"-12 44 LINE",
"-21 0 LINE"
);
},
{
closed = 1;
nodes = (
"175 812 OFFCURVE",
"195 829 OFFCURVE",
"230 829 CURVE SMOOTH",
"292 829 OFFCURVE",
"337 783 OFFCURVE",
"396 783 CURVE SMOOTH",
"472 783 OFFCURVE",
"521 859 OFFCURVE",
"547 905 CURVE",
"521 922 LINE",
"492 882 OFFCURVE",
"473 864 OFFCURVE",
"437 864 CURVE SMOOTH",
"376 864 OFFCURVE",
"331 910 OFFCURVE",
"272 910 CURVE SMOOTH",
"196 910 OFFCURVE",
"146 835 OFFCURVE",
"119 789 CURVE",
"147 772 LINE"
);
}
);
width = 378;
}
);
note = Itilde;
unicode = 0128;
},
{
glyphname = J;
lastChange = "2015-10-20 08:24:07 +0000";
layers = (
{
layerId = "E9D5AAFE-D5DF-4A4E-94FD-DD81026DC4E3";
name = "Bold Italic";
paths = (
{
closed = 1;
nodes = (
"154 -114 OFFCURVE",
"289 -40 OFFCURVE",
"324 132 CURVE SMOOTH",
"423 617 LINE SMOOTH",
"428 643 OFFCURVE",
"446 656 OFFCURVE",
"483 656 CURVE SMOOTH",
"514 656 LINE",
"522 700 LINE",
"178 700 LINE",
"169 656 LINE",
"200 656 LINE SMOOTH",
"236 656 OFFCURVE",
"250 643 OFFCURVE",
"245 617 CURVE SMOOTH",
"146 135 LINE SMOOTH",
"125 30 OFFCURVE",
"93 -55 OFFCURVE",
"-12 -85 CURVE",
"-12 -114 LINE"
);
}
);
width = 436;
}
);
note = J;
unicode = 004A;
},
{
glyphname = Jcircumflex;
lastChange = "2015-10-20 08:24:08 +0000";
layers = (
{
layerId = "E9D5AAFE-D5DF-4A4E-94FD-DD81026DC4E3";
name = "Bold Italic";
paths = (
{
closed = 1;
nodes = (
"154 -114 OFFCURVE",
"289 -40 OFFCURVE",
"324 132 CURVE SMOOTH",
"423 617 LINE SMOOTH",
"428 643 OFFCURVE",
"446 656 OFFCURVE",
"483 656 CURVE SMOOTH",
"514 656 LINE",
"522 700 LINE",
"178 700 LINE",
"169 656 LINE",
"200 656 LINE SMOOTH",
"236 656 OFFCURVE",
"250 643 OFFCURVE",
"245 617 CURVE SMOOTH",
"146 135 LINE SMOOTH",
"125 30 OFFCURVE",
"93 -55 OFFCURVE",
"-12 -85 CURVE",
"-12 -114 LINE"
);
},
{
closed = 1;
nodes = (
"344 879 LINE",
"360 891 OFFCURVE",
"375 898 OFFCURVE",
"386 898 CURVE SMOOTH",
"396 898 OFFCURVE",
"408 891 OFFCURVE",
"420 879 CURVE SMOOTH",
"529 779 LINE",
"561 807 LINE",
"444 981 LINE",
"360 981 LINE",
"174 807 LINE",
"195 779 LINE"
);
}
);
width = 436;
}
);
note = Jcircumflex;
unicode = 0134;
},
{
glyphname = K;
lastChange = "2015-10-20 08:24:08 +0000";
layers = (
{
layerId = "E9D5AAFE-D5DF-4A4E-94FD-DD81026DC4E3";
name = "Bold Italic";
paths = (
{
closed = 1;
nodes = (
"318 0 LINE",
"326 44 LINE",
"296 44 LINE SMOOTH",
"259 44 OFFCURVE",
"247 57 OFFCURVE",
"252 83 CURVE SMOOTH",
"361 617 LINE SMOOTH",
"366 643 OFFCURVE",
"384 656 OFFCURVE",
"420 656 CURVE SMOOTH",
"451 656 LINE",
"460 700 LINE",
"115 700 LINE",
"107 656 LINE",
"137 656 LINE SMOOTH",
"174 656 OFFCURVE",
"187 643 OFFCURVE",
"182 617 CURVE SMOOTH",
"73 83 LINE SMOOTH",
"68 57 OFFCURVE",
"49 44 OFFCURVE",
"12 44 CURVE SMOOTH",
"-18 44 LINE",
"-27 0 LINE"
);
},
{
closed = 1;
nodes = (
"733 0 LINE",
"742 44 LINE",
"711 44 LINE SMOOTH",
"680 44 OFFCURVE",
"650 67 OFFCURVE",
"631 95 CURVE SMOOTH",
"421 402 LINE",
"285 298 LINE",
"493 0 LINE"
);
},
{
closed = 1;
nodes = (
"731 637 LINE SMOOTH",
"745 648 OFFCURVE",
"765 656 OFFCURVE",
"786 656 CURVE SMOOTH",
"813 656 LINE",
"822 700 LINE",
"585 700 LINE",
"576 656 LINE",
"591 656 LINE SMOOTH",
"616 656 OFFCURVE",
"624 648 OFFCURVE",
"622 638 CURVE",
"621 631 OFFCURVE",
"616 626 OFFCURVE",
"609 620 CURVE SMOOTH",
"303 382 LINE",
"283 286 LINE"
);
}
);
width = 779;
}
);
note = K;
rightKerningGroup = K;
unicode = 004B;
},
{
glyphname = Kcommaaccent;
lastChange = "2015-10-20 08:24:08 +0000";
layers = (
{
layerId = "E9D5AAFE-D5DF-4A4E-94FD-DD81026DC4E3";
name = "Bold Italic";
paths = (
{
closed = 1;
nodes = (
"318 0 LINE",
"326 44 LINE",
"296 44 LINE SMOOTH",
"259 44 OFFCURVE",
"247 57 OFFCURVE",
"252 83 CURVE SMOOTH",
"361 617 LINE SMOOTH",
"366 643 OFFCURVE",
"384 656 OFFCURVE",
"420 656 CURVE SMOOTH",
"451 656 LINE",
"460 700 LINE",
"115 700 LINE",
"107 656 LINE",
"137 656 LINE SMOOTH",
"174 656 OFFCURVE",
"187 643 OFFCURVE",
"182 617 CURVE SMOOTH",
"73 83 LINE SMOOTH",
"68 57 OFFCURVE",
"49 44 OFFCURVE",
"12 44 CURVE SMOOTH",
"-18 44 LINE",
"-27 0 LINE"
);
},
{
closed = 1;
nodes = (
"300 -343 OFFCURVE",
"391 -260 OFFCURVE",
"408 -177 CURVE SMOOTH",
"421 -112 OFFCURVE",
"394 -75 OFFCURVE",
"348 -75 CURVE SMOOTH",
"305 -75 OFFCURVE",
"272 -105 OFFCURVE",
"265 -139 CURVE SMOOTH",
"256 -182 OFFCURVE",
"295 -199 OFFCURVE",
"286 -243 CURVE SMOOTH",
"276 -287 OFFCURVE",
"245 -326 OFFCURVE",
"205 -361 CURVE",
"227 -387 LINE"
);
},
{
closed = 1;
nodes = (
"733 0 LINE",
"742 44 LINE",
"711 44 LINE SMOOTH",
"680 44 OFFCURVE",
"650 67 OFFCURVE",
"631 95 CURVE SMOOTH",
"421 402 LINE",
"285 298 LINE",
"493 0 LINE"
);
},
{
closed = 1;
nodes = (
"731 637 LINE SMOOTH",
"745 648 OFFCURVE",
"765 656 OFFCURVE",
"786 656 CURVE SMOOTH",
"813 656 LINE",
"822 700 LINE",
"585 700 LINE",
"576 656 LINE",
"591 656 LINE SMOOTH",
"616 656 OFFCURVE",
"624 648 OFFCURVE",
"622 638 CURVE",
"621 631 OFFCURVE",
"616 626 OFFCURVE",
"609 620 CURVE SMOOTH",
"303 382 LINE",
"283 286 LINE"
);
}
);
width = 779;
}
);
note = Kcommaaccent;
rightKerningGroup = K;
unicode = 0136;
},
{
glyphname = L;
lastChange = "2015-10-20 08:24:07 +0000";
layers = (
{
layerId = "E9D5AAFE-D5DF-4A4E-94FD-DD81026DC4E3";
name = "Bold Italic";
paths = (
{
closed = 1;
nodes = (
"588 0 LINE",
"651 214 LINE",
"605 214 LINE",
"589 172 OFFCURVE",
"540 62 OFFCURVE",
"474 62 CURVE SMOOTH",
"309 62 LINE SMOOTH",
"274 62 OFFCURVE",
"255 78 OFFCURVE",
"263 114 CURVE SMOOTH",
"366 617 LINE SMOOTH",
"371 643 OFFCURVE",
"390 656 OFFCURVE",
"426 656 CURVE SMOOTH",
"456 656 LINE",
"465 700 LINE",
"121 700 LINE",
"112 656 LINE",
"142 656 LINE SMOOTH",
"179 656 OFFCURVE",
"192 643 OFFCURVE",
"187 617 CURVE SMOOTH",
"78 83 LINE SMOOTH",
"73 57 OFFCURVE",
"54 44 OFFCURVE",
"17 44 CURVE SMOOTH",
"-12 44 LINE",
"-21 0 LINE"
);
}
);
width = 665;
}
);
note = L;
rightKerningGroup = L;
unicode = 004C;
},
{
glyphname = Lacute;
lastChange = "2015-10-20 08:24:08 +0000";
layers = (
{
layerId = "E9D5AAFE-D5DF-4A4E-94FD-DD81026DC4E3";
name = "Bold Italic";
paths = (
{
closed = 1;
nodes = (
"588 0 LINE",
"651 214 LINE",
"605 214 LINE",
"589 172 OFFCURVE",
"540 62 OFFCURVE",
"474 62 CURVE SMOOTH",
"309 62 LINE SMOOTH",
"274 62 OFFCURVE",
"255 78 OFFCURVE",
"263 114 CURVE SMOOTH",
"366 617 LINE SMOOTH",
"371 643 OFFCURVE",
"390 656 OFFCURVE",
"426 656 CURVE SMOOTH",
"456 656 LINE",
"465 700 LINE",
"121 700 LINE",
"112 656 LINE",
"142 656 LINE SMOOTH",
"179 656 OFFCURVE",
"192 643 OFFCURVE",
"187 617 CURVE SMOOTH",
"78 83 LINE SMOOTH",
"73 57 OFFCURVE",
"54 44 OFFCURVE",
"17 44 CURVE SMOOTH",
"-12 44 LINE",
"-21 0 LINE"
);
},
{
closed = 1;
nodes = (
"422 872 LINE SMOOTH",
"461 893 OFFCURVE",
"485 914 OFFCURVE",
"491 941 CURVE",
"494 964 OFFCURVE",
"484 991 OFFCURVE",
"444 991 CURVE SMOOTH",
"409 991 OFFCURVE",
"376 960 OFFCURVE",
"369 952 CURVE",
"222 820 LINE",
"243 775 LINE"
);
}
);
width = 665;
}
);
note = Lacute;
rightKerningGroup = L;
unicode = 0139;
},
{
glyphname = Lcaron;
lastChange = "2015-10-20 08:24:08 +0000";
layers = (
{
layerId = "E9D5AAFE-D5DF-4A4E-94FD-DD81026DC4E3";
name = "Bold Italic";
paths = (
{
closed = 1;
nodes = (
"588 0 LINE",
"651 214 LINE",
"605 214 LINE",
"589 172 OFFCURVE",
"540 62 OFFCURVE",
"474 62 CURVE SMOOTH",
"309 62 LINE SMOOTH",
"274 62 OFFCURVE",
"255 78 OFFCURVE",
"263 114 CURVE SMOOTH",
"366 617 LINE SMOOTH",
"371 643 OFFCURVE",
"390 656 OFFCURVE",
"426 656 CURVE SMOOTH",
"456 656 LINE",
"465 700 LINE",
"121 700 LINE",
"112 656 LINE",
"142 656 LINE SMOOTH",
"179 656 OFFCURVE",
"192 643 OFFCURVE",
"187 617 CURVE SMOOTH",
"78 83 LINE SMOOTH",
"73 57 OFFCURVE",
"54 44 OFFCURVE",
"17 44 CURVE SMOOTH",
"-12 44 LINE",
"-21 0 LINE"
);
},
{
closed = 1;
nodes = (
"572 441 OFFCURVE",
"663 525 OFFCURVE",
"681 608 CURVE SMOOTH",
"694 673 OFFCURVE",
"665 709 OFFCURVE",
"620 709 CURVE SMOOTH",
"577 709 OFFCURVE",
"545 679 OFFCURVE",
"539 645 CURVE SMOOTH",
"530 603 OFFCURVE",
"567 585 OFFCURVE",
"558 541 CURVE SMOOTH",
"549 497 OFFCURVE",
"517 458 OFFCURVE",
"477 423 CURVE",
"499 397 LINE"
);
}
);
width = 665;
}
);
note = Lcaron;
rightKerningGroup = L;
unicode = 013D;
},
{
glyphname = Lcommaaccent;
lastChange = "2015-10-20 08:24:07 +0000";
layers = (
{
layerId = "E9D5AAFE-D5DF-4A4E-94FD-DD81026DC4E3";
name = "Bold Italic";
paths = (
{
closed = 1;
nodes = (
"588 0 LINE",
"651 214 LINE",
"605 214 LINE",
"589 172 OFFCURVE",
"540 62 OFFCURVE",
"474 62 CURVE SMOOTH",
"309 62 LINE SMOOTH",
"274 62 OFFCURVE",
"255 78 OFFCURVE",
"263 114 CURVE SMOOTH",
"366 617 LINE SMOOTH",
"371 643 OFFCURVE",
"390 656 OFFCURVE",
"426 656 CURVE SMOOTH",
"456 656 LINE",
"465 700 LINE",
"121 700 LINE",
"112 656 LINE",
"142 656 LINE SMOOTH",
"179 656 OFFCURVE",
"192 643 OFFCURVE",
"187 617 CURVE SMOOTH",
"78 83 LINE SMOOTH",
"73 57 OFFCURVE",
"54 44 OFFCURVE",
"17 44 CURVE SMOOTH",
"-12 44 LINE",
"-21 0 LINE"
);
},
{
closed = 1;
nodes = (
"225 -343 OFFCURVE",
"315 -260 OFFCURVE",
"332 -177 CURVE SMOOTH",
"346 -112 OFFCURVE",
"318 -75 OFFCURVE",
"273 -75 CURVE SMOOTH",
"229 -75 OFFCURVE",
"196 -105 OFFCURVE",
"189 -139 CURVE SMOOTH",
"180 -182 OFFCURVE",
"219 -199 OFFCURVE",
"210 -243 CURVE SMOOTH",
"201 -287 OFFCURVE",
"169 -326 OFFCURVE",
"130 -361 CURVE",
"151 -387 LINE"
);
}
);
width = 665;
}
);
note = Lcommaaccent;
rightKerningGroup = L;
unicode = 013B;
},
{
glyphname = Ldot;
lastChange = "2015-10-20 08:24:07 +0000";
layers = (
{
layerId = "E9D5AAFE-D5DF-4A4E-94FD-DD81026DC4E3";
name = "Bold Italic";
paths = (
{
closed = 1;
nodes = (
"588 0 LINE",
"651 214 LINE",
"605 214 LINE",
"589 172 OFFCURVE",
"540 62 OFFCURVE",
"474 62 CURVE SMOOTH",
"309 62 LINE SMOOTH",
"274 62 OFFCURVE",
"255 78 OFFCURVE",
"263 114 CURVE SMOOTH",
"366 617 LINE SMOOTH",
"371 643 OFFCURVE",
"390 656 OFFCURVE",
"426 656 CURVE SMOOTH",
"456 656 LINE",
"465 700 LINE",
"121 700 LINE",
"112 656 LINE",
"142 656 LINE SMOOTH",
"179 656 OFFCURVE",
"192 643 OFFCURVE",
"187 617 CURVE SMOOTH",
"78 83 LINE SMOOTH",
"73 57 OFFCURVE",
"54 44 OFFCURVE",
"17 44 CURVE SMOOTH",
"-12 44 LINE",
"-21 0 LINE"
);
},
{
closed = 1;
nodes = (
"530 318 OFFCURVE",
"563 349 OFFCURVE",
"570 388 CURVE SMOOTH",
"578 427 OFFCURVE",
"559 458 OFFCURVE",
"516 458 CURVE SMOOTH",
"475 458 OFFCURVE",
"444 427 OFFCURVE",
"436 388 CURVE SMOOTH",
"428 349 OFFCURVE",
"446 318 OFFCURVE",
"488 318 CURVE SMOOTH"
);
}
);
width = 665;
}
);
note = Ldot;
rightKerningGroup = L;
unicode = 013F;
},
{
glyphname = Ldotbelow;
lastChange = "2015-10-20 08:24:07 +0000";
layers = (
{
layerId = "E9D5AAFE-D5DF-4A4E-94FD-DD81026DC4E3";
name = "Bold Italic";
paths = (
{
closed = 1;
nodes = (
"588 0 LINE",
"651 214 LINE",
"605 214 LINE",
"589 172 OFFCURVE",
"540 62 OFFCURVE",
"474 62 CURVE SMOOTH",
"309 62 LINE SMOOTH",
"274 62 OFFCURVE",
"255 78 OFFCURVE",
"263 114 CURVE SMOOTH",
"366 617 LINE SMOOTH",
"371 643 OFFCURVE",
"390 656 OFFCURVE",
"426 656 CURVE SMOOTH",
"456 656 LINE",
"465 700 LINE",
"121 700 LINE",
"112 656 LINE",
"142 656 LINE SMOOTH",
"179 656 OFFCURVE",
"192 643 OFFCURVE",
"187 617 CURVE SMOOTH",
"78 83 LINE SMOOTH",
"73 57 OFFCURVE",
"54 44 OFFCURVE",
"17 44 CURVE SMOOTH",
"-12 44 LINE",
"-21 0 LINE"
);
},
{
closed = 1;
nodes = (
"298 -203 OFFCURVE",
"330 -173 OFFCURVE",
"338 -134 CURVE SMOOTH",
"346 -95 OFFCURVE",
"326 -63 OFFCURVE",
"285 -63 CURVE SMOOTH",
"244 -63 OFFCURVE",
"211 -95 OFFCURVE",
"204 -134 CURVE SMOOTH",
"196 -173 OFFCURVE",
"215 -203 OFFCURVE",
"256 -203 CURVE SMOOTH"
);
}
);
width = 665;
}
);
note = Ldotbelow;
rightKerningGroup = L;
unicode = 1E36;
},
{
glyphname = Ldotbelowmacron;
lastChange = "2015-10-20 08:24:08 +0000";
layers = (
{
layerId = "E9D5AAFE-D5DF-4A4E-94FD-DD81026DC4E3";
name = "Bold Italic";
paths = (
{
closed = 1;
nodes = (
"588 0 LINE",
"651 214 LINE",
"605 214 LINE",
"589 172 OFFCURVE",
"540 62 OFFCURVE",
"474 62 CURVE SMOOTH",
"309 62 LINE SMOOTH",
"274 62 OFFCURVE",
"255 78 OFFCURVE",
"263 114 CURVE SMOOTH",
"366 617 LINE SMOOTH",
"371 643 OFFCURVE",
"390 656 OFFCURVE",
"426 656 CURVE SMOOTH",
"456 656 LINE",
"465 700 LINE",
"121 700 LINE",
"112 656 LINE",
"142 656 LINE SMOOTH",
"179 656 OFFCURVE",
"192 643 OFFCURVE",
"187 617 CURVE SMOOTH",
"78 83 LINE SMOOTH",
"73 57 OFFCURVE",
"54 44 OFFCURVE",
"17 44 CURVE SMOOTH",
"-12 44 LINE",
"-21 0 LINE"
);
},
{
closed = 1;
nodes = (
"298 -203 OFFCURVE",
"330 -173 OFFCURVE",
"338 -134 CURVE SMOOTH",
"346 -95 OFFCURVE",
"326 -63 OFFCURVE",
"285 -63 CURVE SMOOTH",
"244 -63 OFFCURVE",
"211 -95 OFFCURVE",
"204 -134 CURVE SMOOTH",
"196 -173 OFFCURVE",
"215 -203 OFFCURVE",
"256 -203 CURVE SMOOTH"
);
},
{
closed = 1;
nodes = (
"528 775 LINE",
"542 844 LINE",
"148 844 LINE",
"133 775 LINE"
);
}
);
width = 665;
}
);
note = Ldotbelowmacron;
rightKerningGroup = L;
unicode = 1E38;
},
{
glyphname = Llinebelow;
lastChange = "2015-10-20 08:24:08 +0000";
layers = (
{
layerId = "E9D5AAFE-D5DF-4A4E-94FD-DD81026DC4E3";
name = "Bold Italic";
paths = (
{
closed = 1;
nodes = (
"588 0 LINE",
"651 214 LINE",
"605 214 LINE",
"589 172 OFFCURVE",
"540 62 OFFCURVE",
"474 62 CURVE SMOOTH",
"309 62 LINE SMOOTH",
"274 62 OFFCURVE",
"255 78 OFFCURVE",
"263 114 CURVE SMOOTH",
"366 617 LINE SMOOTH",
"371 643 OFFCURVE",
"390 656 OFFCURVE",
"426 656 CURVE SMOOTH",
"456 656 LINE",
"465 700 LINE",
"121 700 LINE",
"112 656 LINE",
"142 656 LINE SMOOTH",
"179 656 OFFCURVE",
"192 643 OFFCURVE",
"187 617 CURVE SMOOTH",
"78 83 LINE SMOOTH",
"73 57 OFFCURVE",
"54 44 OFFCURVE",
"17 44 CURVE SMOOTH",
"-12 44 LINE",
"-21 0 LINE"
);
},
{
closed = 1;
nodes = (
"450 -126 LINE",
"462 -66 LINE",
"69 -66 LINE",
"58 -126 LINE"
);
}
);
width = 665;
}
);
note = Llinebelow;
rightKerningGroup = L;
unicode = 1E3A;
},
{
glyphname = Lslash;
lastChange = "2015-10-20 08:24:07 +0000";
layers = (
{
layerId = "E9D5AAFE-D5DF-4A4E-94FD-DD81026DC4E3";
name = "Bold Italic";
paths = (
{
closed = 1;
nodes = (
"588 0 LINE",
"651 214 LINE",
"605 214 LINE",
"589 172 OFFCURVE",
"540 62 OFFCURVE",
"474 62 CURVE SMOOTH",
"309 62 LINE SMOOTH",
"274 62 OFFCURVE",
"255 78 OFFCURVE",
"263 114 CURVE SMOOTH",
"366 617 LINE SMOOTH",
"371 643 OFFCURVE",
"390 656 OFFCURVE",
"426 656 CURVE SMOOTH",
"456 656 LINE",
"465 700 LINE",
"121 700 LINE",
"112 656 LINE",
"142 656 LINE SMOOTH",
"179 656 OFFCURVE",
"192 643 OFFCURVE",
"187 617 CURVE SMOOTH",
"78 83 LINE SMOOTH",
"73 57 OFFCURVE",
"54 44 OFFCURVE",
"17 44 CURVE SMOOTH",
"-12 44 LINE",
"-21 0 LINE"
);
},
{
closed = 1;
nodes = (
"502 372 LINE",
"518 454 LINE",
"55 295 LINE",
"38 212 LINE"
);
}
);
width = 665;
}
);
note = Lslash;
rightKerningGroup = L;
unicode = 0141;
},
{
glyphname = M;
lastChange = "2015-10-20 08:24:08 +0000";
layers = (
{
layerId = "E9D5AAFE-D5DF-4A4E-94FD-DD81026DC4E3";
name = "Bold Italic";
paths = (
{
closed = 1;
nodes = (
"210 0 LINE",
"219 44 LINE",
"188 44 LINE SMOOTH",
"152 44 OFFCURVE",
"139 57 OFFCURVE",
"144 83 CURVE SMOOTH",
"240 552 LINE",
"337 74 LINE",
"443 74 LINE",
"742 555 LINE",
"646 83 LINE SMOOTH",
"641 57 OFFCURVE",
"622 44 OFFCURVE",
"586 44 CURVE SMOOTH",
"556 44 LINE",
"547 0 LINE",
"891 0 LINE",
"900 44 LINE",
"870 44 LINE SMOOTH",
"833 44 OFFCURVE",
"820 57 OFFCURVE",
"825 83 CURVE SMOOTH",
"934 617 LINE SMOOTH",
"939 643 OFFCURVE",
"958 656 OFFCURVE",
"995 656 CURVE SMOOTH",
"1024 656 LINE",
"1033 700 LINE",
"759 700 LINE",
"661 539 OFFCURVE",
"563 381 OFFCURVE",
"464 221 CURVE",
"370 700 LINE",
"115 700 LINE",
"107 656 LINE",
"137 656 LINE SMOOTH",
"174 656 OFFCURVE",
"187 643 OFFCURVE",
"182 617 CURVE SMOOTH",
"73 83 LINE SMOOTH",
"68 57 OFFCURVE",
"49 44 OFFCURVE",
"12 44 CURVE SMOOTH",
"-18 44 LINE",
"-27 0 LINE"
);
}
);
width = 942;
}
);
note = M;
unicode = 004D;
},
{
glyphname = Mdotbelow;
lastChange = "2015-10-20 08:24:08 +0000";
layers = (
{
layerId = "E9D5AAFE-D5DF-4A4E-94FD-DD81026DC4E3";
name = "Bold Italic";
paths = (
{
closed = 1;
nodes = (
"210 0 LINE",
"219 44 LINE",
"188 44 LINE SMOOTH",
"152 44 OFFCURVE",
"139 57 OFFCURVE",
"144 83 CURVE SMOOTH",
"240 552 LINE",
"337 74 LINE",
"443 74 LINE",
"742 555 LINE",
"646 83 LINE SMOOTH",
"641 57 OFFCURVE",
"622 44 OFFCURVE",
"586 44 CURVE SMOOTH",
"556 44 LINE",
"547 0 LINE",
"891 0 LINE",
"900 44 LINE",
"870 44 LINE SMOOTH",
"833 44 OFFCURVE",
"820 57 OFFCURVE",
"825 83 CURVE SMOOTH",
"934 617 LINE SMOOTH",
"939 643 OFFCURVE",
"958 656 OFFCURVE",
"995 656 CURVE SMOOTH",
"1024 656 LINE",
"1033 700 LINE",
"759 700 LINE",
"661 539 OFFCURVE",
"563 381 OFFCURVE",
"464 221 CURVE",
"370 700 LINE",
"115 700 LINE",
"107 656 LINE",
"137 656 LINE SMOOTH",
"174 656 OFFCURVE",
"187 643 OFFCURVE",
"182 617 CURVE SMOOTH",
"73 83 LINE SMOOTH",
"68 57 OFFCURVE",
"49 44 OFFCURVE",
"12 44 CURVE SMOOTH",
"-18 44 LINE",
"-27 0 LINE"
);
},
{
closed = 1;
nodes = (
"432 -205 OFFCURVE",
"465 -174 OFFCURVE",
"472 -135 CURVE SMOOTH",
"480 -96 OFFCURVE",
"461 -64 OFFCURVE",
"420 -64 CURVE SMOOTH",
"378 -64 OFFCURVE",
"346 -96 OFFCURVE",
"338 -135 CURVE SMOOTH",
"330 -174 OFFCURVE",
"349 -205 OFFCURVE",
"391 -205 CURVE SMOOTH"
);
}
);
width = 942;
}
);
note = Mdotbelow;
unicode = 1E42;
},
{
glyphname = N;
lastChange = "2015-10-20 08:24:07 +0000";
layers = (
{
layerId = "E9D5AAFE-D5DF-4A4E-94FD-DD81026DC4E3";
name = "Bold Italic";
paths = (
{
closed = 1;
nodes = (
"210 0 LINE",
"219 44 LINE",
"188 44 LINE SMOOTH",
"152 44 OFFCURVE",
"139 57 OFFCURVE",
"144 83 CURVE SMOOTH",
"249 593 LINE",
"538 0 LINE",
"629 0 LINE",
"755 617 LINE SMOOTH",
"759 643 OFFCURVE",
"778 656 OFFCURVE",
"814 656 CURVE SMOOTH",
"845 656 LINE",
"853 700 LINE",
"616 700 LINE",
"608 656 LINE",
"638 656 LINE SMOOTH",
"675 656 OFFCURVE",
"688 643 OFFCURVE",
"684 617 CURVE SMOOTH",
"604 226 LINE",
"371 700 LINE",
"115 700 LINE",
"107 656 LINE",
"137 656 LINE SMOOTH",
"174 656 OFFCURVE",
"187 643 OFFCURVE",
"182 617 CURVE SMOOTH",
"73 83 LINE SMOOTH",
"68 57 OFFCURVE",
"49 44 OFFCURVE",
"12 44 CURVE SMOOTH",
"-18 44 LINE",
"-27 0 LINE"
);
}
);
width = 761;
}
);
note = N;
unicode = 004E;
},
{
glyphname = Nacute;
lastChange = "2015-10-20 08:24:07 +0000";
layers = (
{
layerId = "E9D5AAFE-D5DF-4A4E-94FD-DD81026DC4E3";
name = "Bold Italic";
paths = (
{
closed = 1;
nodes = (
"210 0 LINE",
"219 44 LINE",
"188 44 LINE SMOOTH",
"152 44 OFFCURVE",
"139 57 OFFCURVE",
"144 83 CURVE SMOOTH",
"249 593 LINE",
"538 0 LINE",
"629 0 LINE",
"755 617 LINE SMOOTH",
"759 643 OFFCURVE",
"778 656 OFFCURVE",
"814 656 CURVE SMOOTH",
"845 656 LINE",
"853 700 LINE",
"616 700 LINE",
"608 656 LINE",
"638 656 LINE SMOOTH",
"675 656 OFFCURVE",
"688 643 OFFCURVE",
"684 617 CURVE SMOOTH",
"604 226 LINE",
"371 700 LINE",
"115 700 LINE",
"107 656 LINE",
"137 656 LINE SMOOTH",
"174 656 OFFCURVE",
"187 643 OFFCURVE",
"182 617 CURVE SMOOTH",
"73 83 LINE SMOOTH",
"68 57 OFFCURVE",
"49 44 OFFCURVE",
"12 44 CURVE SMOOTH",
"-18 44 LINE",
"-27 0 LINE"
);
},
{
closed = 1;
nodes = (
"619 872 LINE SMOOTH",
"658 893 OFFCURVE",
"682 914 OFFCURVE",
"687 941 CURVE",
"691 964 OFFCURVE",
"681 991 OFFCURVE",
"641 991 CURVE SMOOTH",
"606 991 OFFCURVE",
"573 960 OFFCURVE",
"565 952 CURVE",
"419 820 LINE",
"440 775 LINE"
);
}
);
width = 761;
}
);
note = Nacute;
unicode = 0143;
},
{
glyphname = Ncaron;
lastChange = "2015-10-20 08:24:08 +0000";
layers = (
{
layerId = "E9D5AAFE-D5DF-4A4E-94FD-DD81026DC4E3";
name = "Bold Italic";
paths = (
{
closed = 1;
nodes = (
"210 0 LINE",
"219 44 LINE",
"188 44 LINE SMOOTH",
"152 44 OFFCURVE",
"139 57 OFFCURVE",
"144 83 CURVE SMOOTH",
"249 593 LINE",
"538 0 LINE",
"629 0 LINE",
"755 617 LINE SMOOTH",
"759 643 OFFCURVE",
"778 656 OFFCURVE",
"814 656 CURVE SMOOTH",
"845 656 LINE",
"853 700 LINE",
"616 700 LINE",
"608 656 LINE",
"638 656 LINE SMOOTH",
"675 656 OFFCURVE",
"688 643 OFFCURVE",
"684 617 CURVE SMOOTH",
"604 226 LINE",
"371 700 LINE",
"115 700 LINE",
"107 656 LINE",
"137 656 LINE SMOOTH",
"174 656 OFFCURVE",
"187 643 OFFCURVE",
"182 617 CURVE SMOOTH",
"73 83 LINE SMOOTH",
"68 57 OFFCURVE",
"49 44 OFFCURVE",
"12 44 CURVE SMOOTH",
"-18 44 LINE",
"-27 0 LINE"
);
},
{
closed = 1;
nodes = (
"533 776 LINE",
"719 950 LINE",
"698 978 LINE",
"549 878 LINE",
"533 866 OFFCURVE",
"517 859 OFFCURVE",
"507 859 CURVE SMOOTH",
"496 859 OFFCURVE",
"485 866 OFFCURVE",
"472 878 CURVE SMOOTH",
"364 978 LINE",
"332 950 LINE",
"448 776 LINE"
);
}
);
width = 761;
}
);
note = Ncaron;
unicode = 0147;
},
{
glyphname = Ncommaaccent;
lastChange = "2015-10-20 08:24:07 +0000";
layers = (
{
layerId = "E9D5AAFE-D5DF-4A4E-94FD-DD81026DC4E3";
name = "Bold Italic";
paths = (
{
closed = 1;
nodes = (
"210 0 LINE",
"219 44 LINE",
"188 44 LINE SMOOTH",
"152 44 OFFCURVE",
"139 57 OFFCURVE",
"144 83 CURVE SMOOTH",
"249 593 LINE",
"538 0 LINE",
"629 0 LINE",
"755 617 LINE SMOOTH",
"759 643 OFFCURVE",
"778 656 OFFCURVE",
"814 656 CURVE SMOOTH",
"845 656 LINE",
"853 700 LINE",
"616 700 LINE",
"608 656 LINE",
"638 656 LINE SMOOTH",
"675 656 OFFCURVE",
"688 643 OFFCURVE",
"684 617 CURVE SMOOTH",
"604 226 LINE",
"371 700 LINE",
"115 700 LINE",
"107 656 LINE",
"137 656 LINE SMOOTH",
"174 656 OFFCURVE",
"187 643 OFFCURVE",
"182 617 CURVE SMOOTH",
"73 83 LINE SMOOTH",
"68 57 OFFCURVE",
"49 44 OFFCURVE",
"12 44 CURVE SMOOTH",
"-18 44 LINE",
"-27 0 LINE"
);
},
{
closed = 1;
nodes = (
"272 -343 OFFCURVE",
"362 -260 OFFCURVE",
"379 -177 CURVE SMOOTH",
"393 -112 OFFCURVE",
"365 -75 OFFCURVE",
"320 -75 CURVE SMOOTH",
"276 -75 OFFCURVE",
"243 -105 OFFCURVE",
"236 -139 CURVE SMOOTH",
"228 -182 OFFCURVE",
"266 -199 OFFCURVE",
"257 -243 CURVE SMOOTH",
"248 -287 OFFCURVE",
"216 -326 OFFCURVE",
"177 -361 CURVE",
"198 -387 LINE"
);
}
);
width = 761;
}
);
note = Ncommaaccent;
unicode = 0145;
},
{
glyphname = Ndotaccent;
lastChange = "2015-10-20 08:24:07 +0000";
layers = (
{
layerId = "E9D5AAFE-D5DF-4A4E-94FD-DD81026DC4E3";
name = "Bold Italic";
paths = (
{
closed = 1;
nodes = (
"210 0 LINE",
"219 44 LINE",
"188 44 LINE SMOOTH",
"152 44 OFFCURVE",
"139 57 OFFCURVE",
"144 83 CURVE SMOOTH",
"249 593 LINE",
"538 0 LINE",
"629 0 LINE",
"755 617 LINE SMOOTH",
"759 643 OFFCURVE",
"778 656 OFFCURVE",
"814 656 CURVE SMOOTH",
"845 656 LINE",
"853 700 LINE",
"616 700 LINE",
"608 656 LINE",
"638 656 LINE SMOOTH",
"675 656 OFFCURVE",
"688 643 OFFCURVE",
"684 617 CURVE SMOOTH",
"604 226 LINE",
"371 700 LINE",
"115 700 LINE",
"107 656 LINE",
"137 656 LINE SMOOTH",
"174 656 OFFCURVE",
"187 643 OFFCURVE",
"182 617 CURVE SMOOTH",
"73 83 LINE SMOOTH",
"68 57 OFFCURVE",
"49 44 OFFCURVE",
"12 44 CURVE SMOOTH",
"-18 44 LINE",
"-27 0 LINE"
);
},
{
closed = 1;
nodes = (
"540 773 OFFCURVE",
"571 803 OFFCURVE",
"580 842 CURVE SMOOTH",
"588 881 OFFCURVE",
"567 912 OFFCURVE",
"526 912 CURVE SMOOTH",
"485 912 OFFCURVE",
"454 881 OFFCURVE",
"446 842 CURVE SMOOTH",
"438 803 OFFCURVE",
"457 773 OFFCURVE",
"498 773 CURVE SMOOTH"
);
}
);
width = 761;
}
);
note = Ndotaccent;
unicode = 1E44;
},
{
glyphname = Ndotbelow;
lastChange = "2015-10-20 08:24:08 +0000";
layers = (
{
layerId = "E9D5AAFE-D5DF-4A4E-94FD-DD81026DC4E3";
name = "Bold Italic";
paths = (
{
closed = 1;
nodes = (
"210 0 LINE",
"219 44 LINE",
"188 44 LINE SMOOTH",
"152 44 OFFCURVE",
"139 57 OFFCURVE",
"144 83 CURVE SMOOTH",
"249 593 LINE",
"538 0 LINE",
"629 0 LINE",
"755 617 LINE SMOOTH",
"759 643 OFFCURVE",
"778 656 OFFCURVE",
"814 656 CURVE SMOOTH",
"845 656 LINE",
"853 700 LINE",
"616 700 LINE",
"608 656 LINE",
"638 656 LINE SMOOTH",
"675 656 OFFCURVE",
"688 643 OFFCURVE",
"684 617 CURVE SMOOTH",
"604 226 LINE",
"371 700 LINE",
"115 700 LINE",
"107 656 LINE",
"137 656 LINE SMOOTH",
"174 656 OFFCURVE",
"187 643 OFFCURVE",
"182 617 CURVE SMOOTH",
"73 83 LINE SMOOTH",
"68 57 OFFCURVE",
"49 44 OFFCURVE",
"12 44 CURVE SMOOTH",
"-18 44 LINE",
"-27 0 LINE"
);
},
{
closed = 1;
nodes = (
"344 -205 OFFCURVE",
"376 -174 OFFCURVE",
"384 -135 CURVE SMOOTH",
"392 -96 OFFCURVE",
"372 -64 OFFCURVE",
"331 -64 CURVE SMOOTH",
"290 -64 OFFCURVE",
"257 -96 OFFCURVE",
"250 -135 CURVE SMOOTH",
"242 -174 OFFCURVE",
"261 -205 OFFCURVE",
"302 -205 CURVE SMOOTH"
);
}
);
width = 771;
}
);
note = uni1E46;
unicode = 1E46;
},
{
glyphname = Eng;
lastChange = "2015-10-20 08:24:07 +0000";
layers = (
{
layerId = "E9D5AAFE-D5DF-4A4E-94FD-DD81026DC4E3";
name = "Bold Italic";
paths = (
{
closed = 1;
nodes = (
"446 -308 OFFCURVE",
"581 -232 OFFCURVE",
"616 -58 CURVE SMOOTH",
"755 617 LINE SMOOTH",
"759 643 OFFCURVE",
"778 656 OFFCURVE",
"814 656 CURVE SMOOTH",
"845 656 LINE",
"853 700 LINE",
"616 700 LINE",
"608 656 LINE",
"638 656 LINE SMOOTH",
"675 656 OFFCURVE",
"688 643 OFFCURVE",
"684 617 CURVE SMOOTH",
"604 226 LINE",
"371 700 LINE",
"115 700 LINE",
"107 656 LINE",
"137 656 LINE SMOOTH",
"174 656 OFFCURVE",
"187 643 OFFCURVE",
"182 617 CURVE SMOOTH",
"75 90 LINE SMOOTH",
"69 62 OFFCURVE",
"54 44 OFFCURVE",
"12 44 CURVE SMOOTH",
"-18 44 LINE",
"-27 0 LINE",
"210 0 LINE",
"219 44 LINE",
"188 44 LINE SMOOTH",
"152 44 OFFCURVE",
"139 57 OFFCURVE",
"144 83 CURVE SMOOTH",
"249 593 LINE",
"538 0 LINE",
"518 -92 LINE SMOOTH",
"497 -196 OFFCURVE",
"383 -275 OFFCURVE",
"280 -276 CURVE",
"278 -312 LINE"
);
}
);
width = 761;
}
);
note = Eng;
unicode = 014A;
},
{
glyphname = Nlinebelow;
lastChange = "2015-10-20 08:24:08 +0000";
layers = (
{
layerId = "E9D5AAFE-D5DF-4A4E-94FD-DD81026DC4E3";
name = "Bold Italic";
paths = (
{
closed = 1;
nodes = (
"210 0 LINE",
"219 44 LINE",
"188 44 LINE SMOOTH",
"152 44 OFFCURVE",
"139 57 OFFCURVE",
"144 83 CURVE SMOOTH",
"249 593 LINE",
"538 0 LINE",
"629 0 LINE",
"755 617 LINE SMOOTH",
"759 643 OFFCURVE",
"778 656 OFFCURVE",
"814 656 CURVE SMOOTH",
"845 656 LINE",
"853 700 LINE",
"616 700 LINE",
"608 656 LINE",
"638 656 LINE SMOOTH",
"675 656 OFFCURVE",
"688 643 OFFCURVE",
"684 617 CURVE SMOOTH",
"604 226 LINE",
"371 700 LINE",
"115 700 LINE",
"107 656 LINE",
"137 656 LINE SMOOTH",
"174 656 OFFCURVE",
"187 643 OFFCURVE",
"182 617 CURVE SMOOTH",
"73 83 LINE SMOOTH",
"68 57 OFFCURVE",
"49 44 OFFCURVE",
"12 44 CURVE SMOOTH",
"-18 44 LINE",
"-27 0 LINE"
);
},
{
closed = 1;
nodes = (
"513 -126 LINE",
"524 -66 LINE",
"132 -66 LINE",
"120 -126 LINE"
);
}
);
width = 761;
}
);
note = Nlinebelow;
unicode = 1E48;
},
{
glyphname = Ntilde;
lastChange = "2015-10-20 08:24:08 +0000";
layers = (
{
layerId = "E9D5AAFE-D5DF-4A4E-94FD-DD81026DC4E3";
name = "Bold Italic";
paths = (
{
closed = 1;
nodes = (
"210 0 LINE",
"219 44 LINE",
"188 44 LINE SMOOTH",
"152 44 OFFCURVE",
"139 57 OFFCURVE",
"144 83 CURVE SMOOTH",
"249 593 LINE",
"538 0 LINE",
"629 0 LINE",
"755 617 LINE SMOOTH",
"759 643 OFFCURVE",
"778 656 OFFCURVE",
"814 656 CURVE SMOOTH",
"845 656 LINE",
"853 700 LINE",
"616 700 LINE",
"608 656 LINE",
"638 656 LINE SMOOTH",
"675 656 OFFCURVE",
"688 643 OFFCURVE",
"684 617 CURVE SMOOTH",
"604 226 LINE",
"371 700 LINE",
"115 700 LINE",
"107 656 LINE",
"137 656 LINE SMOOTH",
"174 656 OFFCURVE",
"187 643 OFFCURVE",
"182 617 CURVE SMOOTH",
"73 83 LINE SMOOTH",
"68 57 OFFCURVE",
"49 44 OFFCURVE",
"12 44 CURVE SMOOTH",
"-18 44 LINE",
"-27 0 LINE"
);
},
{
closed = 1;
nodes = (
"370 812 OFFCURVE",
"390 829 OFFCURVE",
"425 829 CURVE SMOOTH",
"487 829 OFFCURVE",
"532 783 OFFCURVE",
"591 783 CURVE SMOOTH",
"667 783 OFFCURVE",
"716 859 OFFCURVE",
"742 905 CURVE",
"716 922 LINE",
"686 882 OFFCURVE",
"668 864 OFFCURVE",
"632 864 CURVE SMOOTH",
"571 864 OFFCURVE",
"526 910 OFFCURVE",
"467 910 CURVE SMOOTH",
"391 910 OFFCURVE",
"341 835 OFFCURVE",
"314 789 CURVE",
"342 772 LINE"
);
}
);
width = 761;
}
);
note = Ntilde;
unicode = 00D1;
},
{
glyphname = O;
lastChange = "2015-10-20 08:24:08 +0000";
layers = (
{
layerId = "E9D5AAFE-D5DF-4A4E-94FD-DD81026DC4E3";
name = "Bold Italic";
paths = (
{
closed = 1;
nodes = (
"608 -10 OFFCURVE",
"749 135 OFFCURVE",
"793 350 CURVE SMOOTH",
"836 564 OFFCURVE",
"755 710 OFFCURVE",
"500 710 CURVE SMOOTH",
"247 710 OFFCURVE",
"106 564 OFFCURVE",
"62 350 CURVE SMOOTH",
"18 135 OFFCURVE",
"100 -10 OFFCURVE",
"353 -10 CURVE SMOOTH"
);
},
{
closed = 1;
nodes = (
"249 56 OFFCURVE",
"205 164 OFFCURVE",
"244 350 CURVE SMOOTH",
"281 535 OFFCURVE",
"370 646 OFFCURVE",
"487 646 CURVE SMOOTH",
"606 646 OFFCURVE",
"649 535 OFFCURVE",
"612 350 CURVE SMOOTH",
"573 164 OFFCURVE",
"485 56 OFFCURVE",
"366 56 CURVE SMOOTH"
);
}
);
width = 790;
}
);
leftKerningGroup = O;
note = O;
rightKerningGroup = O;
unicode = 004F;
},
{
glyphname = Oacute;
lastChange = "2015-10-20 08:24:08 +0000";
layers = (
{
layerId = "E9D5AAFE-D5DF-4A4E-94FD-DD81026DC4E3";
name = "Bold Italic";
paths = (
{
closed = 1;
nodes = (
"608 -10 OFFCURVE",
"749 135 OFFCURVE",
"793 350 CURVE SMOOTH",
"836 564 OFFCURVE",
"755 710 OFFCURVE",
"500 710 CURVE SMOOTH",
"247 710 OFFCURVE",
"106 564 OFFCURVE",
"62 350 CURVE SMOOTH",
"18 135 OFFCURVE",
"100 -10 OFFCURVE",
"353 -10 CURVE SMOOTH"
);
},
{
closed = 1;
nodes = (
"249 56 OFFCURVE",
"205 164 OFFCURVE",
"244 350 CURVE SMOOTH",
"281 535 OFFCURVE",
"370 646 OFFCURVE",
"487 646 CURVE SMOOTH",
"606 646 OFFCURVE",
"649 535 OFFCURVE",
"612 350 CURVE SMOOTH",
"573 164 OFFCURVE",
"485 56 OFFCURVE",
"366 56 CURVE SMOOTH"
);
},
{
closed = 1;
nodes = (
"602 872 LINE SMOOTH",
"640 893 OFFCURVE",
"664 914 OFFCURVE",
"670 941 CURVE",
"674 964 OFFCURVE",
"663 991 OFFCURVE",
"624 991 CURVE SMOOTH",
"588 991 OFFCURVE",
"556 960 OFFCURVE",
"548 952 CURVE",
"401 820 LINE",
"422 775 LINE"
);
}
);
width = 790;
}
);
leftKerningGroup = O;
note = Oacute;
rightKerningGroup = O;
unicode = 00D3;
},
{
glyphname = Obreve;
lastChange = "2015-10-20 08:24:08 +0000";
layers = (
{
layerId = "E9D5AAFE-D5DF-4A4E-94FD-DD81026DC4E3";
name = "Bold Italic";
paths = (
{
closed = 1;
nodes = (
"608 -10 OFFCURVE",
"749 135 OFFCURVE",
"793 350 CURVE SMOOTH",
"836 564 OFFCURVE",
"755 710 OFFCURVE",
"500 710 CURVE SMOOTH",
"247 710 OFFCURVE",
"106 564 OFFCURVE",
"62 350 CURVE SMOOTH",
"18 135 OFFCURVE",
"100 -10 OFFCURVE",
"353 -10 CURVE SMOOTH"
);
},
{
closed = 1;
nodes = (
"249 56 OFFCURVE",
"205 164 OFFCURVE",
"244 350 CURVE SMOOTH",
"281 535 OFFCURVE",
"370 646 OFFCURVE",
"487 646 CURVE SMOOTH",
"606 646 OFFCURVE",
"649 535 OFFCURVE",
"612 350 CURVE SMOOTH",
"573 164 OFFCURVE",
"485 56 OFFCURVE",
"366 56 CURVE SMOOTH"
);
},
{
closed = 1;
nodes = (
"646 777 OFFCURVE",
"690 860 OFFCURVE",
"705 931 CURVE",
"663 931 LINE",
"655 900 OFFCURVE",
"623 852 OFFCURVE",
"529 852 CURVE SMOOTH",
"436 852 OFFCURVE",
"420 900 OFFCURVE",
"423 931 CURVE",
"383 931 LINE",
"369 855 OFFCURVE",
"381 777 OFFCURVE",
"514 777 CURVE SMOOTH"
);
}
);
width = 790;
}
);
leftKerningGroup = O;
note = Obreve;
rightKerningGroup = O;
unicode = 014E;
},
{
glyphname = Ocaron;
lastChange = "2015-10-20 08:24:07 +0000";
layers = (
{
layerId = "E9D5AAFE-D5DF-4A4E-94FD-DD81026DC4E3";
name = "Bold Italic";
paths = (
{
closed = 1;
nodes = (
"608 -10 OFFCURVE",
"749 135 OFFCURVE",
"793 350 CURVE SMOOTH",
"836 564 OFFCURVE",
"755 710 OFFCURVE",
"500 710 CURVE SMOOTH",
"247 710 OFFCURVE",
"106 564 OFFCURVE",
"62 350 CURVE SMOOTH",
"18 135 OFFCURVE",
"100 -10 OFFCURVE",
"353 -10 CURVE SMOOTH"
);
},
{
closed = 1;
nodes = (
"249 56 OFFCURVE",
"205 164 OFFCURVE",
"244 350 CURVE SMOOTH",
"281 535 OFFCURVE",
"370 646 OFFCURVE",
"487 646 CURVE SMOOTH",
"606 646 OFFCURVE",
"649 535 OFFCURVE",
"612 350 CURVE SMOOTH",
"573 164 OFFCURVE",
"485 56 OFFCURVE",
"366 56 CURVE SMOOTH"
);
},
{
closed = 1;
nodes = (
"556 776 LINE",
"742 950 LINE",
"721 978 LINE",
"572 878 LINE",
"556 866 OFFCURVE",
"540 859 OFFCURVE",
"530 859 CURVE SMOOTH",
"519 859 OFFCURVE",
"508 866 OFFCURVE",
"495 878 CURVE SMOOTH",
"387 978 LINE",
"355 950 LINE",
"471 776 LINE"
);
}
);
width = 790;
}
);
leftKerningGroup = O;
note = Ocaron;
rightKerningGroup = O;
unicode = 01D1;
},
{
glyphname = Ocircumflex;
lastChange = "2015-10-20 08:24:08 +0000";
layers = (
{
layerId = "E9D5AAFE-D5DF-4A4E-94FD-DD81026DC4E3";
name = "Bold Italic";
paths = (
{
closed = 1;
nodes = (
"608 -10 OFFCURVE",
"749 135 OFFCURVE",
"793 350 CURVE SMOOTH",
"836 564 OFFCURVE",
"755 710 OFFCURVE",
"500 710 CURVE SMOOTH",
"247 710 OFFCURVE",
"106 564 OFFCURVE",
"62 350 CURVE SMOOTH",
"18 135 OFFCURVE",
"100 -10 OFFCURVE",
"353 -10 CURVE SMOOTH"
);
},
{
closed = 1;
nodes = (
"249 56 OFFCURVE",
"205 164 OFFCURVE",
"244 350 CURVE SMOOTH",
"281 535 OFFCURVE",
"370 646 OFFCURVE",
"487 646 CURVE SMOOTH",
"606 646 OFFCURVE",
"649 535 OFFCURVE",
"612 350 CURVE SMOOTH",
"573 164 OFFCURVE",
"485 56 OFFCURVE",
"366 56 CURVE SMOOTH"
);
},
{
closed = 1;
nodes = (
"495 876 LINE",
"512 888 OFFCURVE",
"527 895 OFFCURVE",
"538 895 CURVE SMOOTH",
"548 895 OFFCURVE",
"560 888 OFFCURVE",
"572 876 CURVE SMOOTH",
"681 776 LINE",
"712 804 LINE",
"596 978 LINE",
"512 978 LINE",
"325 804 LINE",
"347 776 LINE"
);
}
);
width = 790;
}
);
leftKerningGroup = O;
note = Ocircumflex;
rightKerningGroup = O;
unicode = 00D4;
},
{
glyphname = Ocircumflexacute;
lastChange = "2015-10-20 08:24:08 +0000";
layers = (
{
layerId = "E9D5AAFE-D5DF-4A4E-94FD-DD81026DC4E3";
name = "Bold Italic";
paths = (
{
closed = 1;
nodes = (
"608 -10 OFFCURVE",
"749 135 OFFCURVE",
"793 350 CURVE SMOOTH",
"836 564 OFFCURVE",
"755 710 OFFCURVE",
"500 710 CURVE SMOOTH",
"247 710 OFFCURVE",
"106 564 OFFCURVE",
"62 350 CURVE SMOOTH",
"18 135 OFFCURVE",
"100 -10 OFFCURVE",
"353 -10 CURVE SMOOTH"
);
},
{
closed = 1;
nodes = (
"249 56 OFFCURVE",
"205 164 OFFCURVE",
"244 350 CURVE SMOOTH",
"281 535 OFFCURVE",
"370 646 OFFCURVE",
"487 646 CURVE SMOOTH",
"606 646 OFFCURVE",
"649 535 OFFCURVE",
"612 350 CURVE SMOOTH",
"573 164 OFFCURVE",
"485 56 OFFCURVE",
"366 56 CURVE SMOOTH"
);
},
{
closed = 1;
nodes = (
"495 872 LINE SMOOTH",
"513 884 OFFCURVE",
"528 893 OFFCURVE",
"539 893 CURVE SMOOTH",
"549 893 OFFCURVE",
"561 884 OFFCURVE",
"572 872 CURVE",
"675 774 LINE",
"705 803 LINE",
"597 977 LINE",
"513 977 LINE",
"333 803 LINE",
"351 774 LINE"
);
},
{
closed = 1;
nodes = (
"803 968 LINE SMOOTH",
"841 986 OFFCURVE",
"876 1012 OFFCURVE",
"882 1041 CURVE SMOOTH",
"887 1065 OFFCURVE",
"875 1094 OFFCURVE",
"837 1094 CURVE SMOOTH",
"804 1094 OFFCURVE",
"772 1065 OFFCURVE",
"754 1046 CURVE SMOOTH",
"661 952 LINE",
"682 913 LINE"
);
}
);
width = 790;
}
);
leftKerningGroup = O;
note = Ocircumflexacute;
rightKerningGroup = O;
unicode = 1ED0;
},
{
glyphname = Ocircumflexdotbelow;
lastChange = "2015-10-20 08:24:08 +0000";
layers = (
{
layerId = "E9D5AAFE-D5DF-4A4E-94FD-DD81026DC4E3";
name = "Bold Italic";
paths = (
{
closed = 1;
nodes = (
"608 -10 OFFCURVE",
"749 135 OFFCURVE",
"793 350 CURVE SMOOTH",
"836 564 OFFCURVE",
"755 710 OFFCURVE",
"500 710 CURVE SMOOTH",
"247 710 OFFCURVE",
"106 564 OFFCURVE",
"62 350 CURVE SMOOTH",
"18 135 OFFCURVE",
"100 -10 OFFCURVE",
"353 -10 CURVE SMOOTH"
);
},
{
closed = 1;
nodes = (
"338 -205 OFFCURVE",
"371 -174 OFFCURVE",
"378 -135 CURVE SMOOTH",
"386 -96 OFFCURVE",
"367 -64 OFFCURVE",
"325 -64 CURVE SMOOTH",
"284 -64 OFFCURVE",
"252 -96 OFFCURVE",
"244 -135 CURVE SMOOTH",
"236 -174 OFFCURVE",
"255 -205 OFFCURVE",
"297 -205 CURVE SMOOTH"
);
},
{
closed = 1;
nodes = (
"249 56 OFFCURVE",
"205 164 OFFCURVE",
"244 350 CURVE SMOOTH",
"281 535 OFFCURVE",
"370 646 OFFCURVE",
"487 646 CURVE SMOOTH",
"606 646 OFFCURVE",
"649 535 OFFCURVE",
"612 350 CURVE SMOOTH",
"573 164 OFFCURVE",
"485 56 OFFCURVE",
"366 56 CURVE SMOOTH"
);
},
{
closed = 1;
nodes = (
"495 876 LINE",
"512 888 OFFCURVE",
"527 895 OFFCURVE",
"538 895 CURVE SMOOTH",
"548 895 OFFCURVE",
"560 888 OFFCURVE",
"572 876 CURVE SMOOTH",
"681 776 LINE",
"712 804 LINE",
"596 978 LINE",
"512 978 LINE",
"325 804 LINE",
"347 776 LINE"
);
}
);
width = 790;
}
);
leftKerningGroup = O;
note = Ocircumflexdotbelow;
rightKerningGroup = O;
unicode = 1ED8;
},
{
glyphname = Ocircumflexgrave;
lastChange = "2015-10-20 08:24:08 +0000";
layers = (
{
layerId = "E9D5AAFE-D5DF-4A4E-94FD-DD81026DC4E3";
name = "Bold Italic";
paths = (
{
closed = 1;
nodes = (
"608 -10 OFFCURVE",
"749 135 OFFCURVE",
"793 350 CURVE SMOOTH",
"836 564 OFFCURVE",
"755 710 OFFCURVE",
"500 710 CURVE SMOOTH",
"247 710 OFFCURVE",
"106 564 OFFCURVE",
"62 350 CURVE SMOOTH",
"18 135 OFFCURVE",
"100 -10 OFFCURVE",
"353 -10 CURVE SMOOTH"
);
},
{
closed = 1;
nodes = (
"249 56 OFFCURVE",
"205 164 OFFCURVE",
"244 350 CURVE SMOOTH",
"281 535 OFFCURVE",
"370 646 OFFCURVE",
"487 646 CURVE SMOOTH",
"606 646 OFFCURVE",
"649 535 OFFCURVE",
"612 350 CURVE SMOOTH",
"573 164 OFFCURVE",
"485 56 OFFCURVE",
"366 56 CURVE SMOOTH"
);
},
{
closed = 1;
nodes = (
"440 952 LINE",
"381 1050 LINE SMOOTH",
"372 1067 OFFCURVE",
"353 1095 OFFCURVE",
"322 1095 CURVE SMOOTH",
"281 1095 OFFCURVE",
"259 1063 OFFCURVE",
"254 1042 CURVE",
"250 1015 OFFCURVE",
"267 991 OFFCURVE",
"300 972 CURVE SMOOTH",
"403 913 LINE"
);
},
{
closed = 1;
nodes = (
"495 872 LINE SMOOTH",
"513 884 OFFCURVE",
"528 893 OFFCURVE",
"539 893 CURVE SMOOTH",
"549 893 OFFCURVE",
"561 884 OFFCURVE",
"572 872 CURVE",
"675 774 LINE",
"705 803 LINE",
"597 977 LINE",
"513 977 LINE",
"333 803 LINE",
"351 774 LINE"
);
}
);
width = 790;
}
);
leftKerningGroup = O;
note = Ocircumflexgrave;
rightKerningGroup = O;
unicode = 1ED2;
},
{
glyphname = Ocircumflexhookabove;
lastChange = "2015-10-20 08:24:07 +0000";
layers = (
{
layerId = "E9D5AAFE-D5DF-4A4E-94FD-DD81026DC4E3";
name = "Bold Italic";
paths = (
{
closed = 1;
nodes = (
"608 -10 OFFCURVE",
"749 135 OFFCURVE",
"793 350 CURVE SMOOTH",
"836 564 OFFCURVE",
"755 710 OFFCURVE",
"500 710 CURVE SMOOTH",
"247 710 OFFCURVE",
"106 564 OFFCURVE",
"62 350 CURVE SMOOTH",
"18 135 OFFCURVE",
"100 -10 OFFCURVE",
"353 -10 CURVE SMOOTH"
);
},
{
closed = 1;
nodes = (
"249 56 OFFCURVE",
"205 164 OFFCURVE",
"244 350 CURVE SMOOTH",
"281 535 OFFCURVE",
"370 646 OFFCURVE",
"487 646 CURVE SMOOTH",
"606 646 OFFCURVE",
"649 535 OFFCURVE",
"612 350 CURVE SMOOTH",
"573 164 OFFCURVE",
"485 56 OFFCURVE",
"366 56 CURVE SMOOTH"
);
},
{
closed = 1;
nodes = (
"495 873 LINE SMOOTH",
"513 885 OFFCURVE",
"528 894 OFFCURVE",
"539 894 CURVE SMOOTH",
"549 894 OFFCURVE",
"561 885 OFFCURVE",
"572 873 CURVE",
"675 775 LINE",
"705 804 LINE",
"597 978 LINE",
"513 978 LINE",
"333 804 LINE",
"351 775 LINE"
);
},
{
closed = 1;
nodes = (
"744 936 LINE",
"732 938 OFFCURVE",
"720 941 OFFCURVE",
"724 960 CURVE SMOOTH",
"732 1000 OFFCURVE",
"829 1007 OFFCURVE",
"841 1065 CURVE SMOOTH",
"850 1109 OFFCURVE",
"806 1130 OFFCURVE",
"755 1130 CURVE SMOOTH",
"686 1130 OFFCURVE",
"653 1099 OFFCURVE",
"648 1076 CURVE SMOOTH",
"644 1055 OFFCURVE",
"658 1045 OFFCURVE",
"672 1045 CURVE SMOOTH",
"711 1045 OFFCURVE",
"706 1101 OFFCURVE",
"749 1101 CURVE SMOOTH",
"768 1101 OFFCURVE",
"773 1085 OFFCURVE",
"770 1072 CURVE SMOOTH",
"759 1018 OFFCURVE",
"678 1007 OFFCURVE",
"668 961 CURVE SMOOTH",
"662 931 OFFCURVE",
"690 914 OFFCURVE",
"732 914 CURVE"
);
}
);
width = 790;
}
);
leftKerningGroup = O;
note = Ocircumflexhookabove;
rightKerningGroup = O;
unicode = 1ED4;
},
{
glyphname = Ocircumflextilde;
lastChange = "2015-10-20 08:24:08 +0000";
layers = (
{
layerId = "E9D5AAFE-D5DF-4A4E-94FD-DD81026DC4E3";
name = "Bold Italic";
paths = (
{
closed = 1;
nodes = (
"608 -10 OFFCURVE",
"749 135 OFFCURVE",
"793 350 CURVE SMOOTH",
"836 564 OFFCURVE",
"755 710 OFFCURVE",
"500 710 CURVE SMOOTH",
"247 710 OFFCURVE",
"106 564 OFFCURVE",
"62 350 CURVE SMOOTH",
"18 135 OFFCURVE",
"100 -10 OFFCURVE",
"353 -10 CURVE SMOOTH"
);
},
{
closed = 1;
nodes = (
"249 56 OFFCURVE",
"205 164 OFFCURVE",
"244 350 CURVE SMOOTH",
"281 535 OFFCURVE",
"370 646 OFFCURVE",
"487 646 CURVE SMOOTH",
"606 646 OFFCURVE",
"649 535 OFFCURVE",
"612 350 CURVE SMOOTH",
"573 164 OFFCURVE",
"485 56 OFFCURVE",
"366 56 CURVE SMOOTH"
);
},
{
closed = 1;
nodes = (
"495 873 LINE SMOOTH",
"513 885 OFFCURVE",
"528 894 OFFCURVE",
"539 894 CURVE SMOOTH",
"549 894 OFFCURVE",
"561 885 OFFCURVE",
"572 873 CURVE",
"675 775 LINE",
"705 804 LINE",
"597 978 LINE",
"513 978 LINE",
"333 804 LINE",
"351 775 LINE"
);
},
{
closed = 1;
nodes = (
"427 1033 OFFCURVE",
"446 1051 OFFCURVE",
"479 1051 CURVE SMOOTH",
"535 1051 OFFCURVE",
"575 1005 OFFCURVE",
"629 1005 CURVE SMOOTH",
"696 1005 OFFCURVE",
"743 1081 OFFCURVE",
"768 1126 CURVE",
"744 1144 LINE",
"717 1103 OFFCURVE",
"700 1086 OFFCURVE",
"666 1086 CURVE SMOOTH",
"612 1086 OFFCURVE",
"571 1131 OFFCURVE",
"517 1131 CURVE SMOOTH",
"448 1131 OFFCURVE",
"402 1056 OFFCURVE",
"377 1011 CURVE",
"402 993 LINE"
);
}
);
width = 790;
}
);
leftKerningGroup = O;
note = Ocircumflextilde;
rightKerningGroup = O;
unicode = 1ED6;
},
{
glyphname = Odieresis;
lastChange = "2015-10-20 08:24:07 +0000";
layers = (
{
layerId = "E9D5AAFE-D5DF-4A4E-94FD-DD81026DC4E3";
name = "Bold Italic";
paths = (
{
closed = 1;
nodes = (
"608 -10 OFFCURVE",
"749 135 OFFCURVE",
"793 350 CURVE SMOOTH",
"836 564 OFFCURVE",
"755 710 OFFCURVE",
"500 710 CURVE SMOOTH",
"247 710 OFFCURVE",
"106 564 OFFCURVE",
"62 350 CURVE SMOOTH",
"18 135 OFFCURVE",
"100 -10 OFFCURVE",
"353 -10 CURVE SMOOTH"
);
},
{
closed = 1;
nodes = (
"249 56 OFFCURVE",
"205 164 OFFCURVE",
"244 350 CURVE SMOOTH",
"281 535 OFFCURVE",
"370 646 OFFCURVE",
"487 646 CURVE SMOOTH",
"606 646 OFFCURVE",
"649 535 OFFCURVE",
"612 350 CURVE SMOOTH",
"573 164 OFFCURVE",
"485 56 OFFCURVE",
"366 56 CURVE SMOOTH"
);
},
{
closed = 1;
nodes = (
"439 776 OFFCURVE",
"470 806 OFFCURVE",
"478 845 CURVE SMOOTH",
"487 885 OFFCURVE",
"467 916 OFFCURVE",
"424 916 CURVE SMOOTH",
"384 916 OFFCURVE",
"353 885 OFFCURVE",
"345 845 CURVE SMOOTH",
"337 806 OFFCURVE",
"356 776 OFFCURVE",
"396 776 CURVE SMOOTH"
);
},
{
closed = 1;
nodes = (
"671 776 OFFCURVE",
"703 806 OFFCURVE",
"710 845 CURVE SMOOTH",
"719 885 OFFCURVE",
"699 916 OFFCURVE",
"658 916 CURVE SMOOTH",
"614 916 OFFCURVE",
"584 885 OFFCURVE",
"575 845 CURVE SMOOTH",
"567 806 OFFCURVE",
"587 776 OFFCURVE",
"630 776 CURVE SMOOTH"
);
}
);
width = 790;
}
);
leftKerningGroup = O;
note = Odieresis;
rightKerningGroup = O;
unicode = 00D6;
},
{
glyphname = Odotbelow;
lastChange = "2015-10-20 08:24:08 +0000";
layers = (
{
layerId = "E9D5AAFE-D5DF-4A4E-94FD-DD81026DC4E3";
name = "Bold Italic";
paths = (
{
closed = 1;
nodes = (
"608 -10 OFFCURVE",
"749 135 OFFCURVE",
"793 350 CURVE SMOOTH",
"836 564 OFFCURVE",
"755 710 OFFCURVE",
"500 710 CURVE SMOOTH",
"247 710 OFFCURVE",
"106 564 OFFCURVE",
"62 350 CURVE SMOOTH",
"18 135 OFFCURVE",
"100 -10 OFFCURVE",
"353 -10 CURVE SMOOTH"
);
},
{
closed = 1;
nodes = (
"356 -205 OFFCURVE",
"389 -174 OFFCURVE",
"396 -135 CURVE SMOOTH",
"404 -96 OFFCURVE",
"385 -64 OFFCURVE",
"344 -64 CURVE SMOOTH",
"302 -64 OFFCURVE",
"270 -96 OFFCURVE",
"262 -135 CURVE SMOOTH",
"254 -174 OFFCURVE",
"274 -205 OFFCURVE",
"315 -205 CURVE SMOOTH"
);
},
{
closed = 1;
nodes = (
"249 56 OFFCURVE",
"205 164 OFFCURVE",
"244 350 CURVE SMOOTH",
"281 535 OFFCURVE",
"370 646 OFFCURVE",
"487 646 CURVE SMOOTH",
"606 646 OFFCURVE",
"649 535 OFFCURVE",
"612 350 CURVE SMOOTH",
"573 164 OFFCURVE",
"485 56 OFFCURVE",
"366 56 CURVE SMOOTH"
);
}
);
width = 790;
}
);
leftKerningGroup = O;
note = Odotbelow;
rightKerningGroup = O;
unicode = 1ECC;
},
{
glyphname = Ograve;
lastChange = "2015-10-20 08:24:08 +0000";
layers = (
{
layerId = "E9D5AAFE-D5DF-4A4E-94FD-DD81026DC4E3";
name = "Bold Italic";
paths = (
{
closed = 1;
nodes = (
"608 -10 OFFCURVE",
"749 135 OFFCURVE",
"793 350 CURVE SMOOTH",
"836 564 OFFCURVE",
"755 710 OFFCURVE",
"500 710 CURVE SMOOTH",
"247 710 OFFCURVE",
"106 564 OFFCURVE",
"62 350 CURVE SMOOTH",
"18 135 OFFCURVE",
"100 -10 OFFCURVE",
"353 -10 CURVE SMOOTH"
);
},
{
closed = 1;
nodes = (
"249 56 OFFCURVE",
"205 164 OFFCURVE",
"244 350 CURVE SMOOTH",
"281 535 OFFCURVE",
"370 646 OFFCURVE",
"487 646 CURVE SMOOTH",
"606 646 OFFCURVE",
"649 535 OFFCURVE",
"612 350 CURVE SMOOTH",
"573 164 OFFCURVE",
"485 56 OFFCURVE",
"366 56 CURVE SMOOTH"
);
},
{
closed = 1;
nodes = (
"642 820 LINE",
"550 952 LINE",
"545 960 OFFCURVE",
"524 991 OFFCURVE",
"489 991 CURVE SMOOTH",
"448 991 OFFCURVE",
"427 964 OFFCURVE",
"423 942 CURVE SMOOTH",
"418 914 OFFCURVE",
"432 893 OFFCURVE",
"462 872 CURVE SMOOTH",
"602 775 LINE"
);
}
);
width = 790;
}
);
leftKerningGroup = O;
note = Ograve;
rightKerningGroup = O;
unicode = 00D2;
},
{
glyphname = Ohookabove;
lastChange = "2015-10-20 08:24:08 +0000";
layers = (
{
layerId = "E9D5AAFE-D5DF-4A4E-94FD-DD81026DC4E3";
name = "Bold Italic";
paths = (
{
closed = 1;
nodes = (
"608 -10 OFFCURVE",
"749 135 OFFCURVE",
"793 350 CURVE SMOOTH",
"836 564 OFFCURVE",
"755 710 OFFCURVE",
"500 710 CURVE SMOOTH",
"247 710 OFFCURVE",
"106 564 OFFCURVE",
"62 350 CURVE SMOOTH",
"18 135 OFFCURVE",
"100 -10 OFFCURVE",
"353 -10 CURVE SMOOTH"
);
},
{
closed = 1;
nodes = (
"249 56 OFFCURVE",
"205 164 OFFCURVE",
"244 350 CURVE SMOOTH",
"281 535 OFFCURVE",
"370 646 OFFCURVE",
"487 646 CURVE SMOOTH",
"606 646 OFFCURVE",
"649 535 OFFCURVE",
"612 350 CURVE SMOOTH",
"573 164 OFFCURVE",
"485 56 OFFCURVE",
"366 56 CURVE SMOOTH"
);
},
{
closed = 1;
nodes = (
"550 801 LINE",
"537 803 OFFCURVE",
"522 807 OFFCURVE",
"527 828 CURVE SMOOTH",
"537 874 OFFCURVE",
"647 882 OFFCURVE",
"661 950 CURVE SMOOTH",
"672 1001 OFFCURVE",
"625 1026 OFFCURVE",
"564 1026 CURVE SMOOTH",
"482 1026 OFFCURVE",
"445 989 OFFCURVE",
"440 962 CURVE SMOOTH",
"435 937 OFFCURVE",
"450 926 OFFCURVE",
"468 926 CURVE SMOOTH",
"489 926 OFFCURVE",
"505 941 OFFCURVE",
"509 957 CURVE SMOOTH",
"516 984 OFFCURVE",
"540 991 OFFCURVE",
"556 991 CURVE SMOOTH",
"577 991 OFFCURVE",
"585 974 OFFCURVE",
"581 957 CURVE SMOOTH",
"568 895 OFFCURVE",
"474 883 OFFCURVE",
"464 830 CURVE SMOOTH",
"457 796 OFFCURVE",
"490 776 OFFCURVE",
"537 776 CURVE"
);
}
);
width = 790;
}
);
leftKerningGroup = O;
note = Ohookabove;
rightKerningGroup = O;
unicode = 1ECE;
},
{
glyphname = Ohorn;
lastChange = "2015-10-20 08:24:08 +0000";
layers = (
{
layerId = "E9D5AAFE-D5DF-4A4E-94FD-DD81026DC4E3";
name = "Bold Italic";
paths = (
{
closed = 1;
nodes = (
"612 -10 OFFCURVE",
"753 135 OFFCURVE",
"797 350 CURVE SMOOTH",
"840 564 OFFCURVE",
"758 710 OFFCURVE",
"504 710 CURVE SMOOTH",
"251 710 OFFCURVE",
"109 564 OFFCURVE",
"66 350 CURVE SMOOTH",
"22 135 OFFCURVE",
"104 -10 OFFCURVE",
"357 -10 CURVE SMOOTH"
);
},
{
closed = 1;
nodes = (
"252 56 OFFCURVE",
"209 164 OFFCURVE",
"248 350 CURVE SMOOTH",
"285 535 OFFCURVE",
"373 646 OFFCURVE",
"491 646 CURVE SMOOTH",
"610 646 OFFCURVE",
"653 535 OFFCURVE",
"615 350 CURVE SMOOTH",
"577 164 OFFCURVE",
"489 56 OFFCURVE",
"370 56 CURVE SMOOTH"
);
},
{
closed = 1;
nodes = (
"825 524 OFFCURVE",
"951 609 OFFCURVE",
"973 715 CURVE SMOOTH",
"987 780 OFFCURVE",
"957 816 OFFCURVE",
"912 816 CURVE SMOOTH",
"869 816 OFFCURVE",
"837 786 OFFCURVE",
"830 753 CURVE SMOOTH",
"822 710 OFFCURVE",
"859 692 OFFCURVE",
"851 649 CURVE SMOOTH",
"841 605 OFFCURVE",
"804 572 OFFCURVE",
"748 545 CURVE",
"740 508 LINE"
);
}
);
width = 808;
}
);
leftKerningGroup = O;
note = Ohorn;
rightKerningGroup = O;
unicode = 01A0;
},
{
glyphname = Ohornacute;
lastChange = "2015-10-20 08:24:08 +0000";
layers = (
{
layerId = "E9D5AAFE-D5DF-4A4E-94FD-DD81026DC4E3";
name = "Bold Italic";
paths = (
{
closed = 1;
nodes = (
"612 -10 OFFCURVE",
"753 135 OFFCURVE",
"797 350 CURVE SMOOTH",
"840 564 OFFCURVE",
"758 710 OFFCURVE",
"504 710 CURVE SMOOTH",
"251 710 OFFCURVE",
"109 564 OFFCURVE",
"66 350 CURVE SMOOTH",
"22 135 OFFCURVE",
"104 -10 OFFCURVE",
"357 -10 CURVE SMOOTH"
);
},
{
closed = 1;
nodes = (
"252 56 OFFCURVE",
"209 164 OFFCURVE",
"248 350 CURVE SMOOTH",
"285 535 OFFCURVE",
"373 646 OFFCURVE",
"491 646 CURVE SMOOTH",
"610 646 OFFCURVE",
"653 535 OFFCURVE",
"615 350 CURVE SMOOTH",
"577 164 OFFCURVE",
"489 56 OFFCURVE",
"370 56 CURVE SMOOTH"
);
},
{
closed = 1;
nodes = (
"593 871 LINE SMOOTH",
"632 892 OFFCURVE",
"656 913 OFFCURVE",
"661 940 CURVE",
"665 963 OFFCURVE",
"655 990 OFFCURVE",
"615 990 CURVE SMOOTH",
"580 990 OFFCURVE",
"547 959 OFFCURVE",
"540 951 CURVE",
"393 819 LINE",
"414 774 LINE"
);
},
{
closed = 1;
nodes = (
"818 520 OFFCURVE",
"945 605 OFFCURVE",
"967 711 CURVE SMOOTH",
"980 776 OFFCURVE",
"950 812 OFFCURVE",
"905 812 CURVE SMOOTH",
"862 812 OFFCURVE",
"830 782 OFFCURVE",
"824 749 CURVE SMOOTH",
"815 706 OFFCURVE",
"852 688 OFFCURVE",
"844 645 CURVE SMOOTH",
"834 601 OFFCURVE",
"798 568 OFFCURVE",
"741 541 CURVE",
"733 504 LINE"
);
}
);
width = 808;
}
);
leftKerningGroup = O;
note = Ohornacute;
rightKerningGroup = O;
unicode = 1EDA;
},
{
glyphname = Ohorndotbelow;
lastChange = "2015-10-20 08:24:08 +0000";
layers = (
{
layerId = "E9D5AAFE-D5DF-4A4E-94FD-DD81026DC4E3";
name = "Bold Italic";
paths = (
{
closed = 1;
nodes = (
"612 -10 OFFCURVE",
"753 135 OFFCURVE",
"797 350 CURVE SMOOTH",
"840 564 OFFCURVE",
"758 710 OFFCURVE",
"504 710 CURVE SMOOTH",
"251 710 OFFCURVE",
"109 564 OFFCURVE",
"66 350 CURVE SMOOTH",
"22 135 OFFCURVE",
"104 -10 OFFCURVE",
"357 -10 CURVE SMOOTH"
);
},
{
closed = 1;
nodes = (
"363 -205 OFFCURVE",
"396 -174 OFFCURVE",
"403 -135 CURVE SMOOTH",
"411 -96 OFFCURVE",
"392 -64 OFFCURVE",
"350 -64 CURVE SMOOTH",
"309 -64 OFFCURVE",
"276 -96 OFFCURVE",
"269 -135 CURVE SMOOTH",
"261 -174 OFFCURVE",
"280 -205 OFFCURVE",
"322 -205 CURVE SMOOTH"
);
},
{
closed = 1;
nodes = (
"252 56 OFFCURVE",
"209 164 OFFCURVE",
"248 350 CURVE SMOOTH",
"285 535 OFFCURVE",
"373 646 OFFCURVE",
"491 646 CURVE SMOOTH",
"610 646 OFFCURVE",
"653 535 OFFCURVE",
"615 350 CURVE SMOOTH",
"577 164 OFFCURVE",
"489 56 OFFCURVE",
"370 56 CURVE SMOOTH"
);
},
{
closed = 1;
nodes = (
"818 520 OFFCURVE",
"945 605 OFFCURVE",
"967 711 CURVE SMOOTH",
"980 776 OFFCURVE",
"950 812 OFFCURVE",
"905 812 CURVE SMOOTH",
"862 812 OFFCURVE",
"830 782 OFFCURVE",
"824 749 CURVE SMOOTH",
"815 706 OFFCURVE",
"852 688 OFFCURVE",
"844 645 CURVE SMOOTH",
"834 601 OFFCURVE",
"798 568 OFFCURVE",
"741 541 CURVE",
"733 504 LINE"
);
}
);
width = 808;
}
);
leftKerningGroup = O;
note = Ohorndotbelow;
rightKerningGroup = O;
unicode = 1EE2;
},
{
glyphname = Ohorngrave;
lastChange = "2015-10-20 08:24:08 +0000";
layers = (
{
layerId = "E9D5AAFE-D5DF-4A4E-94FD-DD81026DC4E3";
name = "Bold Italic";
paths = (
{
closed = 1;
nodes = (
"612 -10 OFFCURVE",
"753 135 OFFCURVE",
"797 350 CURVE SMOOTH",
"840 564 OFFCURVE",
"758 710 OFFCURVE",
"504 710 CURVE SMOOTH",
"251 710 OFFCURVE",
"109 564 OFFCURVE",
"66 350 CURVE SMOOTH",
"22 135 OFFCURVE",
"104 -10 OFFCURVE",
"357 -10 CURVE SMOOTH"
);
},
{
closed = 1;
nodes = (
"252 56 OFFCURVE",
"209 164 OFFCURVE",
"248 350 CURVE SMOOTH",
"285 535 OFFCURVE",
"373 646 OFFCURVE",
"491 646 CURVE SMOOTH",
"610 646 OFFCURVE",
"653 535 OFFCURVE",
"615 350 CURVE SMOOTH",
"577 164 OFFCURVE",
"489 56 OFFCURVE",
"370 56 CURVE SMOOTH"
);
},
{
closed = 1;
nodes = (
"658 844 LINE",
"565 976 LINE",
"561 984 OFFCURVE",
"540 1015 OFFCURVE",
"504 1015 CURVE SMOOTH",
"464 1015 OFFCURVE",
"443 988 OFFCURVE",
"439 966 CURVE SMOOTH",
"433 938 OFFCURVE",
"447 917 OFFCURVE",
"477 896 CURVE SMOOTH",
"617 799 LINE"
);
},
{
closed = 1;
nodes = (
"818 520 OFFCURVE",
"945 605 OFFCURVE",
"967 711 CURVE SMOOTH",
"980 776 OFFCURVE",
"950 812 OFFCURVE",
"905 812 CURVE SMOOTH",
"862 812 OFFCURVE",
"830 782 OFFCURVE",
"824 749 CURVE SMOOTH",
"815 706 OFFCURVE",
"852 688 OFFCURVE",
"844 645 CURVE SMOOTH",
"834 601 OFFCURVE",
"798 568 OFFCURVE",
"741 541 CURVE",
"733 504 LINE"
);
}
);
width = 808;
}
);
leftKerningGroup = O;
note = Ohorngrave;
rightKerningGroup = O;
unicode = 1EDC;
},
{
glyphname = Ohornhookabove;
lastChange = "2015-10-20 08:24:08 +0000";
layers = (
{
layerId = "E9D5AAFE-D5DF-4A4E-94FD-DD81026DC4E3";
name = "Bold Italic";
paths = (
{
closed = 1;
nodes = (
"612 -10 OFFCURVE",
"753 135 OFFCURVE",
"797 350 CURVE SMOOTH",
"840 564 OFFCURVE",
"758 710 OFFCURVE",
"504 710 CURVE SMOOTH",
"251 710 OFFCURVE",
"109 564 OFFCURVE",
"66 350 CURVE SMOOTH",
"22 135 OFFCURVE",
"104 -10 OFFCURVE",
"357 -10 CURVE SMOOTH"
);
},
{
closed = 1;
nodes = (
"252 56 OFFCURVE",
"209 164 OFFCURVE",
"248 350 CURVE SMOOTH",
"285 535 OFFCURVE",
"373 646 OFFCURVE",
"491 646 CURVE SMOOTH",
"610 646 OFFCURVE",
"653 535 OFFCURVE",
"615 350 CURVE SMOOTH",
"577 164 OFFCURVE",
"489 56 OFFCURVE",
"370 56 CURVE SMOOTH"
);
},
{
closed = 1;
nodes = (
"564 826 LINE",
"551 828 OFFCURVE",
"537 832 OFFCURVE",
"541 853 CURVE SMOOTH",
"551 899 OFFCURVE",
"661 907 OFFCURVE",
"676 975 CURVE SMOOTH",
"686 1026 OFFCURVE",
"639 1051 OFFCURVE",
"579 1051 CURVE SMOOTH",
"496 1051 OFFCURVE",
"460 1014 OFFCURVE",
"454 987 CURVE SMOOTH",
"449 962 OFFCURVE",
"465 951 OFFCURVE",
"482 951 CURVE SMOOTH",
"503 951 OFFCURVE",
"519 966 OFFCURVE",
"523 982 CURVE SMOOTH",
"530 1009 OFFCURVE",
"554 1016 OFFCURVE",
"570 1016 CURVE SMOOTH",
"591 1016 OFFCURVE",
"599 999 OFFCURVE",
"595 982 CURVE SMOOTH",
"583 920 OFFCURVE",
"489 908 OFFCURVE",
"478 855 CURVE SMOOTH",
"471 821 OFFCURVE",
"504 801 OFFCURVE",
"551 801 CURVE"
);
},
{
closed = 1;
nodes = (
"818 520 OFFCURVE",
"945 605 OFFCURVE",
"967 711 CURVE SMOOTH",
"980 776 OFFCURVE",
"950 812 OFFCURVE",
"905 812 CURVE SMOOTH",
"862 812 OFFCURVE",
"830 782 OFFCURVE",
"824 749 CURVE SMOOTH",
"815 706 OFFCURVE",
"852 688 OFFCURVE",
"844 645 CURVE SMOOTH",
"834 601 OFFCURVE",
"798 568 OFFCURVE",
"741 541 CURVE",
"733 504 LINE"
);
}
);
width = 808;
}
);
leftKerningGroup = O;
note = Ohornhookabove;
rightKerningGroup = O;
unicode = 1EDE;
},
{
glyphname = Ohorntilde;
lastChange = "2015-10-20 08:24:07 +0000";
layers = (
{
layerId = "E9D5AAFE-D5DF-4A4E-94FD-DD81026DC4E3";
name = "Bold Italic";
paths = (
{
closed = 1;
nodes = (
"612 -10 OFFCURVE",
"753 135 OFFCURVE",
"797 350 CURVE SMOOTH",
"840 564 OFFCURVE",
"758 710 OFFCURVE",
"504 710 CURVE SMOOTH",
"251 710 OFFCURVE",
"109 564 OFFCURVE",
"66 350 CURVE SMOOTH",
"22 135 OFFCURVE",
"104 -10 OFFCURVE",
"357 -10 CURVE SMOOTH"
);
},
{
closed = 1;
nodes = (
"252 56 OFFCURVE",
"209 164 OFFCURVE",
"248 350 CURVE SMOOTH",
"285 535 OFFCURVE",
"373 646 OFFCURVE",
"491 646 CURVE SMOOTH",
"610 646 OFFCURVE",
"653 535 OFFCURVE",
"615 350 CURVE SMOOTH",
"577 164 OFFCURVE",
"489 56 OFFCURVE",
"370 56 CURVE SMOOTH"
);
},
{
closed = 1;
nodes = (
"382 836 OFFCURVE",
"402 853 OFFCURVE",
"438 853 CURVE SMOOTH",
"499 853 OFFCURVE",
"544 807 OFFCURVE",
"604 807 CURVE SMOOTH",
"680 807 OFFCURVE",
"729 883 OFFCURVE",
"755 929 CURVE",
"729 946 LINE",
"699 906 OFFCURVE",
"681 888 OFFCURVE",
"644 888 CURVE SMOOTH",
"584 888 OFFCURVE",
"539 934 OFFCURVE",
"479 934 CURVE SMOOTH",
"403 934 OFFCURVE",
"353 859 OFFCURVE",
"326 813 CURVE",
"354 796 LINE"
);
},
{
closed = 1;
nodes = (
"818 520 OFFCURVE",
"945 605 OFFCURVE",
"967 711 CURVE SMOOTH",
"980 776 OFFCURVE",
"950 812 OFFCURVE",
"905 812 CURVE SMOOTH",
"862 812 OFFCURVE",
"830 782 OFFCURVE",
"824 749 CURVE SMOOTH",
"815 706 OFFCURVE",
"852 688 OFFCURVE",
"844 645 CURVE SMOOTH",
"834 601 OFFCURVE",
"798 568 OFFCURVE",
"741 541 CURVE",
"733 504 LINE"
);
}
);
width = 808;
}
);
leftKerningGroup = O;
note = Ohorntilde;
rightKerningGroup = O;
unicode = 1EE0;
},
{
glyphname = Ohungarumlaut;
lastChange = "2015-10-20 08:24:08 +0000";
layers = (
{
layerId = "E9D5AAFE-D5DF-4A4E-94FD-DD81026DC4E3";
name = "Bold Italic";
paths = (
{
closed = 1;
nodes = (
"608 -10 OFFCURVE",
"749 135 OFFCURVE",
"793 350 CURVE SMOOTH",
"836 564 OFFCURVE",
"755 710 OFFCURVE",
"500 710 CURVE SMOOTH",
"247 710 OFFCURVE",
"106 564 OFFCURVE",
"62 350 CURVE SMOOTH",
"18 135 OFFCURVE",
"100 -10 OFFCURVE",
"353 -10 CURVE SMOOTH"
);
},
{
closed = 1;
nodes = (
"249 56 OFFCURVE",
"205 164 OFFCURVE",
"244 350 CURVE SMOOTH",
"281 535 OFFCURVE",
"370 646 OFFCURVE",
"487 646 CURVE SMOOTH",
"606 646 OFFCURVE",
"649 535 OFFCURVE",
"612 350 CURVE SMOOTH",
"573 164 OFFCURVE",
"485 56 OFFCURVE",
"366 56 CURVE SMOOTH"
);
},
{
closed = 1;
nodes = (
"537 870 LINE SMOOTH",
"576 891 OFFCURVE",
"600 913 OFFCURVE",
"605 940 CURVE",
"610 962 OFFCURVE",
"601 990 OFFCURVE",
"561 990 CURVE SMOOTH",
"527 990 OFFCURVE",
"490 957 OFFCURVE",
"483 951 CURVE SMOOTH",
"337 818 LINE",
"359 773 LINE"
);
},
{
closed = 1;
nodes = (
"744 870 LINE SMOOTH",
"782 891 OFFCURVE",
"807 913 OFFCURVE",
"812 940 CURVE",
"817 962 OFFCURVE",
"809 990 OFFCURVE",
"769 990 CURVE SMOOTH",
"733 990 OFFCURVE",
"696 957 OFFCURVE",
"689 951 CURVE SMOOTH",
"542 818 LINE",
"564 773 LINE"
);
}
);
width = 790;
}
);
leftKerningGroup = O;
note = Ohungarumlaut;
rightKerningGroup = O;
unicode = 0150;
},
{
glyphname = Omacron;
lastChange = "2015-10-20 08:24:07 +0000";
layers = (
{
layerId = "E9D5AAFE-D5DF-4A4E-94FD-DD81026DC4E3";
name = "Bold Italic";
paths = (
{
closed = 1;
nodes = (
"608 -10 OFFCURVE",
"749 135 OFFCURVE",
"793 350 CURVE SMOOTH",
"836 564 OFFCURVE",
"755 710 OFFCURVE",
"500 710 CURVE SMOOTH",
"247 710 OFFCURVE",
"106 564 OFFCURVE",
"62 350 CURVE SMOOTH",
"18 135 OFFCURVE",
"100 -10 OFFCURVE",
"353 -10 CURVE SMOOTH"
);
},
{
closed = 1;
nodes = (
"249 56 OFFCURVE",
"205 164 OFFCURVE",
"244 350 CURVE SMOOTH",
"281 535 OFFCURVE",
"370 646 OFFCURVE",
"487 646 CURVE SMOOTH",
"606 646 OFFCURVE",
"649 535 OFFCURVE",
"612 350 CURVE SMOOTH",
"573 164 OFFCURVE",
"485 56 OFFCURVE",
"366 56 CURVE SMOOTH"
);
},
{
closed = 1;
nodes = (
"711 778 LINE",
"725 847 LINE",
"332 847 LINE",
"319 778 LINE"
);
}
);
width = 790;
}
);
leftKerningGroup = O;
note = Omacron;
rightKerningGroup = O;
unicode = 014C;
},
{
glyphname = Oslash;
lastChange = "2015-10-20 08:24:08 +0000";
layers = (
{
layerId = "E9D5AAFE-D5DF-4A4E-94FD-DD81026DC4E3";
name = "Bold Italic";
paths = (
{
closed = 1;
nodes = (
"796 687 LINE",
"752 729 LINE",
"5 5 LINE",
"45 -36 LINE"
);
},
{
closed = 1;
nodes = (
"608 -10 OFFCURVE",
"749 135 OFFCURVE",
"793 350 CURVE SMOOTH",
"836 564 OFFCURVE",
"755 710 OFFCURVE",
"500 710 CURVE SMOOTH",
"247 710 OFFCURVE",
"106 564 OFFCURVE",
"62 350 CURVE SMOOTH",
"18 135 OFFCURVE",
"100 -10 OFFCURVE",
"353 -10 CURVE SMOOTH"
);
},
{
closed = 1;
nodes = (
"249 56 OFFCURVE",
"205 164 OFFCURVE",
"244 350 CURVE SMOOTH",
"281 535 OFFCURVE",
"370 646 OFFCURVE",
"487 646 CURVE SMOOTH",
"606 646 OFFCURVE",
"649 535 OFFCURVE",
"612 350 CURVE SMOOTH",
"573 164 OFFCURVE",
"485 56 OFFCURVE",
"366 56 CURVE SMOOTH"
);
}
);
width = 790;
}
);
leftKerningGroup = O;
note = Oslash;
rightKerningGroup = O;
unicode = 00D8;
},
{
glyphname = Oslashacute;
lastChange = "2015-10-20 08:24:08 +0000";
layers = (
{
layerId = "E9D5AAFE-D5DF-4A4E-94FD-DD81026DC4E3";
name = "Bold Italic";
paths = (
{
closed = 1;
nodes = (
"796 687 LINE",
"752 729 LINE",
"5 5 LINE",
"45 -36 LINE"
);
},
{
closed = 1;
nodes = (
"608 -10 OFFCURVE",
"749 135 OFFCURVE",
"793 350 CURVE SMOOTH",
"836 564 OFFCURVE",
"755 710 OFFCURVE",
"500 710 CURVE SMOOTH",
"247 710 OFFCURVE",
"106 564 OFFCURVE",
"62 350 CURVE SMOOTH",
"18 135 OFFCURVE",
"100 -10 OFFCURVE",
"353 -10 CURVE SMOOTH"
);
},
{
closed = 1;
nodes = (
"249 56 OFFCURVE",
"205 164 OFFCURVE",
"244 350 CURVE SMOOTH",
"281 535 OFFCURVE",
"370 646 OFFCURVE",
"487 646 CURVE SMOOTH",
"606 646 OFFCURVE",
"649 535 OFFCURVE",
"612 350 CURVE SMOOTH",
"573 164 OFFCURVE",
"485 56 OFFCURVE",
"366 56 CURVE SMOOTH"
);
},
{
closed = 1;
nodes = (
"603 872 LINE SMOOTH",
"641 893 OFFCURVE",
"665 914 OFFCURVE",
"671 941 CURVE",
"675 964 OFFCURVE",
"664 991 OFFCURVE",
"625 991 CURVE SMOOTH",
"589 991 OFFCURVE",
"557 960 OFFCURVE",
"549 952 CURVE",
"402 820 LINE",
"423 775 LINE"
);
}
);
width = 790;
}
);
leftKerningGroup = O;
note = Oslashacute;
rightKerningGroup = O;
unicode = 01FE;
},
{
glyphname = Otilde;
lastChange = "2015-10-20 08:24:08 +0000";
layers = (
{
layerId = "E9D5AAFE-D5DF-4A4E-94FD-DD81026DC4E3";
name = "Bold Italic";
paths = (
{
closed = 1;
nodes = (
"608 -10 OFFCURVE",
"749 135 OFFCURVE",
"793 350 CURVE SMOOTH",
"836 564 OFFCURVE",
"755 710 OFFCURVE",
"500 710 CURVE SMOOTH",
"247 710 OFFCURVE",
"106 564 OFFCURVE",
"62 350 CURVE SMOOTH",
"18 135 OFFCURVE",
"100 -10 OFFCURVE",
"353 -10 CURVE SMOOTH"
);
},
{
closed = 1;
nodes = (
"249 56 OFFCURVE",
"205 164 OFFCURVE",
"244 350 CURVE SMOOTH",
"281 535 OFFCURVE",
"370 646 OFFCURVE",
"487 646 CURVE SMOOTH",
"606 646 OFFCURVE",
"649 535 OFFCURVE",
"612 350 CURVE SMOOTH",
"573 164 OFFCURVE",
"485 56 OFFCURVE",
"366 56 CURVE SMOOTH"
);
},
{
closed = 1;
nodes = (
"362 812 OFFCURVE",
"382 829 OFFCURVE",
"418 829 CURVE SMOOTH",
"479 829 OFFCURVE",
"524 783 OFFCURVE",
"584 783 CURVE SMOOTH",
"660 783 OFFCURVE",
"708 859 OFFCURVE",
"734 905 CURVE",
"708 922 LINE",
"679 882 OFFCURVE",
"660 864 OFFCURVE",
"624 864 CURVE SMOOTH",
"564 864 OFFCURVE",
"518 910 OFFCURVE",
"459 910 CURVE SMOOTH",
"383 910 OFFCURVE",
"333 835 OFFCURVE",
"306 789 CURVE",
"334 772 LINE"
);
}
);
width = 790;
}
);
leftKerningGroup = O;
note = Otilde;
rightKerningGroup = O;
unicode = 00D5;
},
{
glyphname = OE;
lastChange = "2015-10-20 08:24:07 +0000";
layers = (
{
layerId = "E9D5AAFE-D5DF-4A4E-94FD-DD81026DC4E3";
name = "Bold Italic";
paths = (
{
closed = 1;
nodes = (
"458 -10 OFFCURVE",
"551 51 OFFCURVE",
"613 137 CURVE",
"559 193 LINE",
"513 104 OFFCURVE",
"446 54 OFFCURVE",
"368 54 CURVE SMOOTH",
"251 54 OFFCURVE",
"206 164 OFFCURVE",
"245 350 CURVE SMOOTH",
"282 535 OFFCURVE",
"372 646 OFFCURVE",
"489 646 CURVE SMOOTH",
"567 646 OFFCURVE",
"612 596 OFFCURVE",
"622 507 CURVE",
"699 563 LINE",
"673 649 OFFCURVE",
"604 710 OFFCURVE",
"481 710 CURVE SMOOTH",
"249 710 OFFCURVE",
"107 564 OFFCURVE",
"63 350 CURVE SMOOTH",
"19 135 OFFCURVE",
"102 -10 OFFCURVE",
"334 -10 CURVE SMOOTH"
);
},
{
closed = 1;
nodes = (
"1002 0 LINE",
"1063 198 LINE",
"1020 198 LINE",
"994 127 OFFCURVE",
"962 62 OFFCURVE",
"893 62 CURVE SMOOTH",
"693 62 LINE",
"810 637 LINE",
"984 637 LINE SMOOTH",
"1074 637 OFFCURVE",
"1066 539 OFFCURVE",
"1062 502 CURVE",
"1105 502 LINE",
"1145 700 LINE",
"644 700 LINE",
"502 0 LINE"
);
},
{
closed = 1;
nodes = (
"970 242 LINE",
"1019 483 LINE",
"984 483 LINE",
"972 439 OFFCURVE",
"956 394 OFFCURVE",
"913 394 CURVE SMOOTH",
"719 394 LINE",
"707 331 LINE",
"900 331 LINE SMOOTH",
"944 331 OFFCURVE",
"940 286 OFFCURVE",
"935 242 CURVE"
);
}
);
width = 1091;
}
);
leftKerningGroup = O;
note = OE;
rightKerningGroup = E;
unicode = 0152;
},
{
glyphname = P;
lastChange = "2015-10-20 08:24:07 +0000";
layers = (
{
layerId = "E9D5AAFE-D5DF-4A4E-94FD-DD81026DC4E3";
name = "Bold Italic";
paths = (
{
closed = 1;
nodes = (
"318 0 LINE",
"326 44 LINE",
"296 44 LINE SMOOTH",
"259 44 OFFCURVE",
"247 57 OFFCURVE",
"252 83 CURVE SMOOTH",
"289 265 LINE",
"409 265 LINE SMOOTH",
"587 265 OFFCURVE",
"658 356 OFFCURVE",
"684 483 CURVE SMOOTH",
"709 610 OFFCURVE",
"675 700 OFFCURVE",
"497 700 CURVE SMOOTH",
"115 700 LINE",
"107 656 LINE",
"137 656 LINE SMOOTH",
"174 656 OFFCURVE",
"187 643 OFFCURVE",
"182 617 CURVE SMOOTH",
"73 83 LINE SMOOTH",
"68 57 OFFCURVE",
"49 44 OFFCURVE",
"12 44 CURVE SMOOTH",
"-18 44 LINE",
"-27 0 LINE"
);
},
{
closed = 1;
nodes = (
"365 637 LINE",
"442 637 LINE SMOOTH",
"510 637 OFFCURVE",
"527 583 OFFCURVE",
"507 483 CURVE SMOOTH",
"487 383 OFFCURVE",
"446 328 OFFCURVE",
"378 328 CURVE SMOOTH",
"301 328 LINE"
);
}
);
width = 642;
}
);
note = P;
unicode = 0050;
},
{
glyphname = Thorn;
lastChange = "2015-10-20 08:24:08 +0000";
layers = (
{
layerId = "E9D5AAFE-D5DF-4A4E-94FD-DD81026DC4E3";
name = "Bold Italic";
paths = (
{
closed = 1;
nodes = (
"318 0 LINE",
"326 44 LINE",
"296 44 LINE SMOOTH",
"259 44 OFFCURVE",
"247 57 OFFCURVE",
"252 83 CURVE SMOOTH",
"268 160 LINE",
"388 160 LINE SMOOTH",
"565 160 OFFCURVE",
"636 250 OFFCURVE",
"662 377 CURVE SMOOTH",
"688 505 OFFCURVE",
"654 594 OFFCURVE",
"476 594 CURVE SMOOTH",
"356 594 LINE",
"377 700 LINE",
"115 700 LINE",
"107 656 LINE",
"137 656 LINE SMOOTH",
"174 656 OFFCURVE",
"187 643 OFFCURVE",
"182 617 CURVE SMOOTH",
"73 83 LINE SMOOTH",
"68 57 OFFCURVE",
"49 44 OFFCURVE",
"12 44 CURVE SMOOTH",
"-18 44 LINE",
"-27 0 LINE"
);
},
{
closed = 1;
nodes = (
"344 532 LINE",
"420 532 LINE SMOOTH",
"489 532 OFFCURVE",
"506 478 OFFCURVE",
"486 377 CURVE SMOOTH",
"465 277 OFFCURVE",
"425 222 OFFCURVE",
"357 222 CURVE SMOOTH",
"280 222 LINE"
);
}
);
width = 642;
}
);
note = Thorn;
unicode = 00DE;
},
{
glyphname = Q;
lastChange = "2015-10-20 08:24:08 +0000";
layers = (
{
layerId = "E9D5AAFE-D5DF-4A4E-94FD-DD81026DC4E3";
name = "Bold Italic";
paths = (
{
closed = 1;
nodes = (
"608 -10 OFFCURVE",
"749 135 OFFCURVE",
"793 350 CURVE SMOOTH",
"836 564 OFFCURVE",
"755 710 OFFCURVE",
"500 710 CURVE SMOOTH",
"247 710 OFFCURVE",
"106 564 OFFCURVE",
"62 350 CURVE SMOOTH",
"18 135 OFFCURVE",
"100 -10 OFFCURVE",
"353 -10 CURVE SMOOTH"
);
},
{
closed = 1;
nodes = (
"570 -201 OFFCURVE",
"627 -135 OFFCURVE",
"641 -63 CURVE SMOOTH",
"643 -54 OFFCURVE",
"645 -42 OFFCURVE",
"645 -32 CURVE",
"615 -32 LINE",
"590 -80 OFFCURVE",
"564 -98 OFFCURVE",
"517 -98 CURVE SMOOTH",
"428 -98 OFFCURVE",
"373 -33 OFFCURVE",
"277 -33 CURVE SMOOTH",
"265 -33 LINE",
"295 -13 OFFCURVE",
"317 0 OFFCURVE",
"339 9 CURVE",
"340 13 LINE",
"272 13 LINE",
"214 -5 OFFCURVE",
"157 -47 OFFCURVE",
"116 -82 CURVE",
"129 -107 LINE",
"159 -90 OFFCURVE",
"186 -85 OFFCURVE",
"210 -85 CURVE SMOOTH",
"306 -85 OFFCURVE",
"364 -201 OFFCURVE",
"469 -201 CURVE SMOOTH"
);
},
{
closed = 1;
nodes = (
"249 56 OFFCURVE",
"205 164 OFFCURVE",
"244 350 CURVE SMOOTH",
"281 535 OFFCURVE",
"370 646 OFFCURVE",
"487 646 CURVE SMOOTH",
"606 646 OFFCURVE",
"649 535 OFFCURVE",
"612 350 CURVE SMOOTH",
"573 164 OFFCURVE",
"485 56 OFFCURVE",
"366 56 CURVE SMOOTH"
);
}
);
width = 790;
}
);
leftKerningGroup = O;
note = Q;
rightKerningGroup = O;
unicode = 0051;
},
{
glyphname = R;
lastChange = "2015-10-20 08:24:07 +0000";
layers = (
{
layerId = "E9D5AAFE-D5DF-4A4E-94FD-DD81026DC4E3";
name = "Bold Italic";
paths = (
{
closed = 1;
nodes = (
"318 0 LINE",
"326 44 LINE",
"296 44 LINE SMOOTH",
"259 44 OFFCURVE",
"247 57 OFFCURVE",
"252 83 CURVE SMOOTH",
"293 284 LINE",
"413 284 LINE SMOOTH",
"589 284 OFFCURVE",
"659 365 OFFCURVE",
"684 493 CURVE SMOOTH",
"710 620 OFFCURVE",
"674 700 OFFCURVE",
"497 700 CURVE SMOOTH",
"115 700 LINE",
"107 656 LINE",
"137 656 LINE SMOOTH",
"174 656 OFFCURVE",
"187 643 OFFCURVE",
"182 617 CURVE SMOOTH",
"73 83 LINE SMOOTH",
"68 57 OFFCURVE",
"49 44 OFFCURVE",
"12 44 CURVE SMOOTH",
"-18 44 LINE",
"-27 0 LINE"
);
},
{
closed = 1;
nodes = (
"646 0 LINE",
"655 44 LINE",
"592 48 OFFCURVE",
"587 114 OFFCURVE",
"581 179 CURVE SMOOTH",
"576 225 OFFCURVE",
"572 280 OFFCURVE",
"509 304 CURVE",
"348 304 LINE",
"347 300 LINE",
"420 275 OFFCURVE",
"392 179 OFFCURVE",
"398 100 CURVE SMOOTH",
"405 28 OFFCURVE",
"431 0 OFFCURVE",
"518 0 CURVE SMOOTH"
);
},
{
closed = 1;
nodes = (
"365 637 LINE",
"441 637 LINE SMOOTH",
"509 637 OFFCURVE",
"530 593 OFFCURVE",
"509 493 CURVE SMOOTH",
"489 393 OFFCURVE",
"449 347 OFFCURVE",
"381 347 CURVE SMOOTH",
"305 347 LINE"
);
}
);
width = 709;
}
);
note = R;
rightKerningGroup = R;
unicode = 0052;
},
{
glyphname = Racute;
lastChange = "2015-10-20 08:24:08 +0000";
layers = (
{
layerId = "E9D5AAFE-D5DF-4A4E-94FD-DD81026DC4E3";
name = "Bold Italic";
paths = (
{
closed = 1;
nodes = (
"318 0 LINE",
"326 44 LINE",
"296 44 LINE SMOOTH",
"259 44 OFFCURVE",
"247 57 OFFCURVE",
"252 83 CURVE SMOOTH",
"293 284 LINE",
"413 284 LINE SMOOTH",
"589 284 OFFCURVE",
"659 365 OFFCURVE",
"684 493 CURVE SMOOTH",
"710 620 OFFCURVE",
"674 700 OFFCURVE",
"497 700 CURVE SMOOTH",
"115 700 LINE",
"107 656 LINE",
"137 656 LINE SMOOTH",
"174 656 OFFCURVE",
"187 643 OFFCURVE",
"182 617 CURVE SMOOTH",
"73 83 LINE SMOOTH",
"68 57 OFFCURVE",
"49 44 OFFCURVE",
"12 44 CURVE SMOOTH",
"-18 44 LINE",
"-27 0 LINE"
);
},
{
closed = 1;
nodes = (
"646 0 LINE",
"655 44 LINE",
"592 48 OFFCURVE",
"587 114 OFFCURVE",
"581 179 CURVE SMOOTH",
"576 225 OFFCURVE",
"572 280 OFFCURVE",
"509 304 CURVE",
"348 304 LINE",
"347 300 LINE",
"420 275 OFFCURVE",
"392 179 OFFCURVE",
"398 100 CURVE SMOOTH",
"405 28 OFFCURVE",
"431 0 OFFCURVE",
"518 0 CURVE SMOOTH"
);
},
{
closed = 1;
nodes = (
"365 637 LINE",
"441 637 LINE SMOOTH",
"509 637 OFFCURVE",
"530 593 OFFCURVE",
"509 493 CURVE SMOOTH",
"489 393 OFFCURVE",
"449 347 OFFCURVE",
"381 347 CURVE SMOOTH",
"305 347 LINE"
);
},
{
closed = 1;
nodes = (
"567 872 LINE SMOOTH",
"606 893 OFFCURVE",
"630 914 OFFCURVE",
"636 941 CURVE",
"639 964 OFFCURVE",
"629 991 OFFCURVE",
"589 991 CURVE SMOOTH",
"554 991 OFFCURVE",
"521 960 OFFCURVE",
"514 952 CURVE",
"367 820 LINE",
"388 775 LINE"
);
}
);
width = 709;
}
);
note = Racute;
rightKerningGroup = R;
unicode = 0154;
},
{
glyphname = Rcaron;
lastChange = "2015-10-20 08:24:08 +0000";
layers = (
{
layerId = "E9D5AAFE-D5DF-4A4E-94FD-DD81026DC4E3";
name = "Bold Italic";
paths = (
{
closed = 1;
nodes = (
"318 0 LINE",
"326 44 LINE",
"296 44 LINE SMOOTH",
"259 44 OFFCURVE",
"247 57 OFFCURVE",
"252 83 CURVE SMOOTH",
"293 284 LINE",
"413 284 LINE SMOOTH",
"589 284 OFFCURVE",
"659 365 OFFCURVE",
"684 493 CURVE SMOOTH",
"710 620 OFFCURVE",
"674 700 OFFCURVE",
"497 700 CURVE SMOOTH",
"115 700 LINE",
"107 656 LINE",
"137 656 LINE SMOOTH",
"174 656 OFFCURVE",
"187 643 OFFCURVE",
"182 617 CURVE SMOOTH",
"73 83 LINE SMOOTH",
"68 57 OFFCURVE",
"49 44 OFFCURVE",
"12 44 CURVE SMOOTH",
"-18 44 LINE",
"-27 0 LINE"
);
},
{
closed = 1;
nodes = (
"646 0 LINE",
"655 44 LINE",
"592 48 OFFCURVE",
"587 114 OFFCURVE",
"581 179 CURVE SMOOTH",
"576 225 OFFCURVE",
"572 280 OFFCURVE",
"509 304 CURVE",
"348 304 LINE",
"347 300 LINE",
"420 275 OFFCURVE",
"392 179 OFFCURVE",
"398 100 CURVE SMOOTH",
"405 28 OFFCURVE",
"431 0 OFFCURVE",
"518 0 CURVE SMOOTH"
);
},
{
closed = 1;
nodes = (
"365 637 LINE",
"441 637 LINE SMOOTH",
"509 637 OFFCURVE",
"530 593 OFFCURVE",
"509 493 CURVE SMOOTH",
"489 393 OFFCURVE",
"449 347 OFFCURVE",
"381 347 CURVE SMOOTH",
"305 347 LINE"
);
},
{
closed = 1;
nodes = (
"521 776 LINE",
"708 950 LINE",
"686 978 LINE",
"538 878 LINE",
"521 866 OFFCURVE",
"506 859 OFFCURVE",
"495 859 CURVE SMOOTH",
"485 859 OFFCURVE",
"473 866 OFFCURVE",
"461 878 CURVE SMOOTH",
"352 978 LINE",
"321 950 LINE",
"437 776 LINE"
);
}
);
width = 709;
}
);
note = Rcaron;
rightKerningGroup = R;
unicode = 0158;
},
{
glyphname = Rcommaaccent;
lastChange = "2015-10-20 08:24:07 +0000";
layers = (
{
layerId = "E9D5AAFE-D5DF-4A4E-94FD-DD81026DC4E3";
name = "Bold Italic";
paths = (
{
closed = 1;
nodes = (
"318 0 LINE",
"326 44 LINE",
"296 44 LINE SMOOTH",
"259 44 OFFCURVE",
"247 57 OFFCURVE",
"252 83 CURVE SMOOTH",
"293 284 LINE",
"413 284 LINE SMOOTH",
"589 284 OFFCURVE",
"659 365 OFFCURVE",
"684 493 CURVE SMOOTH",
"710 620 OFFCURVE",
"674 700 OFFCURVE",
"497 700 CURVE SMOOTH",
"115 700 LINE",
"107 656 LINE",
"137 656 LINE SMOOTH",
"174 656 OFFCURVE",
"187 643 OFFCURVE",
"182 617 CURVE SMOOTH",
"73 83 LINE SMOOTH",
"68 57 OFFCURVE",
"49 44 OFFCURVE",
"12 44 CURVE SMOOTH",
"-18 44 LINE",
"-27 0 LINE"
);
},
{
closed = 1;
nodes = (
"267 -343 OFFCURVE",
"357 -260 OFFCURVE",
"374 -177 CURVE SMOOTH",
"388 -112 OFFCURVE",
"360 -75 OFFCURVE",
"315 -75 CURVE SMOOTH",
"272 -75 OFFCURVE",
"238 -105 OFFCURVE",
"231 -139 CURVE SMOOTH",
"223 -182 OFFCURVE",
"261 -199 OFFCURVE",
"252 -243 CURVE SMOOTH",
"243 -287 OFFCURVE",
"211 -326 OFFCURVE",
"172 -361 CURVE",
"193 -387 LINE"
);
},
{
closed = 1;
nodes = (
"646 0 LINE",
"655 44 LINE",
"592 48 OFFCURVE",
"587 114 OFFCURVE",
"581 179 CURVE SMOOTH",
"576 225 OFFCURVE",
"572 280 OFFCURVE",
"509 304 CURVE",
"348 304 LINE",
"347 300 LINE",
"420 275 OFFCURVE",
"392 179 OFFCURVE",
"398 100 CURVE SMOOTH",
"405 28 OFFCURVE",
"431 0 OFFCURVE",
"518 0 CURVE SMOOTH"
);
},
{
closed = 1;
nodes = (
"365 637 LINE",
"441 637 LINE SMOOTH",
"509 637 OFFCURVE",
"530 593 OFFCURVE",
"509 493 CURVE SMOOTH",
"489 393 OFFCURVE",
"449 347 OFFCURVE",
"381 347 CURVE SMOOTH",
"305 347 LINE"
);
}
);
width = 709;
}
);
note = Rcommaaccent;
rightKerningGroup = R;
unicode = 0156;
},
{
glyphname = Rdotbelow;
lastChange = "2015-10-20 08:24:08 +0000";
layers = (
{
layerId = "E9D5AAFE-D5DF-4A4E-94FD-DD81026DC4E3";
name = "Bold Italic";
paths = (
{
closed = 1;
nodes = (
"318 0 LINE",
"326 44 LINE",
"296 44 LINE SMOOTH",
"259 44 OFFCURVE",
"247 57 OFFCURVE",
"252 83 CURVE SMOOTH",
"293 284 LINE",
"413 284 LINE SMOOTH",
"589 284 OFFCURVE",
"659 365 OFFCURVE",
"684 493 CURVE SMOOTH",
"710 620 OFFCURVE",
"674 700 OFFCURVE",
"497 700 CURVE SMOOTH",
"115 700 LINE",
"107 656 LINE",
"137 656 LINE SMOOTH",
"174 656 OFFCURVE",
"187 643 OFFCURVE",
"182 617 CURVE SMOOTH",
"73 83 LINE SMOOTH",
"68 57 OFFCURVE",
"49 44 OFFCURVE",
"12 44 CURVE SMOOTH",
"-18 44 LINE",
"-27 0 LINE"
);
},
{
closed = 1;
nodes = (
"321 -205 OFFCURVE",
"353 -174 OFFCURVE",
"361 -135 CURVE SMOOTH",
"369 -96 OFFCURVE",
"349 -64 OFFCURVE",
"308 -64 CURVE SMOOTH",
"267 -64 OFFCURVE",
"234 -96 OFFCURVE",
"227 -135 CURVE SMOOTH",
"219 -174 OFFCURVE",
"238 -205 OFFCURVE",
"279 -205 CURVE SMOOTH"
);
},
{
closed = 1;
nodes = (
"646 0 LINE",
"655 44 LINE",
"592 48 OFFCURVE",
"587 114 OFFCURVE",
"581 179 CURVE SMOOTH",
"576 225 OFFCURVE",
"572 280 OFFCURVE",
"509 304 CURVE",
"348 304 LINE",
"347 300 LINE",
"420 275 OFFCURVE",
"392 179 OFFCURVE",
"398 100 CURVE SMOOTH",
"405 28 OFFCURVE",
"431 0 OFFCURVE",
"518 0 CURVE SMOOTH"
);
},
{
closed = 1;
nodes = (
"365 637 LINE",
"441 637 LINE SMOOTH",
"509 637 OFFCURVE",
"530 593 OFFCURVE",
"509 493 CURVE SMOOTH",
"489 393 OFFCURVE",
"449 347 OFFCURVE",
"381 347 CURVE SMOOTH",
"305 347 LINE"
);
}
);
width = 709;
}
);
note = Rdotbelow;
rightKerningGroup = R;
unicode = 1E5A;
},
{
glyphname = Rdotbelowmacron;
lastChange = "2015-10-20 08:24:07 +0000";
layers = (
{
layerId = "E9D5AAFE-D5DF-4A4E-94FD-DD81026DC4E3";
name = "Bold Italic";
paths = (
{
closed = 1;
nodes = (
"318 0 LINE",
"326 44 LINE",
"296 44 LINE SMOOTH",
"259 44 OFFCURVE",
"247 57 OFFCURVE",
"252 83 CURVE SMOOTH",
"293 284 LINE",
"413 284 LINE SMOOTH",
"589 284 OFFCURVE",
"659 365 OFFCURVE",
"684 493 CURVE SMOOTH",
"710 620 OFFCURVE",
"674 700 OFFCURVE",
"497 700 CURVE SMOOTH",
"115 700 LINE",
"107 656 LINE",
"137 656 LINE SMOOTH",
"174 656 OFFCURVE",
"187 643 OFFCURVE",
"182 617 CURVE SMOOTH",
"73 83 LINE SMOOTH",
"68 57 OFFCURVE",
"49 44 OFFCURVE",
"12 44 CURVE SMOOTH",
"-18 44 LINE",
"-27 0 LINE"
);
},
{
closed = 1;
nodes = (
"321 -205 OFFCURVE",
"353 -174 OFFCURVE",
"361 -135 CURVE SMOOTH",
"369 -96 OFFCURVE",
"349 -64 OFFCURVE",
"308 -64 CURVE SMOOTH",
"267 -64 OFFCURVE",
"234 -96 OFFCURVE",
"227 -135 CURVE SMOOTH",
"219 -174 OFFCURVE",
"238 -205 OFFCURVE",
"279 -205 CURVE SMOOTH"
);
},
{
closed = 1;
nodes = (
"646 0 LINE",
"655 44 LINE",
"592 48 OFFCURVE",
"587 114 OFFCURVE",
"581 179 CURVE SMOOTH",
"576 225 OFFCURVE",
"572 280 OFFCURVE",
"509 304 CURVE",
"348 304 LINE",
"347 300 LINE",
"420 275 OFFCURVE",
"392 179 OFFCURVE",
"398 100 CURVE SMOOTH",
"405 28 OFFCURVE",
"431 0 OFFCURVE",
"518 0 CURVE SMOOTH"
);
},
{
closed = 1;
nodes = (
"365 637 LINE",
"441 637 LINE SMOOTH",
"509 637 OFFCURVE",
"530 593 OFFCURVE",
"509 493 CURVE SMOOTH",
"489 393 OFFCURVE",
"449 347 OFFCURVE",
"381 347 CURVE SMOOTH",
"305 347 LINE"
);
},
{
closed = 1;
nodes = (
"636 776 LINE",
"649 845 LINE",
"256 845 LINE",
"243 776 LINE"
);
}
);
width = 709;
}
);
note = Rdotbelowmacron;
rightKerningGroup = R;
unicode = 1E5C;
},
{
glyphname = Rlinebelow;
lastChange = "2015-10-20 08:24:08 +0000";
layers = (
{
layerId = "E9D5AAFE-D5DF-4A4E-94FD-DD81026DC4E3";
name = "Bold Italic";
paths = (
{
closed = 1;
nodes = (
"318 0 LINE",
"326 44 LINE",
"296 44 LINE SMOOTH",
"259 44 OFFCURVE",
"247 57 OFFCURVE",
"252 83 CURVE SMOOTH",
"293 284 LINE",
"413 284 LINE SMOOTH",
"589 284 OFFCURVE",
"659 365 OFFCURVE",
"684 493 CURVE SMOOTH",
"710 620 OFFCURVE",
"674 700 OFFCURVE",
"497 700 CURVE SMOOTH",
"115 700 LINE",
"107 656 LINE",
"137 656 LINE SMOOTH",
"174 656 OFFCURVE",
"187 643 OFFCURVE",
"182 617 CURVE SMOOTH",
"73 83 LINE SMOOTH",
"68 57 OFFCURVE",
"49 44 OFFCURVE",
"12 44 CURVE SMOOTH",
"-18 44 LINE",
"-27 0 LINE"
);
},
{
closed = 1;
nodes = (
"459 -126 LINE",
"470 -66 LINE",
"78 -66 LINE",
"66 -126 LINE"
);
},
{
closed = 1;
nodes = (
"646 0 LINE",
"655 44 LINE",
"592 48 OFFCURVE",
"587 114 OFFCURVE",
"581 179 CURVE SMOOTH",
"576 225 OFFCURVE",
"572 280 OFFCURVE",
"509 304 CURVE",
"348 304 LINE",
"347 300 LINE",
"420 275 OFFCURVE",
"392 179 OFFCURVE",
"398 100 CURVE SMOOTH",
"405 28 OFFCURVE",
"431 0 OFFCURVE",
"518 0 CURVE SMOOTH"
);
},
{
closed = 1;
nodes = (
"365 637 LINE",
"441 637 LINE SMOOTH",
"509 637 OFFCURVE",
"530 593 OFFCURVE",
"509 493 CURVE SMOOTH",
"489 393 OFFCURVE",
"449 347 OFFCURVE",
"381 347 CURVE SMOOTH",
"305 347 LINE"
);
}
);
width = 709;
}
);
note = Rlinebelow;
rightKerningGroup = R;
unicode = 1E5E;
},
{
glyphname = S;
lastChange = "2015-10-20 08:24:07 +0000";
layers = (
{
layerId = "E9D5AAFE-D5DF-4A4E-94FD-DD81026DC4E3";
name = "Bold Italic";
paths = (
{
closed = 1;
nodes = (
"431 -10 OFFCURVE",
"566 48 OFFCURVE",
"597 198 CURVE SMOOTH",
"653 475 OFFCURVE",
"268 392 OFFCURVE",
"300 555 CURVE SMOOTH",
"314 619 OFFCURVE",
"386 645 OFFCURVE",
"437 645 CURVE SMOOTH",
"516 645 OFFCURVE",
"588 606 OFFCURVE",
"579 492 CURVE",
"629 492 LINE",
"672 705 LINE",
"614 705 LINE",
"607 665 LINE SMOOTH",
"606 660 OFFCURVE",
"604 652 OFFCURVE",
"597 652 CURVE SMOOTH",
"590 652 OFFCURVE",
"585 658 OFFCURVE",
"581 661 CURVE SMOOTH",
"546 688 OFFCURVE",
"503 710 OFFCURVE",
"407 710 CURVE SMOOTH",
"251 710 OFFCURVE",
"137 649 OFFCURVE",
"112 524 CURVE SMOOTH",
"60 269 OFFCURVE",
"444 338 OFFCURVE",
"409 166 CURVE SMOOTH",
"392 82 OFFCURVE",
"320 55 OFFCURVE",
"247 55 CURVE SMOOTH",
"168 55 OFFCURVE",
"82 95 OFFCURVE",
"90 209 CURVE",
"40 209 LINE",
"-3 -4 LINE",
"54 -4 LINE",
"62 41 LINE SMOOTH",
"63 46 OFFCURVE",
"68 50 OFFCURVE",
"71 50 CURVE SMOOTH",
"74 50 OFFCURVE",
"77 50 OFFCURVE",
"82 47 CURVE",
"119 21 OFFCURVE",
"162 -10 OFFCURVE",
"276 -10 CURVE SMOOTH"
);
}
);
width = 632;
}
);
leftKerningGroup = S;
note = S;
rightKerningGroup = S;
unicode = 0053;
},
{
glyphname = Sacute;
lastChange = "2015-10-20 08:24:08 +0000";
layers = (
{
layerId = "E9D5AAFE-D5DF-4A4E-94FD-DD81026DC4E3";
name = "Bold Italic";
paths = (
{
closed = 1;
nodes = (
"431 -10 OFFCURVE",
"566 48 OFFCURVE",
"597 198 CURVE SMOOTH",
"653 475 OFFCURVE",
"268 392 OFFCURVE",
"300 555 CURVE SMOOTH",
"314 619 OFFCURVE",
"386 645 OFFCURVE",
"437 645 CURVE SMOOTH",
"516 645 OFFCURVE",
"588 606 OFFCURVE",
"579 492 CURVE",
"629 492 LINE",
"672 705 LINE",
"614 705 LINE",
"607 665 LINE SMOOTH",
"606 660 OFFCURVE",
"604 652 OFFCURVE",
"597 652 CURVE SMOOTH",
"590 652 OFFCURVE",
"585 658 OFFCURVE",
"581 661 CURVE SMOOTH",
"546 688 OFFCURVE",
"503 710 OFFCURVE",
"407 710 CURVE SMOOTH",
"251 710 OFFCURVE",
"137 649 OFFCURVE",
"112 524 CURVE SMOOTH",
"60 269 OFFCURVE",
"444 338 OFFCURVE",
"409 166 CURVE SMOOTH",
"392 82 OFFCURVE",
"320 55 OFFCURVE",
"247 55 CURVE SMOOTH",
"168 55 OFFCURVE",
"82 95 OFFCURVE",
"90 209 CURVE",
"40 209 LINE",
"-3 -4 LINE",
"54 -4 LINE",
"62 41 LINE SMOOTH",
"63 46 OFFCURVE",
"68 50 OFFCURVE",
"71 50 CURVE SMOOTH",
"74 50 OFFCURVE",
"77 50 OFFCURVE",
"82 47 CURVE",
"119 21 OFFCURVE",
"162 -10 OFFCURVE",
"276 -10 CURVE SMOOTH"
);
},
{
closed = 1;
nodes = (
"522 872 LINE SMOOTH",
"561 893 OFFCURVE",
"585 914 OFFCURVE",
"590 941 CURVE",
"594 964 OFFCURVE",
"584 991 OFFCURVE",
"544 991 CURVE SMOOTH",
"509 991 OFFCURVE",
"476 960 OFFCURVE",
"468 952 CURVE",
"322 820 LINE",
"343 775 LINE"
);
}
);
width = 632;
}
);
leftKerningGroup = S;
note = Sacute;
rightKerningGroup = S;
unicode = 015A;
},
{
glyphname = Scaron;
lastChange = "2015-10-20 08:24:08 +0000";
layers = (
{
layerId = "E9D5AAFE-D5DF-4A4E-94FD-DD81026DC4E3";
name = "Bold Italic";
paths = (
{
closed = 1;
nodes = (
"431 -10 OFFCURVE",
"566 48 OFFCURVE",
"597 198 CURVE SMOOTH",
"653 475 OFFCURVE",
"268 392 OFFCURVE",
"300 555 CURVE SMOOTH",
"314 619 OFFCURVE",
"386 645 OFFCURVE",
"437 645 CURVE SMOOTH",
"516 645 OFFCURVE",
"588 606 OFFCURVE",
"579 492 CURVE",
"629 492 LINE",
"672 705 LINE",
"614 705 LINE",
"607 665 LINE SMOOTH",
"606 660 OFFCURVE",
"604 652 OFFCURVE",
"597 652 CURVE SMOOTH",
"590 652 OFFCURVE",
"585 658 OFFCURVE",
"581 661 CURVE SMOOTH",
"546 688 OFFCURVE",
"503 710 OFFCURVE",
"407 710 CURVE SMOOTH",
"251 710 OFFCURVE",
"137 649 OFFCURVE",
"112 524 CURVE SMOOTH",
"60 269 OFFCURVE",
"444 338 OFFCURVE",
"409 166 CURVE SMOOTH",
"392 82 OFFCURVE",
"320 55 OFFCURVE",
"247 55 CURVE SMOOTH",
"168 55 OFFCURVE",
"82 95 OFFCURVE",
"90 209 CURVE",
"40 209 LINE",
"-3 -4 LINE",
"54 -4 LINE",
"62 41 LINE SMOOTH",
"63 46 OFFCURVE",
"68 50 OFFCURVE",
"71 50 CURVE SMOOTH",
"74 50 OFFCURVE",
"77 50 OFFCURVE",
"82 47 CURVE",
"119 21 OFFCURVE",
"162 -10 OFFCURVE",
"276 -10 CURVE SMOOTH"
);
},
{
closed = 1;
nodes = (
"475 776 LINE",
"661 950 LINE",
"640 978 LINE",
"492 878 LINE",
"475 866 OFFCURVE",
"460 859 OFFCURVE",
"449 859 CURVE SMOOTH",
"439 859 OFFCURVE",
"427 866 OFFCURVE",
"415 878 CURVE SMOOTH",
"306 978 LINE",
"275 950 LINE",
"391 776 LINE"
);
}
);
width = 632;
}
);
leftKerningGroup = S;
note = Scaron;
rightKerningGroup = S;
unicode = 0160;
},
{
glyphname = Scedilla;
lastChange = "2015-10-20 08:24:08 +0000";
layers = (
{
layerId = "E9D5AAFE-D5DF-4A4E-94FD-DD81026DC4E3";
name = "Bold Italic";
paths = (
{
closed = 1;
nodes = (
"431 -10 OFFCURVE",
"566 48 OFFCURVE",
"597 198 CURVE SMOOTH",
"653 475 OFFCURVE",
"268 392 OFFCURVE",
"300 555 CURVE SMOOTH",
"314 619 OFFCURVE",
"386 645 OFFCURVE",
"437 645 CURVE SMOOTH",
"516 645 OFFCURVE",
"588 606 OFFCURVE",
"579 492 CURVE",
"629 492 LINE",
"672 705 LINE",
"614 705 LINE",
"607 665 LINE SMOOTH",
"606 660 OFFCURVE",
"604 652 OFFCURVE",
"597 652 CURVE SMOOTH",
"590 652 OFFCURVE",
"585 658 OFFCURVE",
"581 661 CURVE SMOOTH",
"546 688 OFFCURVE",
"503 710 OFFCURVE",
"407 710 CURVE SMOOTH",
"251 710 OFFCURVE",
"137 649 OFFCURVE",
"112 524 CURVE SMOOTH",
"60 269 OFFCURVE",
"444 338 OFFCURVE",
"409 166 CURVE SMOOTH",
"392 82 OFFCURVE",
"320 55 OFFCURVE",
"247 55 CURVE SMOOTH",
"168 55 OFFCURVE",
"82 95 OFFCURVE",
"90 209 CURVE",
"40 209 LINE",
"-3 -4 LINE",
"54 -4 LINE",
"62 41 LINE SMOOTH",
"63 46 OFFCURVE",
"68 50 OFFCURVE",
"71 50 CURVE SMOOTH",
"74 50 OFFCURVE",
"77 50 OFFCURVE",
"82 47 CURVE",
"119 21 OFFCURVE",
"162 -10 OFFCURVE",
"276 -10 CURVE SMOOTH"
);
},
{
closed = 1;
nodes = (
"216 -250 OFFCURVE",
"333 -240 OFFCURVE",
"355 -133 CURVE SMOOTH",
"371 -61 OFFCURVE",
"297 -40 OFFCURVE",
"263 -36 CURVE",
"319 32 LINE",
"257 32 LINE",
"172 -74 LINE",
"177 -86 LINE",
"198 -87 OFFCURVE",
"256 -98 OFFCURVE",
"248 -142 CURVE SMOOTH",
"238 -191 OFFCURVE",
"186 -208 OFFCURVE",
"128 -208 CURVE SMOOTH",
"123 -208 OFFCURVE",
"117 -208 OFFCURVE",
"113 -207 CURVE",
"105 -246 LINE",
"124 -249 OFFCURVE",
"136 -250 OFFCURVE",
"159 -250 CURVE SMOOTH"
);
}
);
width = 632;
}
);
leftKerningGroup = S;
note = Scedilla;
rightKerningGroup = S;
unicode = 015E;
},
{
glyphname = Scircumflex;
lastChange = "2015-10-20 08:24:07 +0000";
layers = (
{
layerId = "E9D5AAFE-D5DF-4A4E-94FD-DD81026DC4E3";
name = "Bold Italic";
paths = (
{
closed = 1;
nodes = (
"431 -10 OFFCURVE",
"566 48 OFFCURVE",
"597 198 CURVE SMOOTH",
"653 475 OFFCURVE",
"268 392 OFFCURVE",
"300 555 CURVE SMOOTH",
"314 619 OFFCURVE",
"386 645 OFFCURVE",
"437 645 CURVE SMOOTH",
"516 645 OFFCURVE",
"588 606 OFFCURVE",
"579 492 CURVE",
"629 492 LINE",
"672 705 LINE",
"614 705 LINE",
"607 665 LINE SMOOTH",
"606 660 OFFCURVE",
"604 652 OFFCURVE",
"597 652 CURVE SMOOTH",
"590 652 OFFCURVE",
"585 658 OFFCURVE",
"581 661 CURVE SMOOTH",
"546 688 OFFCURVE",
"503 710 OFFCURVE",
"407 710 CURVE SMOOTH",
"251 710 OFFCURVE",
"137 649 OFFCURVE",
"112 524 CURVE SMOOTH",
"60 269 OFFCURVE",
"444 338 OFFCURVE",
"409 166 CURVE SMOOTH",
"392 82 OFFCURVE",
"320 55 OFFCURVE",
"247 55 CURVE SMOOTH",
"168 55 OFFCURVE",
"82 95 OFFCURVE",
"90 209 CURVE",
"40 209 LINE",
"-3 -4 LINE",
"54 -4 LINE",
"62 41 LINE SMOOTH",
"63 46 OFFCURVE",
"68 50 OFFCURVE",
"71 50 CURVE SMOOTH",
"74 50 OFFCURVE",
"77 50 OFFCURVE",
"82 47 CURVE",
"119 21 OFFCURVE",
"162 -10 OFFCURVE",
"276 -10 CURVE SMOOTH"
);
},
{
closed = 1;
nodes = (
"415 876 LINE",
"431 888 OFFCURVE",
"446 895 OFFCURVE",
"457 895 CURVE SMOOTH",
"468 895 OFFCURVE",
"479 888 OFFCURVE",
"492 876 CURVE SMOOTH",
"600 776 LINE",
"632 804 LINE",
"516 978 LINE",
"431 978 LINE",
"245 804 LINE",
"266 776 LINE"
);
}
);
width = 632;
}
);
leftKerningGroup = S;
note = Scircumflex;
rightKerningGroup = S;
unicode = 015C;
},
{
glyphname = Scommaaccent;
lastChange = "2015-10-20 08:24:07 +0000";
layers = (
{
layerId = "E9D5AAFE-D5DF-4A4E-94FD-DD81026DC4E3";
name = "Bold Italic";
paths = (
{
closed = 1;
nodes = (
"431 -10 OFFCURVE",
"566 48 OFFCURVE",
"597 198 CURVE SMOOTH",
"653 475 OFFCURVE",
"268 392 OFFCURVE",
"300 555 CURVE SMOOTH",
"314 619 OFFCURVE",
"386 645 OFFCURVE",
"437 645 CURVE SMOOTH",
"516 645 OFFCURVE",
"588 606 OFFCURVE",
"579 492 CURVE",
"629 492 LINE",
"672 705 LINE",
"614 705 LINE",
"607 665 LINE SMOOTH",
"606 660 OFFCURVE",
"604 652 OFFCURVE",
"597 652 CURVE SMOOTH",
"590 652 OFFCURVE",
"585 658 OFFCURVE",
"581 661 CURVE SMOOTH",
"546 688 OFFCURVE",
"503 710 OFFCURVE",
"407 710 CURVE SMOOTH",
"251 710 OFFCURVE",
"137 649 OFFCURVE",
"112 524 CURVE SMOOTH",
"60 269 OFFCURVE",
"444 338 OFFCURVE",
"409 166 CURVE SMOOTH",
"392 82 OFFCURVE",
"320 55 OFFCURVE",
"247 55 CURVE SMOOTH",
"168 55 OFFCURVE",
"82 95 OFFCURVE",
"90 209 CURVE",
"40 209 LINE",
"-3 -4 LINE",
"54 -4 LINE",
"62 41 LINE SMOOTH",
"63 46 OFFCURVE",
"68 50 OFFCURVE",
"71 50 CURVE SMOOTH",
"74 50 OFFCURVE",
"77 50 OFFCURVE",
"82 47 CURVE",
"119 21 OFFCURVE",
"162 -10 OFFCURVE",
"276 -10 CURVE SMOOTH"
);
},
{
closed = 1;
nodes = (
"212 -307 OFFCURVE",
"306 -230 OFFCURVE",
"323 -147 CURVE SMOOTH",
"336 -82 OFFCURVE",
"308 -45 OFFCURVE",
"263 -45 CURVE SMOOTH",
"220 -45 OFFCURVE",
"186 -76 OFFCURVE",
"180 -109 CURVE SMOOTH",
"171 -152 OFFCURVE",
"209 -170 OFFCURVE",
"201 -213 CURVE SMOOTH",
"192 -257 OFFCURVE",
"159 -297 OFFCURVE",
"120 -332 CURVE",
"142 -357 LINE"
);
}
);
width = 632;
}
);
leftKerningGroup = S;
note = Scommaaccent;
rightKerningGroup = S;
unicode = 0218;
},
{
glyphname = Sdotaccent;
lastChange = "2015-10-20 08:24:07 +0000";
layers = (
{
layerId = "E9D5AAFE-D5DF-4A4E-94FD-DD81026DC4E3";
name = "Bold Italic";
paths = (
{
closed = 1;
nodes = (
"431 -10 OFFCURVE",
"566 48 OFFCURVE",
"597 198 CURVE SMOOTH",
"653 475 OFFCURVE",
"268 392 OFFCURVE",
"300 555 CURVE SMOOTH",
"314 619 OFFCURVE",
"386 645 OFFCURVE",
"437 645 CURVE SMOOTH",
"516 645 OFFCURVE",
"588 606 OFFCURVE",
"579 492 CURVE",
"629 492 LINE",
"672 705 LINE",
"614 705 LINE",
"607 665 LINE SMOOTH",
"606 660 OFFCURVE",
"604 652 OFFCURVE",
"597 652 CURVE SMOOTH",
"590 652 OFFCURVE",
"585 658 OFFCURVE",
"581 661 CURVE SMOOTH",
"546 688 OFFCURVE",
"503 710 OFFCURVE",
"407 710 CURVE SMOOTH",
"251 710 OFFCURVE",
"137 649 OFFCURVE",
"112 524 CURVE SMOOTH",
"60 269 OFFCURVE",
"444 338 OFFCURVE",
"409 166 CURVE SMOOTH",
"392 82 OFFCURVE",
"320 55 OFFCURVE",
"247 55 CURVE SMOOTH",
"168 55 OFFCURVE",
"82 95 OFFCURVE",
"90 209 CURVE",
"40 209 LINE",
"-3 -4 LINE",
"54 -4 LINE",
"62 41 LINE SMOOTH",
"63 46 OFFCURVE",
"68 50 OFFCURVE",
"71 50 CURVE SMOOTH",
"74 50 OFFCURVE",
"77 50 OFFCURVE",
"82 47 CURVE",
"119 21 OFFCURVE",
"162 -10 OFFCURVE",
"276 -10 CURVE SMOOTH"
);
},
{
closed = 1;
nodes = (
"490 776 OFFCURVE",
"521 806 OFFCURVE",
"530 845 CURVE SMOOTH",
"538 884 OFFCURVE",
"517 915 OFFCURVE",
"476 915 CURVE SMOOTH",
"435 915 OFFCURVE",
"404 884 OFFCURVE",
"396 845 CURVE SMOOTH",
"388 806 OFFCURVE",
"407 776 OFFCURVE",
"448 776 CURVE SMOOTH"
);
}
);
width = 632;
}
);
leftKerningGroup = S;
note = Sdotaccent;
rightKerningGroup = S;
unicode = 1E60;
},
{
glyphname = Sdotbelow;
lastChange = "2015-10-20 08:24:07 +0000";
layers = (
{
layerId = "E9D5AAFE-D5DF-4A4E-94FD-DD81026DC4E3";
name = "Bold Italic";
paths = (
{
closed = 1;
nodes = (
"431 -10 OFFCURVE",
"566 48 OFFCURVE",
"597 198 CURVE SMOOTH",
"653 475 OFFCURVE",
"268 392 OFFCURVE",
"300 555 CURVE SMOOTH",
"314 619 OFFCURVE",
"386 645 OFFCURVE",
"437 645 CURVE SMOOTH",
"516 645 OFFCURVE",
"588 606 OFFCURVE",
"579 492 CURVE",
"629 492 LINE",
"672 705 LINE",
"614 705 LINE",
"607 665 LINE SMOOTH",
"606 660 OFFCURVE",
"604 652 OFFCURVE",
"597 652 CURVE SMOOTH",
"590 652 OFFCURVE",
"585 658 OFFCURVE",
"581 661 CURVE SMOOTH",
"546 688 OFFCURVE",
"503 710 OFFCURVE",
"407 710 CURVE SMOOTH",
"251 710 OFFCURVE",
"137 649 OFFCURVE",
"112 524 CURVE SMOOTH",
"60 269 OFFCURVE",
"444 338 OFFCURVE",
"409 166 CURVE SMOOTH",
"392 82 OFFCURVE",
"320 55 OFFCURVE",
"247 55 CURVE SMOOTH",
"168 55 OFFCURVE",
"82 95 OFFCURVE",
"90 209 CURVE",
"40 209 LINE",
"-3 -4 LINE",
"54 -4 LINE",
"62 41 LINE SMOOTH",
"63 46 OFFCURVE",
"68 50 OFFCURVE",
"71 50 CURVE SMOOTH",
"74 50 OFFCURVE",
"77 50 OFFCURVE",
"82 47 CURVE",
"119 21 OFFCURVE",
"162 -10 OFFCURVE",
"276 -10 CURVE SMOOTH"
);
},
{
closed = 1;
nodes = (
"279 -205 OFFCURVE",
"312 -174 OFFCURVE",
"320 -135 CURVE SMOOTH",
"327 -96 OFFCURVE",
"308 -64 OFFCURVE",
"267 -64 CURVE SMOOTH",
"226 -64 OFFCURVE",
"193 -96 OFFCURVE",
"185 -135 CURVE SMOOTH",
"178 -174 OFFCURVE",
"197 -205 OFFCURVE",
"238 -205 CURVE SMOOTH"
);
}
);
width = 632;
}
);
leftKerningGroup = S;
note = Sdotbelow;
rightKerningGroup = S;
unicode = 1E62;
},
{
glyphname = Germandbls;
lastChange = "2015-10-20 08:24:07 +0000";
layers = (
{
layerId = "E9D5AAFE-D5DF-4A4E-94FD-DD81026DC4E3";
name = "Bold Italic";
paths = (
{
closed = 1;
nodes = (
"619 -10 OFFCURVE",
"706 91 OFFCURVE",
"730 209 CURVE SMOOTH",
"751 311 OFFCURVE",
"697 381 OFFCURVE",
"556 404 CURVE",
"720 549 LINE",
"712 625 OFFCURVE",
"639 710 OFFCURVE",
"483 710 CURVE SMOOTH",
"288 710 OFFCURVE",
"180 627 OFFCURVE",
"152 487 CURVE SMOOTH",
"69 83 LINE SMOOTH",
"64 57 OFFCURVE",
"45 44 OFFCURVE",
"9 44 CURVE SMOOTH",
"-21 44 LINE",
"-30 0 LINE",
"241 0 LINE",
"252 53 LINE",
"246 68 OFFCURVE",
"246 89 OFFCURVE",
"251 111 CURVE SMOOTH",
"337 532 LINE SMOOTH",
"351 606 OFFCURVE",
"397 646 OFFCURVE",
"462 646 CURVE SMOOTH",
"530 646 OFFCURVE",
"550 601 OFFCURVE",
"550 549 CURVE",
"369 382 LINE",
"362 349 LINE",
"463 349 LINE SMOOTH",
"542 349 OFFCURVE",
"571 291 OFFCURVE",
"555 209 CURVE SMOOTH",
"536 116 OFFCURVE",
"484 52 OFFCURVE",
"415 52 CURVE SMOOTH",
"383 52 OFFCURVE",
"348 57 OFFCURVE",
"316 67 CURVE",
"302 3 LINE",
"332 -6 OFFCURVE",
"368 -10 OFFCURVE",
"405 -10 CURVE SMOOTH"
);
}
);
width = 757;
}
);
note = uni1E9E;
unicode = 1E9E;
},
{
glyphname = Schwa;
lastChange = "2015-10-20 08:24:08 +0000";
layers = (
{
layerId = "E9D5AAFE-D5DF-4A4E-94FD-DD81026DC4E3";
name = "Bold Italic";
paths = (
{
closed = 1;
nodes = (
"548 -10 OFFCURVE",
"680 134 OFFCURVE",
"724 349 CURVE SMOOTH",
"772 584 OFFCURVE",
"670 710 OFFCURVE",
"449 710 CURVE SMOOTH",
"255 710 OFFCURVE",
"127 594 OFFCURVE",
"84 454 CURVE",
"146 454 LINE",
"197 580 OFFCURVE",
"283 628 OFFCURVE",
"395 628 CURVE SMOOTH",
"533 628 OFFCURVE",
"572 502 OFFCURVE",
"541 349 CURVE SMOOTH",
"512 204 OFFCURVE",
"439 76 OFFCURVE",
"327 76 CURVE SMOOTH",
"218 76 OFFCURVE",
"212 194 OFFCURVE",
"224 253 CURVE",
"549 253 LINE",
"566 337 LINE",
"58 337 LINE",
"49 293 LINE SMOOTH",
"14 126 OFFCURVE",
"75 -10 OFFCURVE",
"309 -10 CURVE SMOOTH"
);
}
);
width = 720;
}
);
note = uni018F;
unicode = 018F;
},
{
glyphname = T;
lastChange = "2015-10-20 08:24:07 +0000";
layers = (
{
layerId = "E9D5AAFE-D5DF-4A4E-94FD-DD81026DC4E3";
name = "Bold Italic";
paths = (
{
closed = 1;
nodes = (
"488 0 LINE",
"496 44 LINE",
"466 44 LINE SMOOTH",
"429 44 OFFCURVE",
"416 57 OFFCURVE",
"420 83 CURVE SMOOTH",
"534 637 LINE",
"658 637 LINE SMOOTH",
"718 637 OFFCURVE",
"702 492 OFFCURVE",
"696 458 CURVE",
"739 458 LINE",
"788 700 LINE",
"127 700 LINE",
"78 458 LINE",
"121 458 LINE",
"128 492 OFFCURVE",
"171 637 OFFCURVE",
"232 637 CURVE SMOOTH",
"355 637 LINE",
"242 83 LINE SMOOTH",
"237 57 OFFCURVE",
"219 44 OFFCURVE",
"181 44 CURVE SMOOTH",
"152 44 LINE",
"143 0 LINE"
);
}
);
width = 708;
}
);
leftKerningGroup = T;
note = T;
rightKerningGroup = T;
unicode = 0054;
},
